<svg xmlns="http://www.w3.org/2000/svg" viewBox="0 0 857.1 1000"><path d="M782 863l-3 4q-64 63-145 97-86 36-177 36-92 0-177-36-82-35-144-97-63-63-98-144-23-58-30-106-2-15 27-20 28-4 31 11v2q11 51 26 89 28 69 85 126 55 55 126 85 74 31 154 31t154-31q72-30 126-85l3-3q6-6 14-3 7 1 18 12 20 21 10 32zM518 520l-36 37 35 35q12 12-4 27-10 10-18 10-6 0-11-6l-34-34-37 37q-3 3-8 3-9 0-18-9l-1-1q-10-9-10-16 0-4 5-10l36-36-36-37q-9-9 7-25 10-10 18-10 3 0 7 3l36 37 37-37q10-9 26 7 15 16 6 25zm263 32q0 66-25 127-25 59-71 104-44 45-104 70t-127 26-127-26-105-70q-46-46-70-104-8-18-8-22h-1q-5-15 24-25 28-9 34 7 21 55 54 93h1V542q1-76 57-130 58-57 141-57 82 0 140 57t58 139q0 82-58 140t-140 58q-33 0-63-9-15-6-7-34 9-28 25-24l7 2q8 2 19 3t17 2q58 0 98-40t40-97q0-57-40-96t-98-39q-60 0-99 44-36 41-36 90v230q61 38 135 38 54 0 103-21t87-58 58-86 20-102q0-111-78-189t-189-78q-112 0-190 78-30 29-43 48l-1 1q-5 6-7 9t-12 5-22-1q-12-3-20-10t-9-14V21q0-8 6-15t15-6h490q16 0 16 31t-16 30H207v270h1q22-24 57-47t60-34q61-26 129-26 67 0 127 26t104 70q46 45 71 104 25 63 25 128zm-17-324q5 4 5 10t-3 10-9 11q-15 15-22 15-5 0-9-4-59-51-115-74-72-31-154-31-75 0-147 27-15 5-25-21-5-14-4-21 1-9 9-11 72-32 167-32 91 0 176 36 76 32 131 85z"/></svg>