<svg xmlns="http://www.w3.org/2000/svg" viewBox="0 0 928.6 1000"><path d="M574 359q0 60-43 102t-102 43-103-43-42-102q0-60 42-102t103-43 102 43 43 102zm-27 123q26 0 46 10t33 26 22 37 14 46 6 46 2 44q0 37-22 66t-59 29H268q-37 0-59-29t-22-66q0-27 3-52t10-55 20-51 35-36 53-15h2q4 2 18 11t20 12 18 9 21 9 20 5 22 3 22-3 19-5 21-9 18-9 20-12 18-11zm382-143q0 7-6 13t-12 5h-54v72h54q7 0 12 5t6 12v108q0 7-6 12t-12 5h-54v72h54q7 0 12 5t6 13v107q0 7-6 12t-12 6h-54v125q0 37-26 63t-63 26H89q-36 0-63-26T0 911V89q0-37 26-63T89 0h679q37 0 63 26t26 63v125h54q7 0 12 6t6 12v107zM786 911V89q0-7-6-12t-12-6H89q-7 0-12 6t-6 12v822q0 7 6 12t12 6h679q7 0 12-6t6-12z"/></svg>