<svg xmlns="http://www.w3.org/2000/svg" viewBox="0 0 928.6 1000"><path d="M670 691q0-32-3-60t-12-56-22-48-35-32-51-13q-3 2-19 12t-23 13-23 11-27 10-26 3-26-3-28-10-22-11-24-13-19-12q-28 0-50 13t-36 32-22 48-12 56-3 60q0 41 23 68t58 27h321q34 0 58-27t23-68zm-96-332q0-60-43-102t-102-43-103 43-42 102q0 60 42 102t103 43 102-43 43-102zm355 302v107q0 8-5 13t-13 5h-54v125q0 37-26 63t-63 26H89q-36 0-63-26T0 911V89q0-37 26-63T89 0h679q37 0 63 26t26 63v125h54q8 0 13 5t5 13v107q0 8-5 13t-13 5h-54v72h54q8 0 13 5t5 12v108q0 7-5 12t-13 5h-54v72h54q8 0 13 5t5 13z"/></svg>