<svg xmlns="http://www.w3.org/2000/svg" viewBox="0 0 1142.9 1000"><path d="M571 631q0-36-5-65t-16-58-34-43-54-16q-3 2-17 10t-21 12-19 9-24 9-24 2-23-2-24-9-20-9-21-12-17-10q-32 0-54 16t-34 43-16 58-5 65 21 60 50 23h286q30 0 51-23t20-60zm-87-290q0-53-37-90t-90-37-89 37-37 90 37 89 89 38 90-38 37-89zm516 284v-36q0-8-5-13t-13-5H661q-8 0-13 5t-5 13v36q0 8 5 13t13 5h321q8 0 13-5t5-13zm0-145v-31q0-9-6-15t-14-5H663q-8 0-14 5t-6 15v31q0 8 6 14t14 6h317q8 0 14-6t6-14zm0-141v-35q0-8-5-13t-13-5H661q-8 0-13 5t-5 13v35q0 8 5 13t13 5h321q8 0 13-5t5-13zm143-178v678q0 37-26 63t-63 27H857v-54q0-8-5-13t-13-5h-35q-8 0-13 5t-5 13v54H357v-54q0-8-5-13t-13-5h-35q-8 0-13 5t-5 13v54H89q-36 0-63-27T0 839V161q0-37 26-63t63-27h965q36 0 63 27t26 63z"/></svg>