<svg xmlns="http://www.w3.org/2000/svg" viewBox="0 0 1071.4 1000"><path d="M357 786q0-30-21-51t-50-21-51 21-21 51 21 50 51 21 50-21 21-50zM143 500h214V357h-88q-8 1-12 5L148 471q-4 7-5 12v17zm714 286q0-30-21-51t-50-21-51 21-21 51 21 50 51 21 50-21 21-50zm72-375V304q0-8-5-13t-13-5H786V161q0-8-5-13t-13-5H661q-8 0-13 5t-5 13v125H518q-8 0-13 5t-5 13v107q0 7 5 12t13 6h125v125q0 7 5 12t13 5h107q8 0 13-5t5-12V429h125q8 0 13-6t5-12zm142-304v643q0 14-10 25t-25 11H929q0 59-42 101t-101 42-101-42-42-101H429q0 59-42 101t-101 42-101-42-42-101H71q-14 0-25-11t-10-25 10-25 25-11V482q0-14 8-32t18-29l110-110q11-11 29-18t32-7h89V107q0-14 11-25t25-11h643q14 0 25 11t10 25z"/></svg>