<svg xmlns="http://www.w3.org/2000/svg" viewBox="0 0 1285.7 1000"><path d="M576 536q-33-1-47-31-9-19-27-30t-38-11q-29 0-50 21t-21 51q0 31 20 49l6 5q19 17 45 17 21 0 38-11t27-30q14-29 47-30zm317-72q0-31-20-49l-6-5q-19-17-46-17-20 0-37 11t-27 30q-14 29-47 30 33 1 47 31 9 19 27 30t37 11q30 0 51-21t21-51zM655 341q-9 19-31 27t-40-3q-35-17-75-17-28 0-55 10 1 0 5-1t5 0q52 0 95 28t67 74q9 20 2 41t-28 31q-10 5-22 5 12 0 22 5 20 9 28 30t-2 41q-23 46-67 74t-95 28h-3q-9-1-25-2l-161-15-134 67q-8 4-16 4-22 0-32-20L4 570q-6-13-2-27t16-21l117-66 82-149q10-87 51-163T377 12q18-14 40-12t36 19 12 40-20 36q-39 33-65 71 69-47 149-56 22-3 40 10t20 36q3 23-11 40t-36 20q-46 5-88 31 25-6 55-6 64 0 122 28 20 10 27 31t-3 41zm538-89l89 178q6 13 2 27t-16 21l-117 66-82 149q-10 87-51 163T909 988q-15 12-35 12-25 0-41-19-14-18-12-40t19-36q40-33 66-71-69 47-149 56-2 1-7 1-20 0-35-14t-18-33q-3-23 11-40t35-20q47-6 89-31-26 6-55 6-64 0-122-28-20-10-27-31t3-41q9-20 30-27t41 2q35 18 75 18 28 0 55-10-2 0-5 1t-6 0q-51 0-95-28t-66-74q-9-20-2-41t28-31q10-5 22-5-12 0-22-5-20-9-28-30t2-41q23-47 66-74t95-28h4q8 1 24 2l162 15 134-67q7-4 16-4 22 0 32 20z"/></svg>