<svg xmlns="http://www.w3.org/2000/svg" viewBox="0 0 1000 1000"><path d="M47 186c-26 0-47 21-47 46v535c0 26 21 47 47 47h907c25 0 46-21 46-47V232c0-25-21-46-46-46H47zM37 318h73l10 19v-19h85l19 42 18-42h271c13 0 24 2 32 9v-9h74v9c13-7 29-9 47-9h107l10 19v-19h80l11 19v-19h77v164h-78l-15-25v25h-98l-10-27h-24l-11 27h-51c-20 0-35-5-45-10v10H498v-38c0-5-1-5-4-5h-4v43H256v-21l-8 21h-49l-8-20v20H97l-11-27H62l-11 27H3v-86l34-78zM3 459h31l11-26h58l10 26h57v-92l41 92h24l41-92v92h29V341h-47l-33 80-37-80h-46v112L95 341H53L3 459zm323-118v118h93v-24h-66v-24h64v-24h-64v-21h66v-25h-93zm113 0v118h28v-43h30c10 0 16 1 20 5 5 6 5 16 5 23v15h28v-23c0-11-1-16-5-22-2-3-7-7-13-10 7-3 19-12 19-31 0-13-5-21-14-26s-19-6-34-6h-64zm128 0v118h29V341h-29zm100 0c-20 0-34 5-43 14-12 13-15 29-15 46 0 21 5 35 15 45s27 13 41 13h32l11-26h58l11 26h57v-88l53 88h39V341h-28v82l-49-82h-43v112l-47-112h-42l-40 93h-12c-8 0-15-2-20-6-5-6-7-15-7-28 0-12 3-22 8-26 5-6 11-7 21-7h27v-26h-27zM73 361l19 47H55l18-47zm664 0l20 47h-39l19-47zm-270 5h34c5 0 10 0 13 2 4 2 6 5 6 10s-2 9-6 11c-3 3-8 3-13 3h-34v-26zM201 519h150l22 25 23-25h101c11 0 30 2 39 10v-10h90c9 0 27 2 38 10v-10h136v10c7-7 21-10 34-10h76v10c8-6 19-10 35-10h52v24h-56c-29 0-40 18-40 35 0 37 33 35 59 36 5 0 8 1 10 3 2 1 3 4 3 7 0 4-1 6-3 8s-6 3-11 3h-54v25h54c18 0 31-5 38-15v31c-11 5-26 7-41 7h-73v-10c-8 6-23 10-38 10H617v-38c0-4 0-5-5-5h-3v43h-76v-44c-12 5-26 6-39 6h-8v38h-92l-22-25-24 25H201V519zm25 24v118h110l36-39 35 39h54v-40h35c24 0 49-7 49-39 0-33-25-39-48-39h-89l-35 39-35-39H226zm331 0v118h28v-43h30c10 0 16 1 21 5 5 5 4 16 4 23v15h28v-24c0-10-1-15-5-21-2-4-7-8-13-10 7-3 20-13 20-31 0-14-6-21-15-26s-19-6-33-6h-65zm128 0v118h94v-25h-66v-23h64v-24h-64v-22h66v-24h-94zm147 0c-29 0-40 18-40 35 0 37 33 35 59 36 5 0 8 1 10 3s3 4 3 8c0 3-1 6-3 7-2 3-6 3-12 3h-54v26h55c28 0 44-12 44-38 0-12-3-19-9-24-6-7-17-10-32-10h-15c-4 0-8-1-11-2s-6-4-6-8 1-7 5-9c2-2 6-2 11-2h51v-25h-56zm-399 13v94l-43-48 43-46zm-180 11h71l30 35-32 34h-69v-23h62v-24h-62v-22zm208 0h36c10 0 17 4 17 15 0 10-6 16-17 16h-36v-31zm125 0h34c5 0 10 0 14 2 3 2 5 6 5 11s-2 9-5 11c-4 2-9 2-14 2h-34v-26zm360 1h51v34l-3-3c-6-7-16-9-32-10h-15c-4 0-8 0-10-1-4-2-7-5-7-9s2-7 5-9c2-2 6-2 11-2z"/></svg>