<svg xmlns="http://www.w3.org/2000/svg" viewBox="0 0 1000 1000"><path d="M536 143q0-15-11-25t-25-11-25 11-11 25 11 25 25 11 25-11 11-25zm464 518v196q0 12-11 17-5 1-7 1-7 0-13-5l-52-52q-66 80-177 127t-240 46-240-46T83 818l-52 52q-5 5-13 5-2 0-7-1-11-5-11-17V661q0-8 5-13t13-5h196q13 0 17 11 5 11-4 19l-56 56q38 51 106 86t152 46V500H321q-14 0-25-11t-10-25v-71q0-15 10-25t25-11h108v-91q-33-19-52-51t-20-72q0-59 42-101T500 0t101 42 42 101q0 39-20 72t-52 51v91h108q14 0 25 11t10 25v71q0 15-10 25t-25 11H571v361q84-11 152-46t106-86l-56-56q-8-8-4-19t17-11h196q8 0 13 5t5 13z"/></svg>