<svg xmlns="http://www.w3.org/2000/svg" viewBox="0 0 785.7 1000"><path d="M275 269q9 0 16-6t6-15-6-16-16-6-15 6-6 16 6 15 15 6zm236 0q9 0 15-6t6-15-6-16-15-6-16 6-6 16 6 15 16 6zM58 372q23 0 40 17t16 40v240q0 24-16 41t-40 17-41-17-17-41V429q0-23 17-40t41-17zm591 11v371q0 26-18 44t-43 18h-42v127q0 24-16 40t-41 17-41-17-17-40V816h-77v127q0 24-16 40t-41 17q-24 0-40-17t-17-40l-1-127h-41q-26 0-43-18t-18-44V383h512zM520 157q59 30 95 85t36 121H135q0-66 35-121t96-85l-39-73q-4-8 2-12 8-3 12 4l40 74q53-24 112-24t112 24l40-74q4-7 11-4 7 4 3 12zm266 272v240q0 24-17 41t-41 17q-23 0-40-17t-17-41V429q0-24 17-40t40-17q24 0 41 17t17 40z"/></svg>