<svg xmlns="http://www.w3.org/2000/svg" viewBox="0 0 714.3 1000"><path d="M532 211l-64 183 66 12q92-252 92-289 0-32-22-32-31 0-72 126zM365 594l18 49q21-23 40-37l-18-3-22-4-18-5zM202 94q0 55 89 291 9-6 27-6 9 0 42 3l-68-196Q251 64 224 64q-11 0-16 9t-6 21zm-44 424q0 20 29 66t65 86 56 39q8 0 14-8t7-15q0-13-18-57-7-17-18-40t-26-49-35-46-34-17q-12 0-26 15t-14 26zM70 705q0 23 14 58 33 81 102 127t157 45q127 0 213-95 85-94 85-238v-37q0-13-7-35t-17-31q-31-28-118-42t-151-15q-20 0-27 6-7 3-7 20 0 19 12 33t31 22 43 14 49 6 48 2 39 0h13q13 0 22 11 8 10 11 30-16 16-54 31-34 12-52 25-36 26-60 64t-25 76q0 18 10 50t10 49l-1 6q-3 7-3 8-76-5-81-120-5 1-23 1 1 4 1 11 0 30-22 50t-53 21q-46 0-93-44t-47-89q0-19 18-37 29 36 34 42 43 58 74 58 7 0 15-4t8-12q0-19-49-81t-65-62q-24 0-39 25t-15 51zm-64 5q0-57 24-91t76-49q-16-42-16-58 0-35 34-69t69-34q16 0 39 8-91-257-91-316 0-45 23-73t66-28q73 0 181 324 4 10 5 13 3-9 16-44t24-66 30-72 36-68 40-49 42-20q40 0 63 28t23 68q0 60-89 307 34 8 56 25t33 44 14 52 4 62q0 83-26 156t-74 126-117 83-156 31q-62 0-124-23-83-32-144-107T6 710z"/></svg>