<svg xmlns="http://www.w3.org/2000/svg" viewBox="0 0 1000 1000"><path d="M589 464q0 15 11 25t25 11 25-11 11-25q0-81-58-139t-139-57-139 57-57 139q0 15 11 25t25 11 25-11 10-25q0-52 37-88t88-37 89 37 36 88zM466 143q-65 0-125 25t-102 69-69 103-25 124q0 15 10 25t25 11 25-11 11-25q0-103 73-176t177-74 177 74 73 176q0 31-10 58t-21 42-33 40q-19 22-29 35t-24 37-21 51-7 59q0 59-41 101t-101 42q-15 0-25 10t-11 25 11 25 25 11q88 0 151-63t63-151q0-23 4-42t15-35 19-28 25-30q19-23 30-36t24-38 21-52 6-61q0-65-25-124t-69-103-102-69-125-25zM330 544l126 126-323 323q-7 7-16 7t-17-7L7 900q-7-7-7-17t7-16zM900 7l93 93q7 7 7 17t-7 16L863 263l-14 14-40 40q-37-85-109-144l51-51L867 7q7-7 16-7t17 7z"/></svg>