<svg xmlns="http://www.w3.org/2000/svg" viewBox="0 0 1000 1000"><path d="M71 964q0 15-10 25t-25 11-25-11-11-25 11-25 25-10 25 10 10 25zm108-107q0 15-11 25t-25 11-25-11-11-25 11-25 25-11 25 11 11 25zm25-204l143 143-51 50-142-142zm189-10q0 14-11 25t-25 11-25-11-11-25 11-25 25-11 25 11 11 25zm394-179q0 33-6 61t-21 52-24 38-30 36q-17 19-25 30t-19 28-15 35-4 42q0 88-63 151t-151 63q-15 0-25-11t-11-25 11-25 25-10q59 0 101-42t41-101q0-32 7-59t21-51 24-37 29-35q22-26 33-40t21-42 10-58q0-103-73-176t-177-74-177 74-73 176q0 15-11 25t-25 11-25-11-10-25q0-65 25-124t69-103 102-69 125-25 125 25 102 69 69 103 25 124zm-287 72q0 14-11 25t-25 10-25-10-10-25 10-25 25-11 25 11 11 25zm161-72q0 15-11 25t-25 11-25-11-11-25q0-52-36-88t-89-37q-51 0-88 37t-37 88q0 15-10 25t-25 11-25-11-11-25q0-81 57-139t139-57 139 57 58 139zm220-161q5 14-1 27t-20 19q-5 3-13 3-10 0-20-7t-13-16q-38-100-125-165-11-9-14-23t7-27q9-11 24-14t26 7q102 77 149 196zm117-45q5 14-1 27t-20 19q-6 2-13 2-24 0-33-23-51-132-166-219-12-9-14-23t7-27q9-12 23-14t27 7q131 98 190 251z"/></svg>