<svg xmlns="http://www.w3.org/2000/svg" viewBox="0 0 857.1 1000"><path d="M542 432q0-60-29-94t-83-34q-35 0-69 17t-61 47-45 77-17 100q0 63 30 97t84 34q54 0 98-37t69-93 23-114zm315 68q0 62-20 110t-55 75-74 42-81 15h-8q-5 0-10 1-53 0-79-30-15-18-18-46-29 37-74 61t-96 25q-90 0-140-54t-49-150q0-88 37-162t100-117 137-43q48 0 86 19t60 56l1-11 6-31q0-3 3-7t5-3h66q3 0 7 6 3 3 2 9l-67 343q-3 13-3 26 0 22 7 29t25 8q16-1 32-3t41-14 43-28 31-50 14-76q0-163-97-260t-260-97q-73 0-139 28t-114 76-76 114-29 139 29 139 76 113 114 77 139 28q127 0 226-80 6-5 13-5t12 7l23 27q4 7 4 14-2 7-7 12-57 46-127 72t-144 25q-87 0-167-34t-136-92-92-137T0 500t34-166 92-137 136-92 167-34q192 0 310 119t118 310z"/></svg>