<svg xmlns="http://www.w3.org/2000/svg" viewBox="0 0 1285.7 1000"><path d="M281 555h96l-1-148zm573-56q0-48-28-78t-82-29h-30v216h29q51 0 81-32t30-77zM534 289v422q0 8-5 13t-13 6H395q-8 0-13-6t-5-13v-35H214l-30 45q-6 9-16 9H19q-12 0-17-10t2-20l310-422q5-8 15-8h186q7 0 13 6t6 13zm461 210q0 108-70 169t-181 62H593q-8 0-13-6t-6-13V289q0-8 6-13t13-6h150q111 0 182 61t70 168zm87 1v16q0 10-5 40t-12 57-24 60-42 57h-28q21-25 37-58t23-62 12-55 5-41l1-15q0-4-1-12t-4-34-11-51-23-62-37-69h24q23 26 40 59t26 63 13 53 6 39zm103 0q0 6-1 16t-4 40-12 57-25 60-41 57h-29q21-25 37-58t23-62 12-55 5-41l1-15q0-4-1-12t-4-34-11-51-22-62-37-69h24q23 26 40 59t26 63 12 53 6 39zm101 0q0 6-1 16t-4 40-12 57-25 60-41 57h-28q21-25 37-58t22-62 12-55 5-41l1-15q0-4-1-12t-4-34-11-51-22-62-37-69h24q23 26 40 59t26 63 12 53 6 39z"/></svg>