<svg xmlns="http://www.w3.org/2000/svg" viewBox="0 0 1285.7 1000"><path d="M964 250L750 643h429zm-714 0L36 643h428zm458-107q-8 22-25 40t-40 25v721h339q8 0 13 5t5 12v36q0 8-5 13t-13 5H232q-8 0-13-5t-5-13v-36q0-7 5-12t13-5h339V208q-22-8-39-25t-26-40H232q-8 0-13-5t-5-13V89q0-8 5-13t13-5h274q12-31 39-51t62-20 62 20 39 51h274q8 0 13 5t5 13v36q0 8-5 13t-13 5H708zm-101 9q19 0 32-13t13-32-13-31-32-14-31 14-13 31 13 32 31 13zm607 491q0 41-26 73t-65 51-81 27-78 10-78-10-80-27-66-51-26-73q0-6 20-45t51-98 60-109 57-103 31-55q10-19 31-19t32 19q2 4 31 55t57 103 59 109 52 98 19 45zm-714 0q0 41-26 73t-65 51-81 27-78 10-78-10-80-27-66-51-26-73q0-6 20-45t51-98 60-109 57-103 31-55q10-19 31-19t31 19q3 4 32 55t56 103 60 109 52 98 19 45z"/></svg>