<svg xmlns="http://www.w3.org/2000/svg" viewBox="0 0 1000 1000"><path d="M929 607v107q0 95-72 160v108q0 8-5 13t-13 5h-35q-8 0-13-5t-5-13v-66q-35 13-72 13H286q-37 0-72-13v62q0 9-5 16t-13 6h-35q-7 0-13-6t-5-16V874q-72-65-72-160V607h858zM393 375q0 8-5 13t-13 5-13-5-5-13 5-13 13-5 13 5 5 13zm36-36q0 8-5 13t-13 5-13-5-5-13 5-13 13-5 13 5 5 13zm-36-35q0 7-5 12t-13 5-13-5-5-12 5-13 13-5 13 5 5 13zm71 0q0 7-5 12t-13 5-12-5-5-12 5-13 12-5 13 5 5 13zm-35-36q0 8-5 13t-13 5-13-5-5-13 5-13 13-5 13 5 5 13zm-36-36q0 8-5 13t-13 5-13-5-5-13 5-13 13-5 13 5 5 13zm607 286v36q0 7-5 12t-13 5H18q-8 0-13-5t-5-12v-36q0-8 5-13t13-5h53V143q0-59 42-101T214 0q61 0 103 43 26-10 55-6t52 22l12-13q6-6 12 0l24 24q6 6 0 12L296 257q-6 6-12 0l-23-23q-6-6 0-13l12-12q-20-25-23-58t13-60q-20-20-49-20t-50 21-21 51v357h839q8 0 13 5t5 13zM500 268q0 8-5 13t-13 5-13-5-5-13 5-13 13-5 13 5 5 13zm-36-36q0 8-5 13t-13 5-12-5-5-13 5-13 12-5 13 5 5 13zm-35-36q0 8-5 13t-13 5-13-5-5-13 5-12 13-5 13 5 5 12zm107 36q0 8-5 13t-13 5-13-5-5-13 5-13 13-5 13 5 5 13zm-36-36q0 8-5 13t-13 5-13-5-5-13 5-12 13-5 13 5 5 12zm-36-35q0 7-5 12t-13 6-12-6-5-12 5-13 12-5 13 5 5 13zm107 35q0 8-5 13t-12 5-13-5-5-13 5-12 13-5 12 5 5 12zm-35-35q0 7-5 12t-13 6-13-6-5-12 5-13 13-5 13 5 5 13zm71 0q0 7-5 12t-13 6-12-6-6-12 6-13 12-5 13 5 5 13z"/></svg>