<svg xmlns="http://www.w3.org/2000/svg" viewBox="0 0 1142.9 1000"><path d="M1031 189H746v69h285v-69zM891 427q-51 0-82 29t-34 80h227q-10-109-111-109zm9 326q35 0 68-18t42-48h123q-55 171-238 171-119 0-190-73t-70-194q0-116 72-193t188-77q77 0 134 38t86 100 28 139q0 9-1 26H775q0 62 32 96t93 33zm-745-28h165q114 0 114-93 0-100-111-100H155v193zm0-299h156q44 0 69-21t26-63q0-80-106-80H155v164zM0 142h332q48 0 86 8t71 26 50 54 17 86q0 101-96 147 64 17 96 64t33 114q0 41-14 76t-37 58-55 39-67 24-75 7H0V142z"/></svg>