<svg xmlns="http://www.w3.org/2000/svg" viewBox="0 0 857.1 1000"><path d="M696 71q67 0 114 48t47 113v536q0 66-47 113t-114 48H161q-67 0-114-48T0 768V232q0-66 47-113t114-48h535zM279 276H71v439h214q65 0 110-32t44-95q0-88-80-111 60-30 60-92 0-32-11-54t-31-34-44-16-54-5zm-13 178h-98V351h91q66 0 66 50 0 53-59 53zm5 187H168V519h105q70 0 70 64 0 58-72 58zm363 17q-38 0-58-21t-20-59h229q1-6 1-17 0-74-42-123t-113-50q-72 0-118 48t-45 121q0 75 44 121t119 46q114 0 149-107h-77q-7 19-27 30t-42 11zm-6-204q63 0 70 68H556q2-31 22-49t50-19zm-90-148h178v43H538v-43z"/></svg>