<svg xmlns="http://www.w3.org/2000/svg" viewBox="0 0 1142.9 1000"><path d="M580 946q0-8-9-8-32 0-56-24t-24-57q0-9-9-9t-9 9q0 41 29 70t69 28q9 0 9-9zM281 681l489-424q-23-49-74-82t-125-32q-51 0-94 17t-68 45-38 58-14 58q0 215-76 360zm755 105q0 29-21 50t-51 21H714q0 59-42 101t-101 42-100-42-42-100l83-72h422q-92-105-126-256l61-55q35 199 167 311zm48-777l47 53q4 6 4 14t-6 12L84 993q-5 5-13 4t-12-6l-47-53q-4-6-4-14t6-12l104-90q-11-17-11-36 28-24 51-49t47-67 42-89 28-115 11-145q0-84 65-157t171-89q-4-10-4-21 0-23 16-38t37-16 38 16 16 38q0 11-4 21 69 10 122 46t82 88L1059 7q5-5 13-4t12 6z"/></svg>