<svg xmlns="http://www.w3.org/2000/svg" viewBox="0 0 1285.7 1000"><path d="M425 643H250q-22 0-32-20t4-37l105-140q-37-17-77-17-74 0-126 52T71 607t53 126 126 53q64 0 113-41t62-102zm-104-72h104q-10-47-42-82zm268 0l161-214H482l-55 74q59 57 70 140h92zm625 36q0-74-52-126t-126-52q-34 0-68 13l97 145q9 13 6 27t-15 23q-9 6-20 6-20 0-30-16l-97-145q-52 53-52 125 0 74 53 126t126 53 126-53 52-126zm72 0q0 103-74 177t-176 73-177-73-73-177q0-54 22-102t61-84l-36-54-197 261q-10 15-29 15H497q-13 91-83 153t-164 61q-103 0-177-73T0 607t73-177 177-73q64 0 120 31l76-102H321q-14 0-25-11t-10-25 10-25 25-11h215v72h243l-48-72H607q-14 0-25-10t-11-25 11-26 25-10h143q18 0 30 15l149 224q50-25 107-25 103 0 176 73t74 177z"/></svg>