<svg xmlns="http://www.w3.org/2000/svg" viewBox="0 0 1000 1000"><path d="M1000 786v214H0V786q25 0 47-8t33-15 27-21q16-15 28-22t32-6q13 0 24 4t18 9 18 15q16 14 26 21t33 15 48 8q25 0 47-8t33-15 26-21q12-11 18-15t18-9 24-4q20 0 32 6t28 22q16 13 27 21t32 15 48 8 47-8 33-15 26-21q17-15 29-22t32-6q19 0 31 6t28 22q16 13 27 21t33 15 47 8zm0-179v107q-13 0-25-4t-17-8-18-15q-16-14-26-21t-33-15-47-8q-26 0-48 8t-33 15-26 21l-18 15q-6 5-18 8t-24 4q-20 0-32-6t-28-21q-17-14-27-21t-32-15-48-8q-25 0-47 8t-33 15-27 21q-11 10-18 15t-17 8-24 4q-20 0-32-6t-29-21q-15-14-26-21t-33-15-47-8q-26 0-48 8t-32 15-27 21q-16 15-28 21t-32 6V607q0-45 31-76t76-31h36V250h143v250h143V250h142v250h143V250h143v250h36q45 0 76 31t31 76zM286 125q0 43-20 66t-52 23q-29 0-50-21t-21-50q0-16 5-29t13-19 18-15 17-18 13-25 5-37q22 0 47 41t25 84zm285 0q0 43-20 66t-51 23q-30 0-50-21t-21-50q0-16 5-29t13-19 17-15 18-18 13-25 5-37q21 0 46 41t25 84zm286 0q0 43-20 66t-51 23q-30 0-51-21t-21-50q0-16 6-29t13-19 17-15 17-18 13-25 6-37q21 0 46 41t25 84z"/></svg>