<svg xmlns="http://www.w3.org/2000/svg" viewBox="0 0 857.1 1000"><path d="M473 485q0-24-23-36t-43-1q-24 11-23 41t24 39q22 13 45-2t20-41zm45-8q4 36-20 67t-62 34-66-22-31-63q-1-28 14-52t40-36q40-17 79 6t46 66zm96-219q-11 12-30 19t-30 9-35 5q-86 11-181 0-24-4-35-6t-29-9-31-18q8-10 20-17t23-9 26-4q110-20 228-1 18 3 28 5t24 9 22 17zm23 417q0-4 3-15t2-18-10-9q-90 59-203 59t-205-59l-6 3-3 7q14 86 23 117 26 45 114 60 139 26 238-29 19-11 28-29t12-48 7-39zm73-387q5-30-5-42-24-31-86-49-121-35-272-20-74 7-126 26-21 8-33 13t-26 19-17 31q5 38 11 77t16 95 13 76q1 3 3 18t4 20 7 15 12 16q59 44 158 55 145 16 246-35 13-7 22-13t17-16 11-22q27-149 45-264zm147-56v536q0 66-47 113t-114 48H161q-67 0-114-48T0 768V232q0-66 47-113t114-48h535q67 0 114 48t47 113z"/></svg>