<svg xmlns="http://www.w3.org/2000/svg" viewBox="0 0 785.7 1000"><path d="M455 479q4 35-28 57t-63 3q-21-9-29-32t-1-46 29-32q20-11 41-7t36 20 15 37zm62-11q-8-60-63-92t-110-7q-35 15-56 49t-20 72q3 51 44 87t92 31q51-4 85-47t28-93zm133-303q-11-15-31-25t-32-12-40-7q-162-26-316 1-24 4-37 7t-30 12-28 24q16 16 42 26t41 12 49 6q127 16 250 1 35-5 50-7t40-12 42-26zm32 578q-4 14-9 42t-7 47-16 39-33 32q-48 27-106 40t-112 12-113-10q-25-5-45-10t-43-15-41-25-29-34q-14-54-31-163l3-9 10-5q124 83 283 83t283-83q12 3 13 13t-3 25-4 21zm101-537q-15 94-62 366-3 17-15 31t-24 23-31 17q-140 70-340 49-139-15-220-78-8-6-14-14t-10-20-5-19-3-22-3-20q-5-27-15-83t-16-90-13-83-12-88q2-14 10-27t17-21 26-17 25-12 27-10q70-26 175-36 211-21 377 28 86 25 120 68 9 11 9 28t-3 30z"/></svg>