<svg xmlns="http://www.w3.org/2000/svg" viewBox="0 0 714.3 1000"><path d="M651 357q10 102-73 144 65 16 98 58t25 119q-4 40-18 70t-36 49-54 33-68 19-81 9v142h-86V860q-45 0-68-1v141h-86V858q-10 0-30-1t-31 0H31l18-102h62q27 0 32-28V502h9-9V341q-7-37-50-37H31v-92l119 1q35 0 54-1V71h86v138q45-1 68-1V71h86v141q44 4 78 13t63 25 46 43 20 64zM531 661q0-20-8-35t-21-26-32-17-36-11-42-5-38-1-36 0-27 1v189h48q11 0 29-1t33-2 32-5 31-8 26-11 22-17 14-22 5-29zm-39-265q0-19-7-33t-17-23-27-16-31-9-34-5-32-1-31 0-22 1v171h46q9 0 27-1t31-3 29-6 27-10 21-15 15-22 5-28z"/></svg>