<svg xmlns="http://www.w3.org/2000/svg" viewBox="0 0 785.7 1000"><path d="M204 173q-35 0-61-25t-26-62q0-35 26-61t61-25 61 25 26 61q0 37-26 62t-61 25zm308 359q0 28-17 37t-35 4-27-19L228 310q-4-7-8-9t-6-1l-1 2q-4 4 2 12l68 77 1 198-90 255q-38 107-52 130-8 15-15 18-28 15-58 1-16-7-23-24t-5-32q1-9 110-345l3-232-48 91 20 124q2 14-1 24t-8 15-10 9-10 4l-4 1q-10 2-19-1t-13-9-8-13-4-10-2-6L22 422l118-212q12-19 63-19 41 0 59 22l237 291q4 3 8 9l1 2v1q4 7 4 16zm-225 83q24 64 49 126t39 94l13 31q21 51 24 69 6 39-20 54-20 13-37 9t-28-12-17-19q-4-9-5-14l-69-196zm460 331q17 27 17 32 0 3-2 4-5 2-8-1t-8-14-9-17q-64-96-236-369 1 0 4-1t3-2l2-1q6-5 6-10z"/></svg>