<svg xmlns="http://www.w3.org/2000/svg" viewBox="0 0 1000 1000"><path d="M196 0C88 0 0 88 0 196v608c0 108 88 196 196 196h608c108 0 196-88 196-196V196C1000 88 912 0 804 0H196zm338 187c94 7 149 68 155 146 5 40 4 69-2 91 54 2 116 26 120 113v86c-5 75-32 168-169 188-31 4-65 1-110 1-45-1-85-1-119-1-139 3-216-58-216-189-1-44 0-93 0-152 0-38-1-78 0-115 1-7 0-15 1-23 6-84 74-133 153-144l187-1zM378 304c-80 13-84 105 0 116h152c80-13 84-105 0-116H378zm-35 253c-82 13-83 116 3 127l279 1c82-12 82-116-3-127l-279-1z"/></svg>