<svg xmlns="http://www.w3.org/2000/svg" viewBox="0 0 785.7 1000"><path d="M310 849q41 18 78 18 210 0 210-187 0-64-23-101-15-24-34-41t-38-26-45-14-47-6-53-1q-40 0-56 6v88q0 59-1 88v92q0 21 2 47t7 37zm-8-417q23 4 61 4 46 0 80-7t61-25 42-50 14-79q0-39-16-68t-45-46-60-24-69-8q-28 0-73 7 0 28 3 84t2 85v45q0 30-1 44 0 26 1 38zM0 929l1-53q9-2 48-9t59-15q4-7 7-15t4-19 4-18 1-21 0-19v-36q0-548-12-572-2-5-12-8t-25-6-28-4-27-3-17-2L1 83q55-1 190-6t208-6q13 0 38 1t38 0q39 0 76 7t72 24 60 39 41 59 16 76q0 29-9 54t-22 40-36 32-41 25-47 22q86 20 144 75t57 138q0 56-20 101t-52 72-77 48-91 27-98 8q-25 0-74-2t-74-1q-59 0-171 6T0 929z"/></svg>