<svg xmlns="http://www.w3.org/2000/svg" viewBox="0 0 1000 1000"><path d="M319 329q-6-14-19-20t-28 0q-60 25-106 71T95 487q-6 14 0 27t19 19q8 3 14 3 23 0 33-23 19-47 55-83t83-54q14-7 20-20t0-27zm525-199l26 26-136 135 38 38q10 11 10 26t-10 25l-36 36q50 90 50 191 0 80-31 153t-84 125-125 84-153 31-153-31-125-84-84-125T0 607t31-153 84-125 125-84 153-31q101 0 191 50l36-36q11-10 25-10t26 10l38 38zm5-31q-6 5-12 5-8 0-13-5l-51-51q-5-5-5-12t5-13q6-5 13-5t13 5l50 51q5 5 5 12t-5 13zm128 128q-6 5-13 5t-12-5l-51-51q-5-5-5-12t5-13q5-5 13-5t12 5l51 50q5 6 5 13t-5 13zm23-102q0 8-5 13t-13 5h-53q-8 0-13-5t-5-13 5-13 13-5h53q8 0 13 5t5 13zM893 18v53q0 8-5 13t-13 5-13-5-5-13V18q0-8 5-13t13-5 13 5 5 13zm84 30l-51 51q-5 5-12 5t-13-5q-5-5-5-13t5-12l51-51q5-5 12-5t13 5q5 5 5 13t-5 12z"/></svg>