<svg xmlns="http://www.w3.org/2000/svg" viewBox="0 0 928.6 1000"><path d="M915 267q22 31 10 72L771 844q-10 36-42 60t-69 25H145q-43 0-83-30T7 825q-14-37-1-71 0-2 1-15t3-20q0-5-2-12t-2-11q1-6 5-12t9-13 9-13q13-21 25-51t17-51q2-6 0-17t0-16q2-6 9-15t10-13q12-20 23-51t14-51q1-5-1-17t0-16q2-7 12-17t13-13q10-14 23-47t16-54q0-4-2-14t-1-15q1-4 5-10t10-13 10-11q4-7 9-17t8-20 9-20 11-18 15-13 20-6 26 3v1q21-5 28-5h425q41 0 64 32t10 72L684 681q-20 66-40 85t-72 20H87q-15 0-21 8-6 9-1 24 14 39 81 39h515q16 0 31-9t20-23l167-550q4-13 3-32 21 8 33 24zm-594 1q-2 7 1 12t11 6h339q8 0 15-6t9-12l12-36q2-7-1-12t-12-6H356q-7 0-14 6t-9 12zm-46 143q-3 7 1 12t11 6h339q7 0 14-6t10-12l11-36q3-7-1-13t-11-5H310q-7 0-14 5t-10 13z"/></svg>