<svg xmlns="http://www.w3.org/2000/svg" viewBox="0 0 1214.3 1000"><path d="M107 661q-37 0-63 26t-26 63 26 63 63 26 63-26 26-63-26-63-63-26zm286 0q-37 0-63 26t-26 63 26 63 63 26 63-26 26-63-26-63-63-26zm0-286q-37 0-63 26t-26 63 26 63 63 27 63-27 26-63-26-63-63-26zm428 286q-36 0-63 26t-26 63 26 63 63 26 64-26 26-63-26-63-64-26zm286 0q-37 0-63 26t-26 63 26 63 63 26 63-26 26-63-26-63-63-26zM821 375q-36 0-63 26t-26 63 26 63 63 27 64-27 26-63-26-63-64-26zm286 0q-37 0-63 26t-26 63 26 63 63 27 63-27 26-63-26-63-63-26zm0-286q-37 0-63 26t-26 64 26 63 63 26 63-26 26-63-26-64-63-26zM214 750q0 45-31 76t-76 31-76-31-31-76 31-76 76-31 76 31 31 76zm286 0q0 45-31 76t-76 31-76-31-31-76 31-76 76-31 76 31 31 76zM214 464q0 45-31 76t-76 31-76-31-31-76 31-76 76-31 76 31 31 76zm286 0q0 45-31 76t-76 31-76-31-31-76 31-76 76-31 76 31 31 76zM214 179q0 44-31 75t-76 32-76-32-31-75 31-76 76-32 76 32 31 76zm715 571q0 45-32 76t-76 31-75-31-32-76 32-76 75-31 76 31 32 76zM500 179q0 44-31 75t-76 32-76-32-31-75 31-76 76-32 76 32 31 76zm714 571q0 45-31 76t-76 31-76-31-31-76 31-76 76-31 76 31 31 76zM929 464q0 45-32 76t-76 31-75-31-32-76 32-76 75-31 76 31 32 76zm285 0q0 45-31 76t-76 31-76-31-31-76 31-76 76-31 76 31 31 76zM929 179q0 44-32 75t-76 32-75-32-32-75 32-76 75-32 76 32 32 76zm285 0q0 44-31 75t-76 32-76-32-31-75 31-76 76-32 76 32 31 76z"/></svg>