<svg xmlns="http://www.w3.org/2000/svg" viewBox="0 0 928.6 1000"><path d="M911 536q0 14-11 25t-25 10H750q0 96-37 162l116 117q10 11 10 25t-10 25q-10 11-25 11t-25-11L668 790q-3 3-8 7t-24 16-36 21-46 16-54 7V357h-71v500q-29 0-57-7t-49-19-36-22-25-18l-8-8-102 116q-11 12-27 12-13 0-24-9-11-10-11-25t8-26l113-127q-32-63-32-153H54q-15 0-25-10t-11-25 11-25 25-11h125V336l-97-97q-11-10-11-25t11-25 25-10 25 10l97 97h471l96-97q11-10 25-10t26 10 10 25-10 25l-97 97v164h125q15 0 25 11t11 25zM643 214H286q0-74 52-126t126-52 127 52 52 126z"/></svg>