<svg xmlns="http://www.w3.org/2000/svg" viewBox="0 0 857.1 1000"><path d="M750 0q15 0 25 11t11 25v928q0 15-11 25t-25 11H36q-15 0-25-11T0 964V36q0-15 11-25T36 0h714zM286 161v35q0 8 5 13t13 5h35q8 0 13-5t5-13v-35q0-8-5-13t-13-5h-35q-8 0-13 5t-5 13zm0 143v35q0 8 5 13t13 5h35q8 0 13-5t5-13v-35q0-8-5-13t-13-5h-35q-8 0-13 5t-5 13zm0 142v36q0 8 5 13t13 5h35q8 0 13-5t5-13v-36q0-7-5-12t-13-5h-35q-8 0-13 5t-5 12zm0 143v36q0 8 5 13t13 5h35q8 0 13-5t5-13v-36q0-8-5-13t-13-5h-35q-8 0-13 5t-5 13zm-72 179v-36q0-8-5-13t-13-5h-35q-8 0-13 5t-5 13v36q0 8 5 13t13 5h35q8 0 13-5t5-13zm0-143v-36q0-8-5-13t-13-5h-35q-8 0-13 5t-5 13v36q0 8 5 13t13 5h35q8 0 13-5t5-13zm0-143v-36q0-7-5-12t-13-5h-35q-8 0-13 5t-5 12v36q0 8 5 13t13 5h35q8 0 13-5t5-13zm0-143v-35q0-8-5-13t-13-5h-35q-8 0-13 5t-5 13v35q0 8 5 13t13 5h35q8 0 13-5t5-13zm0-143v-35q0-8-5-13t-13-5h-35q-8 0-13 5t-5 13v35q0 8 5 13t13 5h35q8 0 13-5t5-13zm286 715V804q0-8-5-13t-13-5H304q-8 0-13 5t-5 13v107q0 8 5 13t13 5h178q8 0 13-5t5-13zm0-286v-36q0-8-5-13t-13-5h-36q-7 0-12 5t-5 13v36q0 8 5 13t12 5h36q8 0 13-5t5-13zm0-143v-36q0-7-5-12t-13-5h-36q-7 0-12 5t-5 12v36q0 8 5 13t12 5h36q8 0 13-5t5-13zm0-143v-35q0-8-5-13t-13-5h-36q-7 0-12 5t-5 13v35q0 8 5 13t12 5h36q8 0 13-5t5-13zm0-143v-35q0-8-5-13t-13-5h-36q-7 0-12 5t-5 13v35q0 8 5 13t12 5h36q8 0 13-5t5-13zm143 572v-36q0-8-5-13t-13-5h-36q-7 0-12 5t-6 13v36q0 8 6 13t12 5h36q8 0 13-5t5-13zm0-143v-36q0-8-5-13t-13-5h-36q-7 0-12 5t-6 13v36q0 8 6 13t12 5h36q8 0 13-5t5-13zm0-143v-36q0-7-5-12t-13-5h-36q-7 0-12 5t-6 12v36q0 8 6 13t12 5h36q8 0 13-5t5-13zm0-143v-35q0-8-5-13t-13-5h-36q-7 0-12 5t-6 13v35q0 8 6 13t12 5h36q8 0 13-5t5-13zm0-143v-35q0-8-5-13t-13-5h-36q-7 0-12 5t-6 13v35q0 8 6 13t12 5h36q8 0 13-5t5-13z"/></svg>