<svg xmlns="http://www.w3.org/2000/svg" viewBox="0 0 785.7 1000"><path d="M214 732v36q0 7-5 12t-13 6h-35q-7 0-13-6t-5-12v-36q0-7 5-12t13-6h35q8 0 13 6t5 12zm0-143v36q0 7-5 13t-13 5h-35q-7 0-13-5t-5-13v-36q0-7 5-12t13-6h35q8 0 13 6t5 12zm143 0v36q0 7-5 13t-13 5h-35q-8 0-13-5t-5-13v-36q0-7 5-12t13-6h35q8 0 13 6t5 12zM214 446v36q0 7-5 13t-13 5h-35q-7 0-13-5t-5-13v-36q0-7 5-12t13-5h35q8 0 13 5t5 12zm429 286v36q0 7-5 12t-13 6h-36q-7 0-12-6t-6-12v-36q0-7 6-12t12-6h36q7 0 13 6t5 12zM500 589v36q0 7-5 13t-13 5h-36q-7 0-12-5t-5-13v-36q0-7 5-12t12-6h36q7 0 13 6t5 12zM357 446v36q0 7-5 13t-13 5h-35q-8 0-13-5t-5-13v-36q0-7 5-12t13-5h35q8 0 13 5t5 12zM214 304v35q0 7-5 13t-13 5h-35q-7 0-13-5t-5-13v-35q0-8 5-13t13-5h35q8 0 13 5t5 13zm429 285v36q0 7-5 13t-13 5h-36q-7 0-12-5t-6-13v-36q0-7 6-12t12-6h36q7 0 13 6t5 12zM500 446v36q0 7-5 13t-13 5h-36q-7 0-12-5t-5-13v-36q0-7 5-12t12-5h36q7 0 13 5t5 12zM357 304v35q0 7-5 13t-13 5h-35q-8 0-13-5t-5-13v-35q0-8 5-13t13-5h35q8 0 13 5t5 13zM214 161v35q0 8-5 13t-13 5h-35q-7 0-13-5t-5-13v-35q0-8 5-13t13-5h35q8 0 13 5t5 13zm429 285v36q0 7-5 13t-13 5h-36q-7 0-12-5t-6-13v-36q0-7 6-12t12-5h36q7 0 13 5t5 12zM500 304v35q0 7-5 13t-13 5h-36q-7 0-12-5t-5-13v-35q0-8 5-13t12-5h36q7 0 13 5t5 13zM357 161v35q0 8-5 13t-13 5h-35q-8 0-13-5t-5-13v-35q0-8 5-13t13-5h35q8 0 13 5t5 13zm286 143v35q0 7-5 13t-13 5h-36q-7 0-12-5t-6-13v-35q0-8 6-13t12-5h36q7 0 13 5t5 13zM500 161v35q0 8-5 13t-13 5h-36q-7 0-12-5t-5-13v-35q0-8 5-13t12-5h36q7 0 13 5t5 13zm143 0v35q0 8-5 13t-13 5h-36q-7 0-12-5t-6-13v-35q0-8 6-13t12-5h36q7 0 13 5t5 13zM500 929h214V71H71v858h215V804q0-8 5-13t13-5h178q7 0 13 5t5 13v125zM786 36v928q0 15-11 25t-25 11H36q-15 0-25-11T0 964V36q0-15 11-25T36 0h714q15 0 25 11t11 25z"/></svg>