<svg xmlns="http://www.w3.org/2000/svg" viewBox="0 0 857.1 1000"><path d="M571 500q0 59-41 101t-101 42-101-42-42-101 42-101 101-42 101 42 41 101zm72 0q0-89-63-152t-151-62-152 62-63 152 63 151 152 63 151-63 63-151zm71 0q0 118-83 202t-202 84-202-84-84-202 84-202 202-84 202 84 83 202zm72 0q0-73-29-139t-76-114-114-76-138-28-139 28-114 76-76 114-29 139 29 139 76 113 114 77 139 28 138-28 114-77 76-113 29-139zm71 0q0 117-57 215T644 871t-215 58-216-58T58 715 0 500t58-215 155-156 216-58 215 58 156 156 57 215z"/></svg>