<svg xmlns="http://www.w3.org/2000/svg" viewBox="0 0 857.1 1000"><path d="M214 679q0-30-21-51t-50-21-51 21-21 51 21 50 51 21 50-21 21-50zm572 0q0-30-21-51t-51-21-50 21-21 51 21 50 50 21 51-21 21-50zm-26-221l-40-215q-3-13-13-21t-22-8H172q-12 0-22 8t-13 21L97 458q-3 16 8 29t27 13h593q17 0 27-13t8-29zM634 116q0-11-8-19t-19-8H250q-11 0-19 8t-8 19 8 19 19 8h357q11 0 19-8t8-19zm223 405v336h-71v72q0 29-21 50t-51 21-50-21-21-50v-72H214v72q0 29-21 50t-50 21-51-21-21-50v-72H0V521q0-63 14-125l57-253q6-44 55-77t128-49T429 0t174 17 128 49 55 77l58 253q13 57 13 125z"/></svg>