<svg xmlns="http://www.w3.org/2000/svg" viewBox="0 0 1000 1000"><path d="M214 857q0-29-21-50t-50-21-51 21-21 50 21 51 51 21 50-21 21-51zm215 0q0-29-21-50t-51-21-50 21-21 50 21 51 50 21 51-21 21-51zM214 643q0-30-21-51t-50-21-51 21-21 51 21 50 51 21 50-21 21-50zm429 214q0-29-21-50t-51-21-50 21-21 50 21 51 50 21 51-21 21-51zM429 643q0-30-21-51t-51-21-50 21-21 51 21 50 50 21 51-21 21-50zM214 429q0-30-21-51t-50-21-51 21-21 51 21 50 51 21 50-21 21-50zm429 214q0-30-21-51t-51-21-50 21-21 51 21 50 50 21 51-21 21-50zM429 429q0-30-21-51t-51-21-50 21-21 51 21 50 50 21 51-21 21-50zm428 428V643q0-29-21-50t-50-22-50 22-22 50v214q0 29 22 50t50 22 50-22 21-50zM643 429q0-30-21-51t-51-21-50 21-21 51 21 50 50 21 51-21 21-50zm214-179V107q0-14-10-25t-26-11H107q-14 0-25 11t-11 25v143q0 14 11 25t25 11h714q15 0 26-11t10-25zm0 179q0-30-21-51t-50-21-51 21-21 51 21 50 51 21 50-21 21-50zm72-358v858q0 29-22 50t-50 21H71q-29 0-50-21T0 929V71q0-29 21-50T71 0h786q29 0 50 21t22 50z"/></svg>