<svg xmlns="http://www.w3.org/2000/svg" viewBox="0 0 928.6 1000"><path d="M71 929h161V768H71v161zm197 0h178V768H268v161zM71 732h161V554H71v178zm197 0h178V554H268v178zM71 518h161V357H71v161zm411 411h179V768H482v161zM268 518h178V357H268v161zm428 411h161V768H696v161zM482 732h179V554H482v178zM286 250V89q0-7-6-12t-12-6h-36q-7 0-12 6t-6 12v161q0 7 6 13t12 5h36q7 0 12-5t6-13zm410 482h161V554H696v178zM482 518h179V357H482v161zm214 0h161V357H696v161zm18-268V89q0-7-5-12t-13-6h-35q-7 0-13 6t-5 12v161q0 7 5 13t13 5h35q8 0 13-5t5-13zm215-36v715q0 29-22 50t-50 21H71q-29 0-50-21T0 929V214q0-29 21-50t50-21h72V89q0-37 26-63t63-26h36q37 0 63 26t26 63v54h214V89q0-37 27-63t63-26h35q37 0 64 26t26 63v54h71q29 0 50 21t22 50z"/></svg>