<svg xmlns="http://www.w3.org/2000/svg" viewBox="0 0 1000 1000"><path d="M857 143q29 0 50 21t22 50v715q0 29-22 50t-50 21H71q-29 0-50-21T0 929V214q0-29 21-50t50-21h72V89q0-37 26-63t63-26h36q37 0 63 26t26 63v54h214V89q0-37 27-63t63-26h35q37 0 64 26t26 63v54h71zM643 89v161q0 8 5 13t13 5h35q8 0 13-5t5-13V89q0-8-5-13t-13-5h-35q-8 0-13 5t-5 13zm-429 0v161q0 8 5 13t13 5h36q8 0 13-5t5-13V89q0-8-5-13t-13-5h-36q-8 0-13 5t-5 13zm643 840V357H71v572h786zM500 607h125q8 0 13 5t5 13v36q0 7-5 12t-13 6H500v125q0 7-5 12t-13 5h-36q-7 0-12-5t-5-12V679H304q-8 0-13-6t-5-12v-36q0-8 5-13t13-5h125V482q0-8 5-13t12-5h36q8 0 13 5t5 13v125z"/></svg>