<svg xmlns="http://www.w3.org/2000/svg" viewBox="0 0 928.6 1000"><path d="M714 393q0-15-10-25t-25-11-25 11l-83 81V286q0-15-10-25t-25-11-25 11-11 25v163l-82-81q-11-11-25-11t-25 11-11 25 11 25l143 143q10 10 25 10t25-10l143-143q10-11 10-25zM357 857q0 30-21 51t-50 21-51-21-21-51 21-50 51-21 50 21 21 50zm500 0q0 30-21 51t-50 21-51-21-21-51 21-50 51-21 50 21 21 50zm72-607v286q0 13-9 23t-23 12l-583 68 3 12q2 8 3 15t1 13q0 8-13 35h513q15 0 26 11t10 25-10 25-26 11H250q-14 0-25-11t-11-25q0-8 6-22t17-33 11-22l-98-459H36q-15 0-25-10T0 179t11-26 25-10h143q9 0 16 3t11 9 7 14 4 15 3 16 3 14h670q14 0 25 11t11 25z"/></svg>