<svg xmlns="http://www.w3.org/2000/svg" viewBox="0 0 1285.7 1000"><path d="M66 381h50l-25-61zm347 293l41-44-39-44h-91v27h80v31h-80v30h89zm88-43l55 61V571zm161-27q0-18-22-18h-47v38h46q23 0 23-20zm161-2q0-16-23-16h-46v34h45q24 0 24-18zM668 342q0-16-23-16h-46v33h45q24 0 24-17zm256 39h50l-25-61zm-534-87v151h-37V327l-52 118h-32l-52-118v118h-74l-14-33H54l-14 33H1l64-151h54l61 143V294h59l48 103 43-103h60zm310 310q0 11-3 20t-7 14-13 9-15 6-17 2-18 1-18-1-16 0v51h-71l-44-50-47 50H289V555h145l44 49 46-49h116q60 0 60 49zM538 414v31H417V294h121v32h-85v27h83v31h-83v30h85zm748 312v128q0 31-22 53t-52 22H74q-31 0-52-22T0 854V475h62l14-34h31l14 34h121v-25l11 25h63l11-26v26h302v-55h6q5 0 5 7v48h156v-12q13 6 31 10t29 3 35 0 29-1l14-34h31l14 34h127v-32l18 32h102V264h-100v25l-14-25h-104v25l-12-25H857q-39 0-61 13v-13h-96v13q-14-13-41-13H309l-24 55-24-55H150v25l-12-25H44L0 364V146q0-31 22-53t52-22h1138q31 0 52 22t22 53v379h-67q-29 0-45 12v-12h-99q-31 0-44 12v-12H855v12q-17-12-49-12H690v12q-13-12-51-12H508l-30 32-28-32H256v210h191l31-32 29 32h117v-49h12q33 0 50-7v56h98v-55h4q4 0 6 1t1 6v48h295q32 0 49-13v13h94q33 0 53-9zM863 595q0 13-7 24t-19 17q14 5 19 14t5 26v30h-36v-25q0-19-7-25t-26-5h-38v55h-36V555h86q26 0 43 8t16 32zM708 335q0 13-7 24t-18 17q14 5 19 14t5 26v29h-37q0-5 1-15t0-13-2-11-5-9-10-4-16-2h-39v54h-36V294l85 1q28 0 44 8t16 32zm295 340v31H883V555h120v31h-84v27h83v31h-83v30zM766 294v151h-37V294h37zm386 364q0 48-57 48h-70v-33h70q19 0 19-13 0-9-9-12t-23-3-28-2-23-12-10-31q0-22 15-34t37-11h72v31h-66q-20 0-20 14 0 9 9 12t24 2 27 1 24 12 9 31zm134-28v56q-14 20-49 20h-70v-33h70q18 0 18-13 0-8-7-11t-17-3-23-1-22-5-17-13-7-27q0-22 15-34t37-11h72v31h-66q-20 0-20 14 0 12 16 13t38 2 32 15zm-92-335v150h-52l-68-113v113h-73l-15-33h-75l-14 33h-41q-72 0-72-74 0-77 74-77h35v33q-4 0-16-1t-16 0-12 1-12 4-9 7-6 13-2 19q0 21 8 32t28 11h16l51-118h54l61 142V295h55l64 105V295h37z"/></svg>