<svg xmlns="http://www.w3.org/2000/svg" viewBox="0 0 1285.7 1000"><path d="M479 692V306q-59 23-96 75t-37 118 37 118 96 75zm281-193q0-65-37-118t-96-75v387q59-23 96-76t37-118zm120 0q0 89-44 164T717 783t-164 43q-66 0-127-26t-104-69-70-105-26-127q0-88 44-164t119-119 164-44 164 44 119 119 44 164zm214 4q0-77-31-146t-82-114-120-73-141-27H553q-99 0-181 45T241 316t-49 187q0 96 49 177t131 130 181 47h167q72 0 141-28t120-75 82-113 31-138zm192-360v714q0 29-21 50t-51 22H71q-29 0-50-22T0 857V143q0-29 21-50t50-22h1143q29 0 51 22t21 50z"/></svg>