<svg xmlns="http://www.w3.org/2000/svg" viewBox="0 0 1285.7 1000"><path d="M175 434q0 28-20 46-17 15-50 15H95V372h10q34 0 50 15 20 18 20 47zm991-37q0 29-36 29h-11v-56h12q35 0 35 27zm-954 37q0-42-28-68t-72-26H59v186h53q42 0 67-21 33-28 33-71zm17 92h36V340h-36v186zm178-56q0-23-11-35t-42-23q-16-6-22-11t-6-13q0-9 7-14t20-6q16 0 29 15l19-25q-23-20-54-20-25 0-42 15t-16 38q0 19 10 31t35 20q21 7 25 11 11 6 11 18t-8 19-20 8q-27 0-39-25l-24 22q25 36 64 36 29 0 47-17t17-44zm156 50v-43q-21 21-44 21-27 0-45-18t-17-46q0-27 17-46t43-19q24 0 46 22v-43q-23-12-45-12-41 0-70 29t-29 69 29 68 69 29q24 0 46-11zm687 337V563q-36 22-81 47t-132 65-184 77-233 75-281 66h875q15 0 25-11t11-25zM775 435q0-42-29-72t-72-29-71 29-30 72 30 71 71 30 72-30 29-71zm85 96l80-191h-39l-51 125-49-125h-40l79 191h20zm97-5h102v-31h-66v-50h64v-32h-64v-41h66v-32H957v186zm218 0h44l-58-78q42-9 42-52 0-27-17-41t-49-15h-54v186h36v-74h5zm111-380v708q0 31-22 53t-52 22H74q-31 0-52-22T0 854V146q0-31 22-53t52-22h1138q31 0 52 22t22 53z"/></svg>