<svg xmlns="http://www.w3.org/2000/svg" viewBox="0 0 1285.7 1000"><path d="M1089 557q0 14-9 25t-21 13q-5 1-10 1h-86v-78h86q5 0 10 1 12 3 21 13t9 25zm-10-119q0 14-9 23t-21 12q-2 1-8 1h-78v-72h86q13 3 21 12t9 24zm-673 92V358H279v172q0 32-21 52t-59 21q-60 0-128-33v62q30 9 68 13t61 5l23 1q183 0 183-121zm399 102v-63q-56 29-112 33-60 5-94-23t-34-79 34-79 94-23q56 4 112 32v-62q-27-7-56-11t-45-5l-15-2q-71-3-122 8t-79 34-39 49-13 59 13 59 39 49 79 34 122 8q56-3 116-18zm409-64q0-30-24-49t-60-22v-2q31-5 49-23t18-45q0-30-23-49t-60-20H846v284h274q41 0 68-20t26-54zm72-425v714q0 29-21 50t-51 22H71q-29 0-50-22T0 857V143q0-29 21-50t50-22h1143q29 0 51 22t21 50z"/></svg>