<svg xmlns="http://www.w3.org/2000/svg" viewBox="0 0 1285.7 1000"><path d="M624 190q-71-47-156-47-58 0-111 22t-90 61-61 90-22 110q0 58 22 111t61 90 90 61 111 22q85 0 156-47-73-60-99-148t0-177 99-148zm19 14q-70 55-96 139t0 168 96 139q71-56 96-139t0-168-96-139zm18-14q73 60 99 148t1 177-100 148q72 47 157 47 58 0 111-22t90-61 61-90 22-111q0-57-22-110t-61-90-91-61-110-22q-85 0-157 47zm414 403h4v-2h-10v2h4v10h2v-10zm16 10h2v-12h-3l-3 8-3-8h-3v12h2v-9l3 8h2l3-8v9zm-4 245v1h-3v-1h3zm0 5h1l-2-3h2v-2-2h-6v7h2v-3zm-705-38q0-10 6-17t17-7q10 0 16 7t7 17q0 11-7 18t-16 6q-10 0-17-6t-6-18zm264-24q17 0 20 18h-39q3-18 19-18zm199 24q0-10 6-17t16-7 17 7 6 17q0 11-6 18t-17 6q-10 0-16-6t-6-18zm152 0q0-10 6-17t17-7 16 7 6 17q0 11-6 18t-16 6-17-7-6-17zm88 41q-1 0-2-1-1 0-2-1t-1-2-1-2q0-2 1-2 0-2 1-3h1q1 0 1-1h4l2 1 1 3q1 1 1 2h-1v3l-1 1q-1 1-2 1 0 1-2 1zm-751-3h17v-47q0-14-8-22t-22-8q-18 0-26 13-8-13-25-13-14 0-22 11v-9h-17v75h17v-42q0-20 18-20 17 0 17 20v42h16v-42q0-20 19-20 16 0 16 20v42zm93 0h16v-75h-16v9q-10-11-24-11-16 0-27 11t-10 28 10 29 27 11q16 0 24-11v9zm99-23q0-19-26-22l-8-1q-13-2-13-8 0-8 14-8 13 0 24 6l7-14q-12-7-31-7-14 0-23 6t-8 18q0 19 26 22l8 1q13 2 13 8 0 9-17 9-14 0-25-7l-8 12q14 10 33 10 16 0 25-7t9-18zm73 19l-5-14q-7 4-14 4-11 0-11-12v-34h27v-15h-27v-23h-16v23h-16v15h16v34q0 28 26 28 11 0 20-6zm48-73q-16 0-27 11t-11 28q0 18 11 29t28 11q18 0 31-11l-8-12q-10 8-22 8-19 0-23-18h57v-7q0-18-11-28t-25-11zm89 0q-13 0-20 11v-9h-17v75h17v-42q0-20 16-20 6 0 10 2l5-15q-5-2-11-2zm16 39q0 18 11 29t29 11q17 0 27-9l-8-13q-10 7-19 6-10 0-17-6t-6-18 6-17 17-7q11 0 19 7l8-13q-11-9-27-9-18 0-29 11t-11 28zm137 38h17v-75h-17v9q-8-11-23-11-17 0-28 11t-10 28 10 29 28 11q15 0 23-11v9zm74-77q-13 0-19 11v-9h-16v75h16v-42q0-20 16-20 5 0 10 2l5-15q-5-2-12-2zm78 77h17V747h-17v40q-8-11-24-11t-26 11-11 28 11 28 26 12q17 0 24-11v9zm44-11l-1 1h-2q-1 0-2 1-2 1-2 2v7q0 1 2 2l2 2q1 1 3 0h3q0-1 1-1l1-1 2-2q1-1 1-3t-1-4l-2-2-1-1h-1l-1-1q-1-1-2 0zm201-699v714q0 29-21 50t-51 22H71q-29 0-50-22T0 857V143q0-29 21-50t50-22h1143q29 0 51 22t21 50z"/></svg>