<svg xmlns="http://www.w3.org/2000/svg" viewBox="0 0 1285.7 1000"><path d="M1102 552h-77q8-20 37-99l2-6q2-5 5-14t5-15l7 31zm-806-36l-32-164q-6-31-42-31H73l-2 8q174 44 225 187zm100-195l-90 245-10-50q-14-39-47-72t-73-50l75 285h98l145-358h-98zm78 359h92l58-359h-92zm428-350q-38-15-83-15-68 0-112 33t-44 86q-1 56 81 97 27 12 37 23t11 21q0 17-17 26t-38 9q-48 0-87-19l-13-6-13 81q42 19 104 19 72 0 116-33t45-90q0-59-78-97-27-14-40-23t-12-21q0-13 14-22t39-9q39-1 69 13l9 5zm238-9h-72q-36 0-48 31L882 680h97l20-54h118q3 12 11 54h86zm146-178v714q0 29-21 50t-51 22H71q-29 0-50-22T0 857V143q0-29 21-50t50-22h1143q29 0 51 22t21 50z"/></svg>