<svg xmlns="http://www.w3.org/2000/svg" viewBox="0 0 1142.9 1000"><path d="M438 562h116q-8 89-55 139t-120 51q-90 0-142-65t-52-176q0-109 52-174t130-66q83 0 130 49t54 138H438q-3-36-20-56t-46-19q-32 0-49 34t-18 99q0 26 3 46t10 39 22 29 37 10q53 0 61-78zm397 0h115q-7 89-54 139t-120 51q-90 0-142-65t-51-176q0-109 52-174t130-66q82 0 129 49t54 138H834q-2-36-19-56t-45-19q-32 0-50 34t-17 99q0 26 2 46t10 39 22 29 37 10q27 0 43-21t18-57zm201-66q0-115-9-171t-34-90q-3-5-7-8t-12-8-9-6q-48-36-389-36-349 0-396 36-3 2-10 6t-12 8-8 8q-25 33-33 89t-9 172q0 116 9 172t33 89q4 5 9 9t11 7 10 7q24 18 133 27t263 9q340 0 389-36l9-6 12-8q6-4 7-9 26-33 34-89t9-172zm107-425v858H0V71h1143z"/></svg>