<svg xmlns="http://www.w3.org/2000/svg" viewBox="0 0 857.1 1000"><path d="M768 500l77 75q17 16 11 39-7 23-29 29l-105 27 30 103q6 23-11 39-16 18-39 11l-104-30-27 105q-5 23-28 30-7 1-11 1-17 0-28-13l-75-77-76 77q-15 17-39 12-23-7-28-30l-27-105-104 30q-23 7-39-11-17-16-10-39l29-103-105-27q-22-6-29-29-6-23 11-39l77-75-77-75q-17-16-11-39 7-23 29-29l105-27-29-103q-7-23 10-40 16-17 39-10l104 29 27-104q5-23 28-29 23-7 39 11l76 77 75-77q16-17 39-11t28 29l27 104 104-29q23-7 39 10 17 17 11 40l-30 103 105 27q22 6 29 29 6 23-11 39z"/></svg>