<svg xmlns="http://www.w3.org/2000/svg" viewBox="0 0 1000 1000"><path d="M393 214q-85 0-160 29t-118 79-44 107q0 45 30 88t83 73l54 32-19 46q19-11 34-21l25-18 30 6q43 8 85 8 85 0 160-29t118-79 43-106-43-107-118-79-160-29zm0-71q106 0 197 38t143 104 53 144-53 143-143 104-197 38q-48 0-98-9-70 49-155 72-21 5-48 9h-2q-6 0-12-5t-6-12q-1-1-1-3t1-4 1-3l1-3 2-3 2-3 3-3 2-2q3-3 13-14t15-16 12-17 14-21 11-25q-69-40-108-98T0 429q0-78 53-144t143-104 197-38zm459 652q5 14 11 25t14 21 13 16 14 17 13 14l2 2 3 3q1 1 2 3t2 3l1 3 1 3 1 4-1 3q-2 8-7 13t-12 4q-28-4-48-9-86-23-156-72-50 9-98 9-151 0-263-74 32 3 49 3 90 0 172-25t148-72q69-52 107-119t37-141q0-43-13-85 72 39 114 99t42 128q0 67-40 126t-108 98z"/></svg>