<svg xmlns="http://www.w3.org/2000/svg" viewBox="0 0 988 1000"><path d="M988 344c0-1-1-1-1-2v-4c-1 0-1-1-1-2s-1-2-1-3c0 0-1-1-1-2-1-1-1-2-2-3 0 0 0-1-1-2l-2-2c0-1 0-1-1-2s-1-2-2-2l-2-2-2-2c-1 0-1-1-2-1 0-1-1-1-1-1L518 13c-15-9-33-9-47 0L19 314l-1 1s-1 1-2 1c0 1-1 1-2 2l-2 2-2 2c0 1-1 1-1 2l-2 2c-1 1-1 2-1 2-1 1-1 2-2 3 0 1 0 2-1 2 0 1 0 2-1 3v2c-1 2-1 3-1 4s0 1-1 2v312c1 1 1 1 1 2s0 2 1 3v2c1 1 1 3 1 4 1 0 1 1 1 2 1 1 1 2 2 2 0 1 0 2 1 2 0 1 1 2 2 3 0 1 1 1 1 2 1 1 2 1 2 2l2 2c1 0 2 1 2 2 1 0 2 1 2 1 1 0 1 1 1 1l452 301c7 5 15 7 23 7s16-2 24-7l451-301 1-1c1 0 1-1 2-1 1-1 1-2 2-2l2-2 2-2c1-1 1-1 1-2 1-1 2-2 2-3 1 0 1-1 1-2 1 0 1-1 2-2 0-1 1-2 1-2 0-1 1-3 1-4 0 0 0-1 1-2v-3c0-1 1-1 1-2V349v-5zM537 128l332 221-148 100-184-123V128zm-85 0v198L268 449 119 349l333-221zM85 429l106 71-106 71V429zm367 443L119 650l149-99 184 123v198zm42-272L344 500l150-100 150 100-150 100zm43 272V674l184-123 148 99-332 222zm366-301l-106-71 106-71v142z"/></svg>