<svg xmlns="http://www.w3.org/2000/svg" viewBox="0 0 1000 1000"><path d="M357 500q0 30-21 50t-50 21-51-21-21-50 21-51 51-20 50 20 21 51zm214 0q0 30-20 50t-51 21-50-21-21-50 21-51 50-20 51 20 20 51zm215 0q0 30-21 50t-51 21-50-21-21-50 21-51 50-20 51 20 21 51zM500 214q-114 0-213 39T130 358 71 500q0 62 40 119t113 98l48 28-15 53q-13 51-39 97 85-36 154-96l24-21 32 3q38 5 72 5 114 0 213-39t157-105 59-142-59-142-157-105-213-39zm500 286q0 97-67 179T751 809t-251 48q-39 0-81-4-110 97-257 135-27 8-63 12h-3q-8 0-15-6t-9-15v-1q-2-2 0-6t1-6 2-5l4-5 4-5 4-5q4-5 17-19t20-22 17-22 18-28 15-33 15-42q-88-50-138-123T0 500q0-73 40-139t106-114 160-76 194-28 194 28 160 76 106 114 40 139z"/></svg>