<svg xmlns="http://www.w3.org/2000/svg" viewBox="0 0 1000 1000"><path d="M338 688q85 0 143-58 8-10 2-20l-25-46q-4-7-14-9-9-1-15 6l-2 1q-2 3-6 6t-10 8-13 8-16 7-19 5-21 2q-42 0-70-28t-27-71q0-42 27-70t68-27q21 0 40 8t28 15l9 8q6 6 14 6 9-2 14-8l29-44q8-11-1-22-1-2-6-6t-17-13-27-16-37-13-48-5q-83 0-138 54t-54 134q0 81 54 135t138 53zm351 0q86 0 144-58 7-10 2-20l-25-46q-5-8-14-9t-15 6l-2 1q-3 3-7 6t-10 8-13 8-16 7-18 5-21 2q-43 0-70-28t-27-71q0-42 26-70t68-27q21 0 40 8t29 15l8 8q7 6 15 6 9-2 13-8l30-44q7-11-1-22l-6-6q-4-4-17-13t-27-16-38-13-48-5q-82 0-137 54t-55 134q0 81 54 135t138 53zM500 89q-84 0-160 33t-130 87-88 131-33 160 33 160 88 130 130 88 160 33 160-33 131-88 87-130 33-160-33-160-87-131-131-87-160-33zm0-89q102 0 194 40t160 106 106 160 40 194-40 194-106 160-160 106-194 40-194-40-160-106T40 694 0 500t40-194 106-160T306 40 500 0z"/></svg>