<svg xmlns="http://www.w3.org/2000/svg" viewBox="0 0 1285.7 1000"><path d="M357 911l214-107V628l-214 92v191zm-36-254l226-96-226-97-225 97zm608 254l214-107V628l-214 92v191zm-36-254l225-96-225-97-226 97zM643 494l214-92V253l-214 92v149zm-36-212l246-105L607 71 361 177zm607 289v233q0 20-10 37t-29 26L925 992q-14 8-32 8t-32-8L611 867l-4-2q-1 1-4 2L353 992q-14 8-32 8t-31-8L40 867q-19-9-29-26T0 804V571q0-21 12-39t32-26l242-104V179q0-22 12-40t31-26L579 6q13-6 28-6t28 6l250 107q20 9 32 26t12 40v223l242 104q20 8 32 26t11 39z"/></svg>