<svg xmlns="http://www.w3.org/2000/svg" viewBox="0 0 1000 1000"><path d="M46 186c-26 0-47 21-47 46v535c0 26 21 47 47 47h907c26 0 46-21 46-47V232c0-25-20-46-46-46H46zm480 177h2c44 0 79 35 79 79 0 43-35 79-79 79s-79-36-79-79 34-78 77-79zm-250 3c16 0 30 6 42 16l-14 19c-7-8-14-11-23-11-12 0-20 6-20 15 0 8 4 12 21 18 32 12 41 22 41 45 0 28-20 47-49 47-21 0-37-8-50-27l18-18c7 13 18 20 31 20 12 0 22-9 22-21 0-6-3-11-9-14-3-2-8-5-19-9-26-9-35-19-35-39 0-23 19-41 44-41zm132 0c12 0 22 3 34 9v33c-12-12-22-16-35-16-26 0-47 21-47 49s20 49 48 49c13 0 23-5 34-16v33c-13 6-23 8-35 8-43 0-76-32-76-74s34-75 77-75zm-353 3h41c46 0 77 29 77 71 0 20-9 41-26 54-14 11-29 16-51 16H55V369zm131 0h27v141h-27V369zm409 0h31l38 96 38-96h31l-62 146h-15l-61-146zm149 0h79v24h-51v31h49v24h-49v38h51v24h-79V369zm99 0h42c32 0 50 15 50 41 0 22-11 36-32 41l45 59h-35l-38-57h-4v57h-28V369zm28 22v43h8c18 0 27-8 27-22s-9-21-26-21h-9zm-788 1v95h7c19 0 30-4 39-12 10-8 15-22 15-36 0-13-5-27-15-35-9-8-20-12-39-12h-7zm904 135s1 152 0 232c0 7-3 18-11 27-8 10-20 14-27 14H224c492-85 763-273 763-273z"/></svg>