<svg xmlns="http://www.w3.org/2000/svg" viewBox="0 0 857.1 1000"><path d="M786 536q0-47-18-102t-36-109-18-93v-18H357v18q0 20-7 38t-20 35-26 28-30 27q-5 4-8 7-45 40-81 62-12 8-38 21-1 1-12 6t-20 10-20 12-17 12-7 10q0 40 17 64t55 25q24 0 47-8t38-19 31-18 27-8v321q0 28 21 50t50 22q29 0 50-22t22-50V672q25 20 57 20 39 0 67-30 17 10 38 10t41-9 29-27q14 2 32 2 47 0 70-27t23-75zm-72-429q0-14-10-25t-25-11-25 11-11 25 11 25 25 11 25-11 10-25zm143 426q0 80-43 129t-121 48h-3q-43 34-100 34-12 0-24-2-30 17-66 21v94q0 59-42 101t-101 42q-58 0-100-42t-43-101V648q-30 13-71 13-68 0-105-46T0 500q0-21 10-39t27-31 36-22 40-21 34-18q31-20 72-56 2-1 10-8t12-10 12-12 12-13 10-13 8-13 3-12V71q0-29 21-50t50-21h357q30 0 51 21t21 50v161q0 33 33 125 38 106 38 176z"/></svg>