<svg xmlns="http://www.w3.org/2000/svg" viewBox="0 0 857.1 1000"><path d="M571 837q-23-134-78-278h-1l-1 1q-9 3-24 9t-56 27-77 46-73 64-57 82l-9-6q103 84 234 84 73 0 142-29zM468 498q-11-27-29-62-174 52-376 52v12q0 69 24 132t69 112q28-49 69-93t80-69 73-45 55-27l21-7q2-1 7-2t7-3zm-59-118q-67-119-137-211-77 36-130 104T70 425q169 0 339-45zm381 178q-117-33-228-16 49 133 71 262 62-42 104-106t53-140zM341 144q-1 0-1 1 0-1 1-1zm329 81q-103-91-241-91-43 0-87 10 73 95 137 214 39-15 73-34t54-34 36-32 21-23zm125 271q-2-129-83-229l-1 1q-5 7-11 13t-24 25-40 34-55 36-74 36q14 30 25 53 1 3 3 10t5 9q20-2 41-4t41-1 39 1 35 2 32 3 27 4 20 3 14 3zm62 4q0 117-57 215T644 871t-215 58-216-58T58 715 0 500t58-215 155-156 216-58 215 58 156 156 57 215z"/></svg>