<svg xmlns="http://www.w3.org/2000/svg" viewBox="0 0 857.1 1000"><path d="M651 885q-3-11-13-3-17 13-49 22t-73 10q-72 0-107-28-3-2-8-2-6 0-14 7-4 3-4 9t4 11q19 18 49 25t57 7 55-2q23-2 47-12t36-16 16-12q7-6 4-16zm-21-64q-11-26-22-34-13-9-43-9-26 0-39 6-16 7-44 31-14 14-7 25 6 4 10 2t18-13q2-1 6-5t6-4 5-4 7-4 7-3 8-2 9-2 12 0q15 0 24 4t13 8 8 12q5 10 7 11t7 0q13-7 8-19zm198-157q0-12-3-25t-9-25-19-20-30-8q-18 0-54 23t-72 47-56 23q-15 1-36-11t-42-27-47-32-55-28-62-10q-64 0-110 44t-47 99q-1 63 41 92 16 11 35 16t58 4q32 0 73-18t75-39 67-40 52-17q15 1 36 18t40 37 38 38 31 17q20 2 33-7t31-35q15-23 24-57t8-59zm29-89q0 91-34 170t-93 131-135 84-162 30-164-32-138-88-95-135T0 567q0-50 11-96t27-82 40-66 43-52 44-39 36-26 24-14l28-14q20-10 31-16t27-17 33-25q20-15 33-40t16-70q72 86 104 108 25 16 73 38t72 36q12 8 22 14t33 26 43 40 42 53 38 68 26 83 11 99z"/></svg>