<svg xmlns="http://www.w3.org/2000/svg" viewBox="0 0 1000 1000"><path d="M748 437q17-24-3-72t-68-79q-32-22-70-30t-66-3-38 21q-7 13-3 16t24 5q13 2 22 3t24 5 32 10q20 7 37 18t30 20 22 22 17 21 12 19 10 16 6 10 6 4 6-6zm203 321q-29 71-83 123t-120 79-141 33-148-7-140-51-117-90-79-132-26-169q0-23 4-47t7-36 14-45 13-40q-29 116 0 221t97 178 162 115 193 46 195-42 161-136q11-15 10-8 0 2-2 8zM818 507q0 58-23 111t-61 92-90 61-110 22-111-22-90-61-61-92-23-111 23-111 61-91 90-61 111-23 110 23 90 61 61 91 23 111zm160-161q-37-82-101-140t-141-85-163-30-168 20-154 72-123 118-73 166-5 208q-28-90-29-174t20-152 61-126 92-101 115-70 130-40 135-5 132 30 121 70 99 109q18 28 34 68t18 62zm-35 191q7-136-76-232T646 171q-5 0-6-3t14-4q69 2 128 28t96 67 65 94 33 111-1 116-34 110-68 93-104 66-138 26q60-17 112-45t97-68 72-99 31-126z"/></svg>