<svg xmlns="http://www.w3.org/2000/svg" viewBox="0 0 1000 1000"><path d="M488 914v37q-116-3-215-61T115 736l32-19q17 27 41 55l36-32q83 94 206 119l-10 48q37 7 68 7zM154 618l-46 16q12 33 27 62l-32 19Q49 614 49 500t54-215l32 19q-17 31-27 62l46 16q-20 55-20 118 0 61 20 118zm699 99l32 19q-59 96-158 154t-215 61v-37q32 0 68-7l-10-48q123-25 206-119l36 32q25-28 41-55zm-85-309l-130 45q8 23 8 47t-8 47l130 45q-17 51-55 94l-103-90q-32 37-82 47l27 135q-29 5-55 5t-55-5l27-135q-50-10-82-47l-103 90q-38-43-55-94l130-45q-8-23-8-47t8-47l-130-45q18-52 55-94l103 90q33-38 82-48l-27-134q25-6 55-6t55 6l-27 134q49 10 82 48l103-90q37 42 55 94zM488 49v37q-36 1-68 7l10 48q-123 24-206 118l-36-31q-21 23-41 54l-31-18q59-96 157-154t215-61zm464 451q0 114-55 215l-32-19q15-29 27-62l-46-16q20-57 20-118 0-63-19-118l45-16q-10-31-27-62l32-19q55 101 55 215zm-67-236l-32 18q-20-31-41-54l-36 31q-83-94-206-118l10-48q-31-6-68-7V49q117 3 215 61t158 154zm90 236q0-97-37-185T837 163 685 62 500 25 315 62 164 163 62 315 25 500t37 185 102 151 151 102 185 37 185-37 152-102 101-151 37-185zm25 0q0 102-40 194T854 854 694 960t-194 40-194-40-160-106T40 694 0 500t40-194 106-160T306 40 500 0t194 40 160 106 106 160 40 194z"/></svg>