<svg xmlns="http://www.w3.org/2000/svg" viewBox="0 0 1000 1000"><path d="M823 509l21 29q5 6 4 13t-6 11q-24 19-71 55t-82 63-37 29q-22 18-34 27t-33 23-43 20-41 7h-2q-20 0-41-7t-42-20-34-23-34-27q-3-2-36-28t-80-62-68-53q-7-4-7-11t3-13l21-29q4-6 12-7t14 3q52 41 170 132 3 2 25 20t33 26 32 18 32 9h2q13 0 32-9t32-18 34-26 24-20q144-110 174-135 7-4 14-4t12 7zm106 402V393q-51-47-89-78-51-41-217-169-2-2-24-20t-34-27-31-18-33-10h-2q-13 0-32 10t-32 18-34 27-24 20q-120 92-176 137t-72 58-46 41q-8 7-12 11v518q0 7 6 12t12 6h822q7 0 12-6t6-12zm71-518v518q0 37-26 63t-63 26H89q-36 0-63-26T0 911V393q0-31 23-53 69-63 195-162T348 77q20-17 33-27t35-23 42-20 41-7h2q20 0 41 7t43 20 34 23 33 27q24 20 87 68t126 99 112 96q23 22 23 53z"/></svg>