<svg xmlns="http://www.w3.org/2000/svg" viewBox="0 0 1000 1000"><path d="M1000 365v546q0 37-26 63t-63 26H89q-36 0-63-26T0 911V365q0-8 6-13 5-4 22-20t23-20 26-21 39-31 53-40 80-60 108-79q2-2 29-22t40-29 36-20 38-10 39 10 36 20 39 29 29 22q62 45 108 79t80 60 54 40 39 31 25 21 23 20 22 20q6 5 6 13zM685 691q147-106 193-140 6-5 7-12t-4-13l-21-29q-4-6-12-7t-13 4q-129 94-192 139-2 2-29 22t-39 29-36 20-39 10-38-10-36-20-40-29-29-22q-104-74-192-139-6-5-13-4t-12 7l-21 29q-5 6-4 13t7 12q46 34 193 140 5 5 28 22t36 26 36 22 43 19 42 6 42-6 44-20 36-22 37-26 26-21z"/></svg>