<svg xmlns="http://www.w3.org/2000/svg" viewBox="0 0 1000 1000"><path d="M500 36q-94 0-180 36T172 172 73 320 36 500t37 180 99 148 148 100 180 36 180-36 148-100 100-148 36-180-36-180-100-148T680 72 500 36zm0-36q102 0 194 40t160 106 106 160 40 194-40 194-106 160-160 106-194 40-194-40-160-106T40 694 0 500t40-194 106-160T306 40 500 0zM277 464q9 0 9 9v268q0 9-9 9h-18q-9 0-9-9V473q0-9 9-9h18zm223 36q30 0 51 21t20 50q0 20-9 36t-26 26v63q0 8-5 13t-13 5h-36q-8 0-13-5t-5-13v-63q-16-10-26-26t-9-36q0-29 21-50t50-21zm0-429q117 0 215 58t156 156 58 215-58 215-156 156-215 58-215-58-156-156-58-215 58-215 156-156 215-58zM304 339v54q0 8 5 13t12 5h36q8 0 13-5t5-13v-54q0-52 37-88t88-37 88 37 37 88v54q0 8 5 13t13 5h36q7 0 12-5t5-13v-54q0-81-57-139t-139-57-139 57-57 139zm482 411V464q0-14-11-25t-25-10H250q-14 0-25 10t-11 25v286q0 14 11 25t25 11h500q15 0 25-11t11-25z"/></svg>