<svg xmlns="http://www.w3.org/2000/svg" viewBox="0 0 785.7 1000"><path d="M286 107q0-14-11-25t-25-11-25 11-11 25 11 25 25 11 25-11 11-25zm500-18v179q0 9-7 14-4 4-11 4-2 0-4-1l-250-53q-6-2-10-7t-4-11H357v57q62 13 103 62t40 113v447q0 14-11 25t-25 11H179q-15 0-25-11t-11-25V446q0-59 35-106t90-64v-62h-18q-33 0-64 13t-51 30-37 37-23 30-7 14q-10 19-32 19-9 0-16-4-13-7-18-20t2-28q3-5 8-14t21-30 34-39 47-38 61-29q-14-23-14-48 0-37 26-63t63-26 63 26 26 63q0 19-7 36h168q0-6 4-11t10-6l250-54q2-1 4-1 7 0 11 4 7 5 7 14z"/></svg>