<svg xmlns="http://www.w3.org/2000/svg" viewBox="0 0 1000 1000"><path d="M161 214q37 0 63 26t26 64v607q0 37-26 63t-63 26H89q-36 0-63-26T0 911V304q0-37 26-64t63-26h72zm768 91q32 19 52 52t19 72v428q0 59-42 101t-101 42H375q-37 0-63-26t-26-63V54q0-23 15-38t38-16h375q23 0 49 11t43 27l85 85q15 15 26 42t12 49v91zM518 857v-71q0-8-5-13t-13-5h-71q-8 0-13 5t-5 13v71q0 8 5 13t13 5h71q8 0 13-5t5-13zm0-143v-71q0-8-5-13t-13-5h-71q-8 0-13 5t-5 13v71q0 8 5 13t13 5h71q8 0 13-5t5-13zm0-143v-71q0-8-5-13t-13-5h-71q-8 0-13 5t-5 13v71q0 8 5 13t13 5h71q8 0 13-5t5-13zm143 286v-71q0-8-5-13t-13-5h-72q-7 0-12 5t-5 13v71q0 8 5 13t12 5h72q8 0 13-5t5-13zm0-143v-71q0-8-5-13t-13-5h-72q-7 0-12 5t-5 13v71q0 8 5 13t12 5h72q8 0 13-5t5-13zm0-143v-71q0-8-5-13t-13-5h-72q-7 0-12 5t-5 13v71q0 8 5 13t12 5h72q8 0 13-5t5-13zm143 286v-71q0-8-5-13t-13-5h-72q-7 0-12 5t-6 13v71q0 8 6 13t12 5h72q8 0 13-5t5-13zm0-143v-71q0-8-5-13t-13-5h-72q-7 0-12 5t-6 13v71q0 8 6 13t12 5h72q8 0 13-5t5-13zm0-143v-71q0-8-5-13t-13-5h-72q-7 0-12 5t-6 13v71q0 8 6 13t12 5h72q8 0 13-5t5-13zm53-214V214h-89q-22 0-38-15t-16-38V71H357v286h500z"/></svg>