<svg xmlns="http://www.w3.org/2000/svg" viewBox="0 0 857.1 1000"><path d="M819 212q16 16 27 42t11 50v642q0 23-15 38t-38 16H54q-23 0-38-16T0 946V54q0-23 16-38T54 0h500q22 0 49 11t42 27zM571 76v210h210q-5-17-12-23L594 88q-6-7-23-12zm215 853V357H554q-23 0-38-16t-16-37V71H71v858h715zM130 429v59h39l92 369h88l72-271q4-11 5-25 2-9 2-14h2l1 14q1 1 2 11t3 14l72 271h89l91-369h39v-59H560v59h50l-55 245q-3 11-4 25l-1 12h-3v-4q0-2-1-4t0-4q-1-2-2-11t-3-14l-81-304h-63l-81 304q-1 5-2 13t-2 12l-2 12h-2l-2-12q-1-14-3-25l-56-245h50v-59H130z"/></svg>