<svg xmlns="http://www.w3.org/2000/svg" viewBox="0 0 857.1 1000"><path d="M357 214v-71h-71v71h71zm72 72v-72h-72v72h72zm-72 71v-71h-71v71h71zm72 72v-72h-72v72h72zm390-217q16 16 27 42t11 50v642q0 23-15 38t-38 16H54q-23 0-38-16T0 946V54q0-23 16-38T54 0h500q22 0 49 11t42 27zM571 76v210h210q-5-17-12-23L594 88q-6-7-23-12zm215 853V357H554q-23 0-38-16t-16-37V71h-71v72h-72V71H71v858h715zM436 526l60 195q4 15 4 29 0 46-40 77t-103 30-102-30-41-77q0-14 5-29 12-35 67-221v-71h71v71h44q13 0 22 7t13 19zm-79 260q30 0 51-11t21-25-21-25-51-11-50 11-21 25 21 25 50 11z"/></svg>