<svg xmlns="http://www.w3.org/2000/svg" viewBox="0 0 857.1 1000"><path d="M819 212q16 16 27 42t11 50v642q0 23-15 38t-38 16H54q-23 0-38-16T0 946V54q0-23 16-38T54 0h500q22 0 49 11t42 27zM571 76v210h210q-5-17-12-23L594 88q-6-7-23-12zm215 853V357H554q-23 0-38-16t-16-37V71H71v858h715zM346 474q11 5 11 17v304q0 12-11 16-4 1-7 1-6 0-12-5l-93-93h-73q-8 0-13-5t-5-13V589q0-8 5-13t13-5h73l93-93q8-8 19-4zm233 385q17 0 28-14 72-88 72-202t-72-203q-9-11-24-13t-27 8q-11 9-13 24t8 26q56 69 56 158t-56 157q-9 12-8 27t13 23q10 9 23 9zm-118-83q15 0 26-11 49-52 49-122t-49-122q-10-11-25-12t-26 10-11 25 10 26q29 32 29 73t-29 73q-10 11-10 26t11 25q12 9 25 9z"/></svg>