<svg xmlns="http://www.w3.org/2000/svg" viewBox="0 0 1000 1000"><path d="M504 1000q-158 0-282-84T39 694Q6 620 1 526t15-186 62-174T178 31l-7 156q7-7 38-8t39 8q24-45 90-77t131-32q-30 25-67 82t-33 92q14 4 35 7t36 4 37 3 29 1q8 3 5 26t-17 42q-3 4-9 10t-32 20-56 19l8 105-77-37q-10 24-5 45t21 38 36 23 45 3q29-5 55-19t47-25 41-10q34 2 50 19t10 36q0 1-1 3t-5 7-10 9-17 5-26 1q-34 53-81 76t-117 16q41 34 91 46t94 3 86-29 71-48 45-58q24-51 22-108t-21-105-44-70q49 21 77 45t43 62q8-95-32-191T686 67q148 43 230 156t84 289q1 71-23 143t-68 132-106 110-138 75-161 28z"/></svg>