<svg xmlns="http://www.w3.org/2000/svg" viewBox="0 0 857.1 1000"><path d="M738 500q0 25-3 42l-132-7 125 43q-10 41-32 79l-119-58 98 88q-24 34-59 61l-88-100 57 120q-34 21-78 33l-44-127 8 134q-21 3-42 3t-43-3l8-133-44 126q-41-10-78-33l58-120-88 100q-33-24-60-61l99-88-119 58q-22-38-32-78l125-44-133 7q-3-23-3-42 0-20 3-43l133 8-125-44q10-41 32-78l119 58-98-89q25-34 59-60l88 99-57-120q37-22 78-32l43 125-7-132q20-3 42-3 21 0 42 3l-8 132 44-125q41 10 78 33l-58 119 89-99q34 26 59 60l-98 89 118-58q21 34 33 78l-125 44 132-8q3 17 3 43zm17 0q0-89-44-165T592 216t-163-44q-67 0-127 26t-104 70-70 104-25 128q0 66 25 127t70 105 104 70 127 26q88 0 163-44t119-120 44-164zm40-214v428L429 928 62 714V286L429 72zM429 959l395-230V270L429 41 34 270v459zm428-709v500l-428 250L0 750V250L429 0z"/></svg>