<svg xmlns="http://www.w3.org/2000/svg" viewBox="0 0 1000 1000"><path d="M464 558V451q-101 9-214 65v103q114-53 214-61zm0-233V215q-96 4-214 70v106q120-62 214-66zm465 258V480q-132 65-215 40V395q-11-3-21-8-3-2-19-10t-19-9-18-9-19-8-18-8-20-7-20-4-22-4-22-3-24-1q-13 0-28 2v124h11q57 0 107 16t111 46q10 5 21 8v105q24 9 51 9 67 0 164-51zm0-238V239q-95 51-171 51-25 0-44-4v109q83 23 215-50zM179 143q0 19-10 36t-26 25v707q0 8-5 13t-13 5H89q-7 0-12-5t-6-13V204q-16-9-25-25t-10-36q0-30 21-51t50-21 51 21 21 51zm821 36v425q0 22-19 32l-10 5q-122 65-206 65-49 0-88-20l-16-7q-35-19-55-27t-51-16-63-8q-57 0-132 24t-127 57q-9 5-19 5-9 0-18-4-17-11-17-31V264q0-19 17-30 19-12 44-24t63-29 85-28 87-10q62 0 117 17t116 48q21 11 50 11 68 0 173-63 12-6 17-9 17-9 35 1 17 11 17 31z"/></svg>