<svg xmlns="http://www.w3.org/2000/svg" viewBox="0 0 1071.4 1000"><path d="M994 519q0-19-30-19H357q-22 0-48 12t-39 29L106 744q-11 13-11 22 0 20 30 20h607q23 0 48-13t40-29l164-203q10-12 10-22zm-637-90h429v-90q0-22-16-38t-38-15H411q-23 0-38-16t-16-38v-36q0-22-15-38t-38-15H125q-22 0-38 15t-16 38v476l143-175q25-30 65-49t78-19zm708 90q0 35-25 67L875 789q-24 30-65 49t-78 19H125q-51 0-88-37T0 732V196q0-51 37-88t88-37h179q51 0 88 37t37 88v18h303q52 0 88 37t37 88v90h107q30 0 56 13t37 40q8 17 8 37z"/></svg>