<svg xmlns="http://www.w3.org/2000/svg" viewBox="0 0 928.6 1000"><path d="M405 312l-95 251q18 0 76 1t89 1q11 0 32-1-48-141-102-252zM0 929l1-44q13-4 31-7t32-6 28-8 25-17 17-28l132-344L422 71h72l6 12 114 268q19 43 60 144t63 153q9 19 33 80t40 94q11 26 19 32 11 9 49 17t47 11q4 22 4 32 0 3-1 8t0 7q-35 0-106-5t-107-4q-42 0-120 4t-99 4q0-24 2-43l73-16q1 0 7-1t9-2 8-3 9-4 6-4 5-6 1-8q0-9-17-54t-40-99-24-56l-251-1q-14 32-43 109t-28 91q0 12 8 21t24 14 27 7 32 5 23 2q1 11 1 32 0 5-1 16-33 0-98-6t-97-6q-5 0-15 3t-12 2q-45 8-105 8z"/></svg>