<svg xmlns="http://www.w3.org/2000/svg" viewBox="0 0 857.1 1000"><path d="M0 71h857v858H0V71zm507 179l-7 18 42 47-17 63 14 14 59-32 60 32 14-14-17-63 41-47-6-18h-53l-30-54h-18l-29 54h-53zm-149 91q18 0 25 9t6 35l97-12q0-30-10-51t-28-32-38-14-48-4q-74 0-111 32t-37 102v40h-53v72h42q11 0 11 4v213q0 8-2 12t-10 4l-41 3v50h250v-48l-83-8q-4-1-5-1t-2-2 0-2 0-4 0-5V518h107l21-72H320q-3 0-1-3t2-5v-45q0-15 1-22t5-16 10-11 21-3zm338 463v-48l-30-5q-4-1-5-2t-1-2 0-4 1-6V446H507l-13 57 47 12q13 4 13 15v207q0 7-4 10t-11 4l-39 5v48h196z"/></svg>