<svg xmlns="http://www.w3.org/2000/svg" viewBox="0 0 571.4 1000"><path d="M161 821q0-22-16-38t-38-15-38 15-15 38 15 38 38 16 38-16 16-38zm0-642q0-23-16-38t-38-16-38 16-15 38 15 37 38 16 38-16 16-37zm357 71q0-22-16-38t-38-16-38 16-15 38 15 38 38 16 38-16 16-38zm53 0q0 29-14 54t-39 39q-1 160-126 231-38 21-113 45-72 22-95 39t-23 56v15q24 14 39 39t14 53q0 45-31 76t-76 32-76-32-31-76q0-29 15-53t39-39V271q-25-14-39-39T0 179q0-45 31-76t76-32 76 32 31 76q0 29-14 53t-39 39v277q30-14 86-31 30-10 49-17t39-17 33-22 22-29 16-38 5-51q-25-14-39-39t-15-54q0-45 31-76t76-31 76 31 31 76z"/></svg>