<svg xmlns="http://www.w3.org/2000/svg" viewBox="0 0 1000 1000"><path d="M357 562V437q0-8-9-8h-53q-9 0-9 8v125q0 9 9 9h53q9 0 9-9zm286 0V437q0-8-9-8h-54q-9 0-9 8v125q0 9 9 9h54q9 0 9-9zm286 18v420H571V821q0-44-31-76t-76-31-76 31-31 76v179H0V580q0-9 9-9h54q8 0 8 9v63h72V295q0-9 9-9h53q9 0 9 9v62h72v-62q0-9 9-9h53q9 0 9 9v62h72v-62q0-4 1-6t5-2 5-2 6 0 6 1V67q-18-8-18-27 0-13 9-22t21-9 22 9 9 22q0 19-18 27v10q25-6 46-6 12 0 34 5t30 4q10 0 26-4t21-5q9 0 9 9v117q0 9-20 12t-34 4q-10 0-31-4t-31-4q-22 0-50 6v75q1 0 5-1t7 0 5 2 5 2 1 6v62h71v-62q0-9 9-9h54q9 0 9 9v62h71v-62q0-9 9-9h54q9 0 9 9v348h71v-63q0-9 9-9h54q9 0 9 9z"/></svg>