<svg xmlns="http://www.w3.org/2000/svg" viewBox="0 0 999 1000"><path d="M196 0C88 0 0 88 0 196v608c0 108 88 196 196 196h608c107 0 195-88 195-196V196C999 88 911 0 804 0H196zm478 138c35 0 66 6 93 10 58 15 82 39 81 81l2 67c-9 60-35 63-60 68 9 7 18 3 23 37v81c-18 44-44 48-70 52l-33-2-2 273c-4 50-34 53-62 60H523c-37-1-57-26-62-71-14 56-41 80-79 75l-106-2c-70-7-64-42-68-73l-3-262c-29-10-57-25-55-114 2-79 30-87 60-90 8-102 62-174 204-187 62-5 108 8 150 23 38-20 76-26 110-26zm-244 64c-13 0-22 2-37 1-116 15-112 109-114 163l1 23-59-3 2 83h54l-3 332h113V469l146-3v335l112 3-2-338h102v-74H643c4-50-13-119 63-108 27 3 53 9 73 24l1-83c-37-16-87-23-141-16-123 16-103 111-106 186l-142-2v-56c4-29 9-57 64-55 18-2 40 8 65 17l-1-79c-49-15-72-18-89-18z"/></svg>