<svg xmlns="http://www.w3.org/2000/svg" viewBox="0 0 957 1000"><path d="M717 0c-47 0-98 8-150 36C509 15 447-3 361 4 168 22 94 120 82 259c-40 5-79 16-82 123-3 123 36 143 77 156l2 358c6 43-2 90 94 100l144 3c53 7 90-26 109-103 7 62 34 96 85 97h167c38-10 80-13 86-82l3-373 44 3c36-5 71-11 96-70V359c-7-46-19-40-32-50 34-8 70-11 82-94l-3-91c2-57-30-89-110-111-36-5-80-13-127-13zM384 87c23 0 54 4 121 25l2 108c-35-12-65-26-89-23-76-3-83 35-87 75v77l193 2c4-102-23-232 146-254 73-10 141-1 192 21l-2 115c-27-22-62-29-100-34-104-14-80 79-85 148h139v102H675l2 461-153-5V449l-200 4v452H171l4-452h-75l-2-115 81 5-2-32c3-74-3-202 156-222 20 1 33-1 51-2z"/></svg>