<svg xmlns="http://www.w3.org/2000/svg" viewBox="0 0 857.1 1000"><path d="M633 686q4 14-2 27t-21 17-27-2-18-21q-14-45-52-72t-84-28-85 28-52 72q-4 14-17 21t-27 2q-15-4-21-17t-3-27q21-68 77-109t128-41 127 41 77 109zM357 357q0 30-21 51t-50 21-51-21-21-51 21-50 51-21 50 21 21 50zm286 0q0 30-21 51t-51 21-50-21-21-51 21-50 50-21 51 21 21 50zm143 143q0-73-29-139t-76-114-114-76-138-28-139 28-114 76-76 114-29 139 29 139 76 113 114 77 139 28 138-28 114-77 76-113 29-139zm71 0q0 117-57 215T644 871t-215 58-216-58T58 715 0 500t58-215 155-156 216-58 215 58 156 156 57 215z"/></svg>