<svg xmlns="http://www.w3.org/2000/svg" viewBox="0 0 1071.4 1000"><path d="M464 607v-71q0-8-5-13t-13-5H339V411q0-8-5-13t-13-5h-71q-8 0-13 5t-5 13v107H125q-8 0-13 5t-5 13v71q0 8 5 13t13 5h107v107q0 8 5 13t13 5h71q8 0 13-5t5-13V625h107q8 0 13-5t5-13zm322 36q0-30-21-51t-51-21-50 21-21 51 21 50 50 21 51-21 21-50zm143-143q0-30-21-51t-51-20-50 20-21 51 21 50 50 21 51-21 21-50zm142 71q0 119-83 202t-202 84q-107 0-189-71H474q-81 71-188 71-119 0-202-84T0 571t84-202 202-83h500q118 0 202 83t83 202z"/></svg>