<svg xmlns="http://www.w3.org/2000/svg" viewBox="0 0 857.1 1000"><path d="M518 757V357H339v400q0 14 10 21t26 8h107q16 0 26-8t10-21zM263 286h109l-70-90q-15-17-39-17-22 0-38 15t-15 38 15 38 38 16zm384-54q0-22-15-38t-38-15q-24 0-39 17l-69 90h108q22 0 38-16t15-38zm210 143v179q0 7-5 12t-13 5h-53v233q0 22-16 37t-38 16H125q-22 0-38-16t-16-37V571H18q-8 0-13-5t-5-12V375q0-8 5-13t13-5h245q-51 0-88-36t-37-89 37-88 88-37q60 0 94 43l72 92 71-92q34-43 94-43 52 0 88 37t37 88-37 89-88 36h245q8 0 13 5t5 13z"/></svg>