<svg xmlns="http://www.w3.org/2000/svg" viewBox="0 0 857.1 1000"><path d="M325 730q0 37-52 37-60 0-60-35 0-36 55-36 57 0 57 34zm-20-260q0 47-42 47-43 0-43-47 0-50 43-50 21 0 31 14t11 36zm92-42v-70q-43 16-75 16-28-16-61-16-48 0-81 32t-33 80q0 28 16 57t41 37v2q-21 9-21 47 0 30 23 43v2q-63 21-63 77 0 26 11 44t30 29 40 14 46 4q125 0 125-105 0-37-27-55t-71-25q-15-3-28-12t-14-22q0-24 27-29 43-8 68-39t26-75q0-13-6-29 21-5 27-7zm33 234h77q-1-15-1-46V400q0-26 1-38h-77q2 12 2 39v219q0 28-2 42zm284-9v-68q-16 12-38 12-29 0-29-46V426h44q10 0 14 1v-65h-58q0-46 1-57h-78q3 13 3 30v27h-34v65q20-2 21-2h6q5 0 7 1v1h-2v121q0 21 2 36t6 31 14 27 24 18 37 6q36 0 60-13zM516 259q0-20-14-36t-33-15-34 15-14 36q0 20 14 35t34 15 33-16 14-34zm341-27v536q0 66-47 113t-114 48H161q-67 0-114-48T0 768V232q0-66 47-113t114-48h535q67 0 114 48t47 113z"/></svg>