<svg xmlns="http://www.w3.org/2000/svg" viewBox="0 0 1000 1000"><path d="M332 845q0-56-92-56-88 0-88 58 0 57 96 57 84 0 84-59zm-33-422q0-34-17-56t-49-23q-69 0-69 81 0 75 69 75 66 0 66-77zm150-180v112q-20 7-44 13 9 24 9 47 0 70-41 120t-110 63q-22 5-33 15t-11 33q0 17 13 28t32 18 44 12 48 15 44 21 32 35 13 55q0 170-203 170-38 0-72-7t-65-23-49-46-18-71q0-92 102-125v-3q-38-22-38-70 0-61 35-76v-3q-40-13-66-60t-27-93q0-77 53-129t131-51q54 0 100 26 54 0 121-26zm178 491H503q2-25 2-74V320q0-53-2-72h124q-3 19-3 69v343q0 49 3 74zm335-124v110q-40 22-97 22-35 0-60-12t-39-27-22-44-10-51-2-58V354h1v-2h-11q-7 0-10-1-12 0-33 3V248h54v-42q0-30-4-50h127q-3 23-3 92h95v106q-8 0-24-1t-24-1h-47v204q0 73 48 73 34 0 61-19zM641 82q0 32-22 57t-54 24q-32 0-54-24t-23-57q0-33 22-57t55-25q33 0 54 25t22 57z"/></svg>