<svg xmlns="http://www.w3.org/2000/svg" viewBox="0 0 857.1 1000"><path d="M290 670q2-4-2-8-5-4-8-1-2 4 2 7 5 4 8 2zm-16-23q-3-4-7-3-3 3 0 7 4 5 7 3t0-7zm-23-23q1-2-3-4-4-1-4 1-2 3 2 5 5 1 5-2zm12 13q1 0 1-2t-2-3q-4-4-6-2t1 6q3 3 6 1zm48 42q1-4-5-6-5-2-7 2t5 6q5 2 7-2zm23 2q0-5-6-5t-6 5 6 4 6-4zm22-4q-1-4-7-3t-5 5q1 5 6 3t6-5zm358-177q0-118-83-202t-202-84-202 84-84 202q0 93 55 168t140 103q10 2 15-3t5-11q0-29-1-53-3 1-8 2t-20 1-27-3-24-11-17-23q-13-33-32-41l-2-2-5-5-3-5 2-4 11-2q3 0 8 1t17 9 18 20q9 15 21 23t24 8 22-2 16-5q4-27 19-39-28-3-48-10t-41-22-31-42-11-67q0-44 30-77-14-34 3-75 10-4 30 4t34 16l14 9q33-9 72-9t71 9q6-4 16-10t31-14 32-5q16 41 3 75 29 33 29 77 0 32-8 56t-20 39-29 25-35 14-38 7q19 17 19 53v50q0 28-1 28 0 7 5 11t15 3q86-29 141-103t54-168zm143-268v536q0 66-47 113t-114 48H161q-67 0-114-48T0 768V232q0-66 47-113t114-48h535q67 0 114 48t47 113z"/></svg>