<svg xmlns="http://www.w3.org/2000/svg" viewBox="0 0 924 1000"><path d="M527 0c-21 0-39 8-54 24s-22 35-22 58c0 22 7 41 22 57s33 24 54 24c20 0 38-8 53-24s22-35 22-57c0-23-7-42-22-58S547 0 527 0zm164 156c2 13 3 29 3 49v43h-53v106c15-2 27-3 37-3l16 1v2h-1v196c0 61 8 106 23 134 20 38 57 57 110 57 38 0 71-7 98-22V610c-18 12-39 19-61 19-33 0-49-25-49-74V352h47c9 0 19 0 28 1 10 1 17 1 21 1V248h-96v-45c0-17 2-33 4-47H691zm-501 87c-49 0-92 16-128 49-37 35-55 79-55 131 0 35 10 68 30 98 18 29 39 47 63 55v2c-24 10-35 36-35 77 0 31 12 54 37 70v2C34 750 0 791 0 853c0 53 23 92 68 117 36 19 81 29 136 29 135 0 203-56 203-169 0-71-52-114-157-130-24-4-42-13-54-27-10-9-14-19-14-28 0-27 14-43 43-47 45-7 81-27 109-62 28-34 42-75 42-122 0-14-3-30-9-47 19-4 34-8 44-12V243c-46 17-86 26-121 26-31-18-64-26-100-26zm275 5c1 13 2 37 2 71v340c0 35-1 60-2 74h123c-1-16-2-43-2-80V317c0-32 1-55 2-69H465zm-270 95c22 0 39 9 51 25 10 16 15 34 15 55 0 51-22 77-66 77-46 0-69-26-69-76 0-54 23-81 69-81zm7 445c62 0 92 19 92 56 0 39-28 59-84 59-64 0-96-19-96-57 0-39 29-58 88-58z"/></svg>