<svg xmlns="http://www.w3.org/2000/svg" viewBox="0 0 1228 1000"><path d="M1079-1c-33-1-110 11-239 97-70-18-145-26-219-26-83 0-166 10-243 31C193-25 111 1 111 1c-53 133-20 232-10 256C38 325 0 411 0 517c0 80 9 151 31 214 2 4 1 3 3 8 5 12 11 25 17 37l4 8c62 116 185 191 404 215h331c233-23 345-98 397-216l3-7c5-12 9-24 21-66 12-41 17-113 17-193 0-115-43-207-113-276 12-40 28-128-17-240 0 0-6-2-19-2zM818 420c54 0 100 9 135 46 43 45 69 100 69 159 0 277-178 285-398 285-219 0-397-39-397-285 0-58 25-113 68-158 71-76 192-36 329-36 71 0 137-11 194-11zm-408 82c-46 0-83 61-83 137 0 77 37 138 83 138 45 0 82-61 82-138 0-76-37-137-82-137zm443 0c-45 0-82 61-82 137 0 77 37 138 82 138 46 0 83-61 83-138 0-76-37-137-83-137z"/></svg>