<svg xmlns="http://www.w3.org/2000/svg" viewBox="0 0 928.6 1000"><path d="M357 679q0 22-7 45t-24 43-40 19-41-19-24-43-7-45 7-46 24-43 41-19 40 19 24 43 7 46zm357 0q0 22-7 45t-24 43-40 19-41-19-24-43-7-45 7-46 24-43 41-19 40 19 24 43 7 46zm90 0q0-67-39-114t-104-47q-23 0-109 12-40 6-88 6t-87-6q-85-12-109-12-66 0-104 47t-39 114q0 49 18 85t45 58 68 33 78 17 83 4h94q46 0 83-4t78-17 69-33 45-58 18-85zm125-99q0 116-34 185-22 43-59 74t-79 48-95 27-96 12-93 3q-43 0-79-2t-82-7-85-17-77-29-67-45-48-64Q0 696 0 580q0-132 76-221-15-45-15-95 0-64 28-121 61 0 106 22t106 69q82-20 172-20 83 0 157 18 58-46 104-67t105-22q29 57 29 121 0 49-15 94 76 89 76 222z"/></svg>