<svg xmlns="http://www.w3.org/2000/svg" viewBox="0 0 856.6 1000"><path d="M415 170q0-13-1-21t-5-17-11-13-21-4q-22 0-44 13-58 32-89 106t-30 150q0 25 5 48t15 45 29 35 46 13h21q3 0 9-1t8-5 4-9l27-129 27-129q10-51 10-82zm421 366q0 4-4 8t-9 3h-3q-12-2-35-6t-40-7-35-3q-93 0-196 52-8 5-12 15-5 20-13 59t-13 56q-13 51-39 100t-63 92-86 69-103 26q-76 0-120-47T21 831q0-30 11-65t35-65 54-30q21 0 67 19t46 34q0 1-9 7t-22 18-25 24-22 34-9 42q0 18 9 29t27 12q25 0 48-18t37-44 26-59 19-59 8-50v-5q0-2-1-2t-5-1h-15q-126 0-196-68T34 389q0-60 19-123t54-117 87-94T308 6q29-5 59-5 209 0 209 200 0 55-21 153t-24 117l1 2q57-32 102-49t94-17q12 0 29 7 11 4 45 57t34 65z"/></svg>