<svg xmlns="http://www.w3.org/2000/svg" viewBox="0 0 857.1 1000"><path d="M483 287q0 15-7 53-6 28-18 83t-17 84q-1 6-2 7t-8 2q-11 1-17 1-32 0-47-28t-14-63q0-49 19-97t58-70q15-7 28-7 16 0 21 9t4 26zm272 237q0-8-22-42t-29-37q-12-5-19-5-51 0-126 43l-1-1q1-12 15-75t14-100q0-130-135-130-14 0-38 4-53 9-94 50t-63 93-20 105q0 82 45 126t127 44q13 0 13 1t0 3q-2 19-15 65-7 29-28 57t-46 27q-24 0-24-26 0-13 6-27t14-22 16-15 15-12 6-4q0-2-4-6-13-12-32-20t-37-8q-20 0-35 19t-23 41-7 42q0 49 28 79t78 31q46 0 86-30t66-70 36-86q4-12 9-37t8-37q2-7 8-10 66-33 127-33 26 0 70 10h3q2 0 5-2t3-5zm102-292v536q0 66-47 113t-114 48H161q-67 0-114-48T0 768V232q0-66 47-113t114-48h535q67 0 114 48t47 113z"/></svg>