<svg xmlns="http://www.w3.org/2000/svg" viewBox="0 0 1001 1000"><path d="M92 0C41 0 0 26 0 92v79c4-3 8-7 12-11 83-68 173-80 250-81h307l-82 66h-89c36 31 89 86 89 184 0 108-57 159-118 207-19 19-41 40-41 72s22 49 38 63l52 40c64 54 148 117 148 217 0 27-3 52-12 72h354c51 0 92-28 92-79V340H816v186h-79V340H553v-77h184V79h79v184h184V92c0-66-41-92-92-92H92zm908 263v77h1v-77h-1zM187 128c-38 0-78 19-102 48-24 31-28 70-28 108 0 98 51 242 176 242 36 0 74-9 98-36 27-31 37-73 37-94 0-105-60-268-181-268zM0 526v258c66-52 180-43 235-46-20-27-43-54-43-100 0-24 7-39 14-56-16 1-32 2-46 2-66 0-120-25-160-58zm251 252c-13 0-91 3-152 24-21 7-69 26-99 66v53c0 51 41 79 92 79h377c2-7 6-12 6-26-1-75-80-115-190-194-12-2-19-2-34-2z"/></svg>