<svg xmlns="http://www.w3.org/2000/svg" viewBox="0 0 1001.1 1000"><path d="M720 266q-8-10-19-5t-15 16 3 21q8 9 23 8t19-11-11-29zM499 403q-4 4-10 4t-11-4q-4-5-4-11t4-10q4-4 11-4t10 4q4 4 4 10t-4 11zm93 41l-20 20q-7 7-16 7t-17-7l-22-22q-6-7-6-16t6-17l20-20q7-6 16-6t17 6l22 22q6 7 6 17t-6 16zm-61-72q-4 4-11 4t-10-4q-4-5-4-11t4-11q4-4 10-4t11 4 4 11-4 11zm225-55q-19 36-60 48t-72-10q-21-15-34-37t-11-49 21-51 43-29 39 2 39 29l7 7q6 6 8 7t8 8 7 9 5 8 5 10 2 11 1 11-3 13-5 13zm112 269q1-11-5-19t-15-12-19-10-13-11q-22-40-46-55t-63-6q10-8 22-11t18-2h7q1-25-19-50 3-11 4-22t-2-18l-1-5q24-13 39-36t19-51q6-47-24-84t-76-43q-34-4-64 11t-46 41q-16 29-18 56t8 49 24 36 32 23q-26-2-50-20t-31-49q-16-60 17-124-8-12-16-18-28 0-49 11 10-14 23-21t20-8h7q0-28-7-44-5-11-18-16t-26 2-21 23q1-3 2-4-4 15-4 42t11 65 27 69q-14 7-26 20-20 9-48 39t-47 57l-18 25q-51 19-101 70t-42 91q0 9 6 15-8 7-17 17-12 14-12 30t12 22 36-3q23-11 43-28t31-34l-4-2q-2-1-12-4t-18-2q13-3 29-7t22-6 15-3 15-3 13 0q8 4 12-19 4-20 4-50 0-57-22-84 59 58 56 122-1 17-8 28t-15 15l-8 4q-2 4-10 18t-15 25-15 29-14 34-9 35-4 37 6 35q-20-30-21-44-12 13-19 22t-19 23-17 26-9 23 0 21 14 15q25 14 80-36t107-123 68-128q48-29 81-64t48-67q26 52 86 99 58 47 93 45 22-1 26-24zm133-86q0 102-39 194T855 854 695 960t-194 40-195-40-160-106T40 694 0 500t40-194 106-160T306 40 501 0t194 40 160 106 107 160 39 194z"/></svg>