<svg xmlns="http://www.w3.org/2000/svg" viewBox="0 0 857.1 1000"><path d="M719 361q33 0 60 13 78 35 78 126v99q0 52-13 104l-47 189q-12 48-51 78t-87 30H286q-59 0-101-42t-42-101V633L10 283Q0 258 0 232q0-59 42-101t101-42q45 0 81 26t52 66l10 25v-63q0-59 42-101T429 0t101 42 41 101v145q16-2 27-2 39 0 71 20t50 55zm-121-4q-18 0-33 10t-24 27l-41 91-40 86h31q28 0 50 18t28 45l86-189q6-11 6-25 0-26-19-44t-44-19zm124 75q-13 0-23 5t-16 9-13 16-10 17-9 21l-74 162q-6 11-6 25 0 26 19 45t44 18q18 0 34-10t23-27l89-196q5-10 5-22 0-27-18-45t-45-18zM71 232q0 12 5 26l138 362v39l57-62q24-26 59-26h111l59-130V143q0-30-21-51t-50-21-51 21-21 51v357h-36L210 206q-8-20-26-33t-41-12q-30 0-51 21t-21 50zm588 697q24 0 43-15t26-40l47-189q11-41 11-86v-51l-79 173q-9 21-29 34t-44 13q-30 0-52-19t-27-49q-25 32-64 32H375v-18h116q26 0 45-18t20-44-17-44-43-19H330q-27 0-45 20l-71 76v172q0 30 21 51t51 21h373z"/></svg>