<svg xmlns="http://www.w3.org/2000/svg" viewBox="0 0 1000 1000"><path d="M599 929h-99q-91 0-126-79-13-28-13-57v-3q-34-17-55-49t-20-71q0-22 3-27H143q-59 0-101-42T0 500t42-101 101-42h63l-25-9q-41-16-66-53t-26-81q0-59 42-101t101-42q26 0 51 10l350 133h224q59 0 101 42t42 101v373q0 49-30 88t-78 50l-189 48q-52 13-104 13zm-28-397l-86 39-91 42q-17 7-27 23t-10 34q0 25 19 44t44 18q14 0 25-5l189-86q-27-6-45-28t-18-51v-30zm179 173q0-25-18-44t-44-18q-15 0-26 5l-162 74q-16 7-21 10t-17 9-16 13-9 16-4 23q0 28 17 46t46 18q11 0 21-5l196-90q17-8 27-23t10-34zM621 286L258 147q-14-4-26-4-29 0-50 21t-21 50q0 23 12 41t34 26l293 112v36H143q-30 0-51 20t-21 51 21 50 51 21h298l130-59V402q0-35 26-59l62-57h-38zm-22 571q46 0 86-11l189-47q24-6 40-25t15-44V357q0-29-21-50t-51-21H685l-76 70q-20 18-20 46v165q0 26 19 43t44 17 44-19 18-46V446h18v116q0 40-32 64 29 5 49 27t19 52q0 24-13 44t-34 29l-173 79h51z"/></svg>