<svg xmlns="http://www.w3.org/2000/svg" viewBox="0 0 1285.7 1000"><path d="M107 643q23 0 31-18t0-36-31-18-31 18 0 36 31 18zm822-33q-5-7-21-27t-23-31-22-27-23-30-23-26-25-27l-70 78q-46 52-116 51t-115-54q-32-39-31-88t32-88l99-115q-12-6-28-9t-27-4-31 1-28 0q-51 0-88 37l-88 88h-87v304h24q3 0 11 1t12 2 9 5 11 7l165 163q65 62 127 62 44 0 70-26 32 11 63-4t40-48q41 4 71-24 11-10 20-26t8-28q5 6 24 6 24 0 43-12t28-30 6-40-17-41zm89 33h53V357h-51l-88-100q-37-43-94-43h-94q-49 0-81 38L546 387q-15 19-15 42t15 42q24 28 61 29t62-27l108-122q14-13 30-12t26 15 5 32q9 10 31 35t33 38q17 20 46 59t36 47q29 37 34 78zm161 0q22 0 31-18t0-36-31-18-32 18 0 36 32 18zm107-322v358q0 14-11 25t-25 10h-242q-15 37-46 60t-70 28q-18 27-45 46t-57 25q-23 30-58 46t-72 14q-33 19-70 22t-71-8-66-30-57-45L236 714H36q-15 0-25-10T0 679V304q0-15 11-26t25-10h235q8-8 26-27t26-27 25-22 28-21 29-14 34-11 38-3h65q56 0 101 31 46-31 101-31h94q19 0 37 3t32 8 28 15 25 17 24 22 22 24 23 27 23 27h198q15 0 25 10t11 25z"/></svg>