<svg xmlns="http://www.w3.org/2000/svg" viewBox="0 0 1000 1000"><path d="M553 571l36-142H447l-36 142h142zm429-281l-32 125q-4 14-17 14H751l-36 142h173q9 0 14 7 6 8 4 16l-32 125q-2 13-17 13H675l-45 183q-4 14-18 14H487q-9 0-14-7t-4-16l44-174H371l-45 183q-4 14-17 14H183q-8 0-14-7-5-7-3-16l43-174H36q-9 0-14-7-5-6-4-15l32-125q4-14 17-14h182l36-142H112q-9 0-14-7-6-8-4-16l32-125q2-13 17-13h182l46-183q3-14 17-14h125q9 0 14 7t4 16l-44 174h142l45-183q4-14 18-14h125q8 0 14 7 5 7 3 16l-43 174h173q9 0 14 7 5 6 4 15z"/></svg>