<svg xmlns="http://www.w3.org/2000/svg" viewBox="0 0 928.6 1000"><path d="M929 494q0 93-34 176l-11 27-103 18q-13 47-51 77t-87 29v18q0 8-5 13t-13 5h-36q-7 0-12-5t-6-13V518q0-8 6-13t12-5h36q8 0 13 5t5 13v18q40 0 72 19t52 54l38-7q16-53 16-108 0-82-49-155T640 222t-176-43-176 43-132 117-49 155q0 55 16 108l38 7q19-34 52-54t73-19v-18q0-8 5-13t13-5h35q8 0 13 5t5 13v321q0 8-5 13t-13 5h-35q-8 0-13-5t-5-13v-18q-49 0-88-29t-50-77L45 697l-11-27Q0 587 0 494q0-84 37-162t100-135 149-92 178-34 179 34 148 92 100 135 38 162z"/></svg>