<svg xmlns="http://www.w3.org/2000/svg" viewBox="0 0 785.7 1000"><path d="M214 732v36q0 7-5 12t-13 6h-35q-7 0-13-6t-5-12v-36q0-7 5-12t13-6h35q8 0 13 6t5 12zm0-143v36q0 7-5 13t-13 5h-35q-7 0-13-5t-5-13v-36q0-7 5-12t13-6h35q8 0 13 6t5 12zm143 0v36q0 7-5 13t-13 5h-35q-8 0-13-5t-5-13v-36q0-7 5-12t13-6h35q8 0 13 6t5 12zM214 446v36q0 7-5 13t-13 5h-35q-7 0-13-5t-5-13v-36q0-7 5-12t13-5h35q8 0 13 5t5 12zm429 286v36q0 7-5 12t-13 6h-36q-7 0-12-6t-6-12v-36q0-7 6-12t12-6h36q7 0 13 6t5 12zM500 589v36q0 7-5 13t-13 5h-36q-7 0-12-5t-5-13v-36q0-7 5-12t12-6h36q7 0 13 6t5 12zM357 446v36q0 7-5 13t-13 5h-35q-8 0-13-5t-5-13v-36q0-7 5-12t13-5h35q8 0 13 5t5 12zm286 143v36q0 7-5 13t-13 5h-36q-7 0-12-5t-6-13v-36q0-7 6-12t12-6h36q7 0 13 6t5 12zM500 446v36q0 7-5 13t-13 5h-36q-7 0-12-5t-5-13v-36q0-7 5-12t12-5h36q7 0 13 5t5 12zm143 0v36q0 7-5 13t-13 5h-36q-7 0-12-5t-6-13v-36q0-7 6-12t12-5h36q7 0 13 5t5 12zM500 929h214V286H571v18q0 22-15 37t-38 16H268q-22 0-38-16t-16-37v-18H71v643h215V804q0-8 5-13t13-5h178q7 0 13 5t5 13v125zm0-661V89q0-7-5-12t-13-6h-36q-7 0-12 6t-5 12v54h-72V89q0-7-5-12t-13-6h-35q-8 0-13 6t-5 12v179q0 7 5 12t13 6h35q8 0 13-6t5-12v-54h72v54q0 7 5 12t12 6h36q7 0 13-6t5-12zm286-18v714q0 15-11 25t-25 11H36q-15 0-25-11T0 964V250q0-15 11-25t25-11h178V54q0-23 16-38t38-16h250q22 0 38 16t15 38v160h179q15 0 25 11t11 25z"/></svg>