<svg xmlns="http://www.w3.org/2000/svg" viewBox="0 0 1142.9 1000"><path d="M500 676q0-30-4-56t-14-50-28-38-45-14q-36 36-88 36t-87-36q-26 0-45 14t-28 38-14 50-4 56q0 31 17 52t43 22h237q25 0 42-22t18-52zm-71-247q0-45-32-76t-76-32-75 32-32 76 32 75 75 32 76-32 32-75zm571 267v-35q0-8-5-13t-13-5H589q-7 0-12 5t-6 13v35q0 8 6 13t12 5h393q8 0 13-5t5-13zM786 554v-36q0-8-5-13t-13-5H589q-7 0-12 5t-6 13v36q0 7 6 12t12 5h179q8 0 13-5t5-12zm214 0v-36q0-8-5-13t-13-5H875q-8 0-13 5t-5 13v36q0 7 5 12t13 5h107q8 0 13-5t5-12zm0-143v-36q0-8-5-13t-13-5H589q-7 0-12 5t-6 13v36q0 7 6 12t12 6h393q8 0 13-6t5-12zM71 214h1000v-53q0-8-5-13t-12-5H89q-7 0-12 5t-6 13v53zm1072-53v678q0 37-26 63t-63 27H89q-36 0-63-27T0 839V161q0-37 26-63t63-27h965q36 0 63 27t26 63z"/></svg>