<svg xmlns="http://www.w3.org/2000/svg" viewBox="0 0 1142.9 1000"><path d="M500 676q0 31-18 52t-42 22H203q-25 0-43-22t-17-52q0-30 4-56t14-50 28-38 45-14q36 36 87 36t88-36q26 0 45 14t28 38 14 50 4 56zm-71-247q0 44-32 75t-76 32-75-32-32-75 32-76 75-32 76 32 32 76zm571 232v35q0 8-5 13t-13 5H589q-7 0-12-5t-6-13v-35q0-8 6-13t12-5h393q8 0 13 5t5 13zM786 518v36q0 7-5 12t-13 5H589q-7 0-12-5t-6-12v-36q0-8 6-13t12-5h179q8 0 13 5t5 13zm214 0v36q0 7-5 12t-13 5H875q-8 0-13-5t-5-12v-36q0-8 5-13t13-5h107q8 0 13 5t5 13zm0-143v36q0 7-5 12t-13 6H589q-7 0-12-6t-6-12v-36q0-8 6-13t12-5h393q8 0 13 5t5 13zm71 464V214H71v625q0 7 6 13t12 5h965q7 0 12-5t5-13zm72-678v678q0 37-26 63t-63 27H89q-36 0-63-27T0 839V161q0-37 26-63t63-27h965q36 0 63 27t26 63z"/></svg>