<svg xmlns="http://www.w3.org/2000/svg" viewBox="0 0 857.1 1000"><path d="M515 445v118l-1 7-2 6-4 4-6 3-9 1V412h9q4 0 6 3t4 3 2 5 1 6v16zm176 53v83q0 1-1 7t-4 6-8 1q-5 0-8-5-2-5-2-92v-13l1-5 2-4 3-3 4-1q3 0 6 1t3 2 3 4 1 4 0 5v10zM100 630h69V367h-69v263zm243 0h59V367h-89l-16 123q-11-83-17-123h-89v263h60V456l25 174h43l24-178v178zm237-170q0-38-3-50-2-9-6-16t-10-12-14-8-14-4-18-3-16 0h-74v263h32q94 1 109-14t14-100v-56zm177 110v-75q0-16-1-25t-6-18-13-14-26-4q-26 0-43 19v-86h-65v263h61l4-17q17 20 43 20 28 0 37-17t9-46zm100-409v678q0 37-26 63t-63 27H89q-36 0-63-27T0 839V161q0-37 26-63t63-27h679q37 0 63 27t26 63z"/></svg>