<svg xmlns="http://www.w3.org/2000/svg" viewBox="0 0 1000 1000"><path d="M214 304v321q0 7-5 13t-13 5q-7 0-12-5L23 477q-5-5-5-13t5-13l161-160q5-5 12-5 8 0 13 5t5 13zm786 428v107q0 7-5 13t-13 5H18q-7 0-13-5t-5-13V732q0-7 5-12t13-6h964q7 0 13 6t5 12zm0-214v107q0 7-5 13t-13 5H375q-7 0-13-5t-5-13V518q0-7 5-13t13-5h607q7 0 13 5t5 13zm0-214v107q0 7-5 12t-13 6H375q-7 0-13-6t-5-12V304q0-8 5-13t13-5h607q7 0 13 5t5 13zm0-215v107q0 8-5 13t-13 5H18q-7 0-13-5t-5-13V89q0-7 5-12t13-6h964q7 0 13 6t5 12z"/></svg>