<svg xmlns="http://www.w3.org/2000/svg" viewBox="0 0 857.1 1000"><path d="M571 500q0-59-41-101t-101-42-101 42-42 101 42 101 101 42 101-42 41-101zm77 0q0 91-64 156t-155 64-156-64-64-156 64-156 156-64 155 64 64 156zm61-229q0 21-15 36t-37 15-36-15-15-36 15-36 36-15 37 15 15 36zM429 148H327q-20 0-54 2t-57 5-40 11q-28 11-49 32t-33 49q-6 16-10 40t-6 58-1 53 0 59 0 43 0 43 0 59 1 53 6 58 10 40q12 28 33 49t49 32q16 6 40 11t57 5 54 2 59 0 43 0 42 0 59 0 54-2 58-5 39-11q28-11 50-32t32-49q6-16 10-40t6-58 1-53 0-59 0-43 0-43 0-59-1-53-6-58-10-40q-11-28-32-49t-50-32q-16-6-39-11t-58-5-54-2-59 0-42 0zm428 352q0 128-3 177-5 116-69 180t-179 69q-50 3-177 3t-177-3q-116-6-180-69T3 677q-3-49-3-177t3-177q5-116 69-180t180-69q49-3 177-3t177 3q116 6 179 69t69 180q3 49 3 177z"/></svg>