<svg xmlns="http://www.w3.org/2000/svg" viewBox="0 0 1000 1000"><path d="M749 1H251C113 1 2 112 2 249v502c0 137 111 248 249 248h498c138 0 250-111 250-248V249C999 112 887 1 749 1zm157 750c0 86-70 156-157 156H251c-87 0-157-70-157-156V427h197c-14 30-23 64-23 100 0 130 107 236 237 236 131 0 237-106 237-236 0-36-8-70-23-100h187v324zM407 527c0-54 44-98 98-98s98 44 98 98-44 98-98 98-98-44-98-98zm499-192H642c-39-28-86-44-137-44s-98 16-137 44H94v-86c0-86 70-156 157-156h498c87 0 157 70 157 156v86zM806 149h-85c-15 0-28 12-28 27v86c0 15 13 27 28 27h85c16 0 28-12 28-27v-86c0-15-12-27-28-27z"/></svg>