<svg xmlns="http://www.w3.org/2000/svg" viewBox="0 0 1000 1000"><path d="M1000 523q0 31-4 58H354q0 81 61 136t144 55q55 0 103-26t76-73h236q-31 89-95 157T730 936t-179 37q-105 0-199-47-127 65-220 65Q0 991 0 844q0-64 25-153 10-34 61-128 111-201 265-338-103 44-238 197 35-153 158-250t280-98h25Q718 9 818 9q35 0 64 7t53 23 37 42 14 65q0 64-42 159 56 102 56 218zm-39-357q0-47-30-74t-76-27q-60 0-142 39 68 26 124 73t96 109q28-75 28-120zM71 856q0 48 28 74t75 26q64 0 148-46-68-41-119-103t-77-136Q71 785 71 856zm282-398h406q-3-79-63-132t-140-53q-81 0-140 53t-63 132z"/></svg>