<svg xmlns="http://www.w3.org/2000/svg" viewBox="0 0 1142.9 1000"><path d="M816 464q0 20-13 34t-35 14H377q-20 0-34-14t-14-34 14-34 34-14h391q21 0 35 14t13 34zm120 0q0-48-13-95H375q-20 0-34-14t-14-33q0-20 14-34t34-14h507q-49-80-131-127t-179-47q-99 0-183 49T256 282t-48 182q0 48 12 95h548q21 0 35 14t13 34q0 20-13 34t-35 14H262q49 79 131 126t179 47q74 0 141-29t116-77 78-116 29-142zm207-142q0 19-14 33t-34 14h-73q9 48 9 95 0 93-36 179t-98 146-147 99-178 36q-137 0-250-74T154 655H48q-20 0-34-14T0 607q0-20 14-34t34-14h74q-10-47-10-95 0-93 37-178t98-147 146-98T572 4q137 0 250 75t168 195h105q20 0 34 14t14 34z"/></svg>