<svg xmlns="http://www.w3.org/2000/svg" viewBox="0 0 667 1000"><path d="M225 0c-4 0-9 0-13 1-18 2-37 2-55 5-35 5-68 16-101 29-12 5-24 10-35 16-4 2-11 3-14 7-2 1-2 5-2 8-1 6-2 13-2 19-3 26-4 52-1 77 1 8 4 23 14 24 15 3 27-16 35-27 17-24 37-47 66-58 34-13 73-16 109-18 102-7 212 11 287 86 10 10 20 22 29 34 33 48 51 103 59 161 4 27 7 54 1 81-11 47-39 88-71 122-23 24-47 46-73 65-15 11-31 20-45 32-15 14-28 31-38 49-27 49-34 109-26 164 2 11 3 22 6 33 0 4 1 9 3 12 4 5 15 8 21 8 6 1 10-4 12-10 3-10 1-21 0-31-4-20-7-41-6-61 2-38 17-74 43-101 27-28 63-44 94-68 61-47 116-111 137-187 8-27 10-56 7-84-5-35-18-71-30-104C599 182 535 86 434 39c-40-18-82-27-126-33-20-2-40-4-61-5-7 0-15-1-22-1zm-53 421c-10 1-20 3-28 8-13 8-20 22-24 36-8 28-5 59 1 87 2 9 3 18 6 27 1 3 1 8 3 10 4 5 13 6 18 5 16-2 12-29 12-40-2-27-9-52-2-79 3-11 9-23 21-28 10-4 20 1 24 11 7 16 5 34 9 51 1 6 3 11 6 17 0 1 1 4 3 4 6 0 13-9 17-12 13-11 26-22 40-30 7-3 18-9 25-3l5 5c8 13 0 23-5 36-7 16-14 31-24 45-9 13-21 23-28 37-4 8-7 18-5 27 2 8 8 13 16 11 6-1 10-7 13-11 6-9 12-17 18-26 11-16 25-32 35-49 12-21 18-45 18-69 0-20-8-50-31-55-4 0-9 0-13 1-5 1-11 3-16 5-13 6-24 16-34 26-6 7-11 15-18 21 0-15-3-30-12-43-11-16-30-25-50-25zM57 658h-3c-20 3-26 19-22 37 4 22 22 40 40 54 46 35 105 54 162 51 22-1 47-5 67-14 11-5 23-23 8-31-2-1-5-2-7-2-7-1-14 1-20 3-11 3-22 6-33 8-34 6-71-2-98-22-23-16-41-37-58-59-10-12-19-26-36-25zM36 769c-3 0-6 0-8 1-5 0-11 0-15 3-9 7 1 20 5 26 14 18 32 32 50 45 50 35 107 56 168 60 18 1 35 0 53-3 6-1 14-2 20-4 17-8 12-39-3-46-7-4-17 1-24 1-16 3-32 3-48 3-42-2-87-15-124-35-15-8-28-18-40-29-8-7-16-18-26-21-2-1-5-1-8-1zm3 95h-1c-7 1-13 4-17 10-4 3-7 7-8 11-11 26 17 50 36 62 21 13 43 23 67 31 53 19 115 31 169 14 17-5 33-14 44-26 7-7 12-18 0-22-8-3-17 4-23 6-16 7-32 11-48 13-22 3-42-2-63-7-18-5-37-9-54-16-15-5-30-12-43-21-4-3-8-5-11-9-11-11-19-25-30-36-4-5-11-10-18-10z"/></svg>