<svg xmlns="http://www.w3.org/2000/svg" viewBox="0 0 857.1 1000"><path d="M597 599l-89 89-84 85-17 17q-36 35-85 48t-95 1q-9 39-41 65t-72 25q-47 0-80-34T0 814q0-41 25-72t63-40q-12-48 1-97t49-84l7-7 84 85-6 6q-21 21-21 50t21 50q20 20 49 20t50-20l17-17 84-85 90-89zM407 218l7 7-85 85-7-7q-21-21-50-21t-49 21-21 50 21 50l16 16 85 85 89 89-84 85-90-89-84-85-17-17q-38-37-50-89t2-100q-39-8-64-40T1 186q0-47 34-81t81-34q42 0 74 28t39 68q47-11 94 2t84 49zm450 596q0 47-33 81t-81 34q-41 0-73-27t-40-66q-48 16-100 4t-90-50l-6-7 84-85 7 7q20 20 49 20t50-20 21-50-21-50l-17-16-85-85-89-89 85-85 89 89 85 85 16 17q36 35 49 84t1 95q43 6 71 39t28 75zm-1-628q0 43-28 76t-71 38q14 48 1 99t-50 88l-6 7-85-85 7-7q21-20 21-49t-21-50-50-21-49 21l-17 17-85 85-89 89-85-85 90-89 85-85 16-17q37-37 89-50t99 2q6-42 38-70t76-29q47 0 81 34t33 81z"/></svg>