<svg xmlns="http://www.w3.org/2000/svg" viewBox="0 0 1142.9 1000"><path d="M1005 431q61 25 100 81t38 124q0 91-66 156t-159 65H227q-95-6-161-70T0 630q0-61 31-113t82-82q-7-22-7-46 0-64 46-109t111-46q53 0 96 33 42-86 124-139t182-52q93 0 171 45t124 122 45 168v20zM261 579q0 68 47 108t116 40q77 0 134-56-9-11-26-31t-25-28q-37 36-80 36-31 0-52-19t-22-49q0-29 22-48t51-19q24 0 47 12t41 30 36 42 38 46 43 42 55 30 67 12q68 0 115-40t46-106q0-68-47-107t-115-40q-80 0-135 54l52 60q37-35 79-35 29 0 52 18t22 47q0 32-21 51t-52 19q-24 0-46-11t-40-31-37-42-39-46-43-41-54-31-66-12q-68 0-115 39t-48 106z"/></svg>