<svg xmlns="http://www.w3.org/2000/svg" viewBox="0 0 1071.4 1000"><path d="M214 652v53q0 9-9 9h-53q-9 0-9-9v-53q0-9 9-9h53q9 0 9 9zm72-143v53q0 9-9 9H152q-9 0-9-9v-53q0-9 9-9h125q9 0 9 9zm-72-143v54q0 9-9 9h-53q-9 0-9-9v-54q0-9 9-9h53q9 0 9 9zm572 286v53q0 9-9 9H295q-9 0-9-9v-53q0-9 9-9h482q9 0 9 9zM429 509v53q0 9-9 9h-54q-9 0-9-9v-53q0-9 9-9h54q9 0 9 9zm-72-143v54q0 9-9 9h-53q-9 0-9-9v-54q0-9 9-9h53q9 0 9 9zm214 143v53q0 9-8 9h-54q-9 0-9-9v-53q0-9 9-9h54q8 0 8 9zm-71-143v54q0 9-9 9h-53q-9 0-9-9v-54q0-9 9-9h53q9 0 9 9zm214 143v53q0 9-9 9h-53q-9 0-9-9v-53q0-9 9-9h53q9 0 9 9zm215 143v53q0 9-9 9h-54q-9 0-9-9v-53q0-9 9-9h54q9 0 9 9zM643 366v54q0 9-9 9h-54q-9 0-9-9v-54q0-9 9-9h54q9 0 9 9zm143 0v54q0 9-9 9h-54q-9 0-9-9v-54q0-9 9-9h54q9 0 9 9zm143 0v196q0 9-9 9H795q-9 0-9-9v-53q0-9 9-9h62V366q0-9 9-9h54q9 0 9 9zm71 420V286H71v500h929zm71-500v500q0 29-20 50t-51 21H71q-29 0-50-21T0 786V286q0-30 21-51t50-21h929q30 0 51 21t20 51z"/></svg>