<svg xmlns="http://www.w3.org/2000/svg" viewBox="0 0 1000 1000"><path d="M721 393q0 3 6 23 5 16 14 27t22 19 25 11 31 10q181 50 181 185 0 81-59 135t-142 54q-33 0-62-10t-51-26-43-41-35-49-30-58-24-57-22-60-20-53q-18-45-35-74t-41-54-58-36-79-11q-53 0-102 31t-77 81-28 103q0 89 59 156t147 67q99 0 144-53 31-36 46-65l47 85q-8 19-24 39-73 85-216 85-82 0-151-44T38 697 0 544q0-59 24-115t65-98 96-68 114-26q49 0 89 11t69 28 53 44 40 56 33 65 28 69 28 73 31 71q53 112 130 112 45 0 77-27t32-72q0-24-11-40t-28-26-40-18-47-15-49-19-45-29-37-45-21-69q-2-9-2-18 0-62 49-107t111-44q43 2 67 8t50 30q6 6 13 14t14 20 11 15l-72 55q-15-27-30-39-13-12-55-12-27 0-46 18t-20 47z"/></svg>