<svg xmlns="http://www.w3.org/2000/svg" viewBox="0 0 857.1 1000"><path d="M799 587q0-97-130-133-20-6-30-10t-21-14-16-25q0-2-2-5t-1-7-1-4q0-20 14-33t34-13q30 0 39 8 11 8 22 28l51-39q-21-30-27-36-18-16-38-22t-47-5q-45 0-80 32t-34 77q0 3 1 12 9 54 36 79t83 40q16 5 27 9t25 12 22 19 7 26v3q1 32-22 52t-56 19q-55 0-94-80-12-26-28-68t-27-70-30-62-42-53-57-34-82-13q-57 0-107 31t-81 83-28 107q3 61 28 111t75 83 109 31q104 0 156-61 11-15 17-29l-33-61q-24 45-55 65t-82 20q-64 0-106-48t-43-114q0-59 46-106t104-46q62 0 95 29t58 97q4 11 14 38t16 43 17 41 22 41 25 35 31 30 37 19 45 7q59 0 102-39t42-97zm58-355v536q0 66-47 113t-114 48H161q-67 0-114-48T0 768V232q0-66 47-113t114-48h535q67 0 114 48t47 113z"/></svg>