<svg xmlns="http://www.w3.org/2000/svg" viewBox="0 0 995 1000"><path d="M439 716l-37-99s-59 66-148 66c-78 0-134-69-134-178 0-140 70-190 140-190 100 0 132 65 159 148l37 114c36 110 105 199 302 199 141 0 237-43 237-157 0-92-52-140-150-163l-73-16c-51-11-65-32-65-66 0-39 30-62 81-62 54 0 84 21 88 70l114-14c-9-102-79-144-196-144-102 0-202 38-202 163 0 77 37 126 132 149l77 18c58 14 78 38 78 71 0 42-41 59-119 59-115 0-163-60-190-144l-38-114c-48-148-124-202-276-202C89 224 0 330 0 510c0 173 89 266 249 266 128 0 190-60 190-60z"/></svg>