<svg xmlns="http://www.w3.org/2000/svg" viewBox="0 0 1000 1000"><path d="M196 0C88 0 0 88 0 196v608c0 108 88 196 196 196h608c108 0 196-88 196-196V196C1000 88 912 0 804 0H196zm89 253c135 0 203 49 246 181l34 102c24 74 67 128 169 128 70 0 106-15 106-53 0-29-17-50-69-63l-69-16c-85-20-118-64-118-133 0-111 89-146 181-146 104 0 167 38 175 129l-102 13c-4-44-30-62-79-62-45 0-72 20-72 54 0 31 13 49 58 60l65 14c87 20 134 63 134 145 0 102-85 141-212 141-176 0-237-80-269-178l-33-102c-24-74-53-132-142-132-62 0-125 44-125 170 0 97 49 158 120 158 79 0 132-59 132-59l32 89s-54 54-169 54c-143 0-222-84-222-238 0-161 79-256 229-256z"/></svg>