<svg xmlns="http://www.w3.org/2000/svg" viewBox="0 0 1000 1000"><path d="M714 393q0-15-10-25t-25-11q-96 0-178 28t-145 74-131 123q-11 12-11 25 0 15 11 25t25 11q13 0 25-11 15-13 41-39t38-37q76-69 150-98t175-29q14 0 25-11t10-25zm286-111q0 53-11 108-26 125-103 214T686 753q-119 61-244 61-83 0-160-27-8-2-49-23t-53-21q-9 0-22 18t-25 39-30 39-33 18q-24 0-36-10T9 814l-3-6-3-6q-1-2-2-5t-1-7q0-20 17-41t38-37 38-31 18-27q0-2-8-21t-9-25q-5-28-5-58 0-64 24-123t66-103 96-77 113-53q31-10 81-15t101-5 99-3 91-13 64-32l16-16 17-16 15-11 20-9 24-3q22 0 40 26t26 63 14 69 4 53z"/></svg>