<svg xmlns="http://www.w3.org/2000/svg" viewBox="0 0 1000 1000"><path d="M768 786h18V429h-18q-20 0-38-7t-35-21-28-25-27-31q-4-5-7-7-40-46-62-81-8-13-21-38-1-2-6-13t-10-20-12-20-12-17-10-6q-40 0-64 17t-25 54q0 24 8 47t19 38 18 31 8 27H143q-28 0-50 22t-22 50q0 29 22 50t50 21h185q-9 9-14 26t-6 31q0 39 30 67-10 18-10 38t9 41 27 30q-2 13-2 31 0 47 27 70t75 23q47 0 102-18t109-35 93-18zm161-36q0-15-11-25t-25-11-25 11-11 25 11 25 25 11 25-11 11-25zm71-321v357q0 29-21 50t-50 21H768q-33 0-125 33-106 39-176 39-80 0-129-44t-48-121v-3q-34-42-34-99 0-12 2-24-19-32-21-67h-94q-59 0-101-42T0 428q0-58 42-100t101-42h209q-13-34-13-72 0-68 46-105t115-38q21 0 39 10t31 28 22 35 21 40 18 35q20 30 56 72 1 1 8 9t10 12 12 12 13 13 13 10 13 8 12 2h161q29 0 50 21t21 51z"/></svg>