<svg xmlns="http://www.w3.org/2000/svg" viewBox="0 0 857.1 1000"><path d="M785 461q0-25-4-63t-10-54q-6-17-9-25t-5-20-2-27q0-13 2-39t3-37q0-21-5-31h-8q-10 0-32 2t-33 3q-34 0-98-14t-98-13q-24 0-53 6t-47 13-50 19q-76 30-113 58-53 41-89 106T85 476 71 615q0 22 7 67t7 67q0 13-6 38t-6 36 7 20 19 9q13 0 40-7t41-6q32 0 95 9t94 9q101 0 159-21 72-25 131-85t93-137 33-153zm72-1q0 92-39 183T708 803 551 904q-69 25-182 25-31 0-94-8t-95-9q-13 0-40 9t-41 8q-41 0-69-31T2 826q0-14 6-38t6-37q0-23-7-68t-7-68q0-61 10-121t31-117 56-108 83-87q44-33 130-67 108-44 176-44 34 0 98 14t97 13q10 0 32-3t32-2q45 0 66 28t21 75q0 13-3 38t-3 38q0 7 1 14t2 9 4 11 5 11q9 23 14 67t5 76z"/></svg>