<svg xmlns="http://www.w3.org/2000/svg" viewBox="0 0 571.4 1000"><path d="M411 321q0 8-6 13t-12 5-13-5-5-13q0-25-30-39t-59-14q-7 0-13-5t-5-13 5-13 13-5q28 0 55 9t49 30 21 50zm89 0q0-40-19-74t-50-57-69-35-76-12-76 12-69 35-50 57-20 74q0 57 38 101 6 6 17 18t17 19q72 85 79 166h127q8-81 79-166 6-6 17-19t17-18q38-44 38-101zm71 0q0 87-57 150-25 27-42 48t-33 54-19 60q26 15 26 46 0 20-13 35 13 15 13 36 0 29-25 45 8 13 8 26 0 26-18 40t-43 14q-11 25-34 39t-48 15-49-15-33-39q-26 0-44-14t-17-40q0-13 7-26-25-16-25-45 0-21 14-36-14-15-14-35 0-31 26-46-2-28-19-60t-33-54-41-48Q0 408 0 321q0-55 25-103t65-79 92-49 104-19 104 19 91 49 66 79 24 103z"/></svg>