<svg xmlns="http://www.w3.org/2000/svg" viewBox="0 0 928.6 1000"><path d="M813 679q0-23-16-38L681 525q-16-16-38-16-24 0-40 18l10 10 12 12q3 3 9 11t7 14 2 15q0 23-16 38t-38 16q-8 0-15-2t-14-7-11-9-12-12-10-10q-19 17-19 40t16 38l115 116q15 15 38 15 22 0 38-15l82-81q16-16 16-37zM420 285q0-22-15-38L290 132q-16-16-38-16t-38 15l-82 82q-16 15-16 37t16 38l116 116q15 15 38 15t40-17l-11-11-12-12q-3-3-8-10t-7-14-2-16q0-22 15-38t38-15q9 0 16 2t14 7 11 8 12 12 10 11q18-17 18-41zm500 394q0 66-48 113l-82 81q-46 47-113 47-68 0-114-48L448 757q-46-47-46-114 0-68 49-116l-49-49q-48 49-116 49-67 0-114-47L56 364Q9 317 9 250t47-113l82-82Q185 9 252 9t114 47l115 116q46 46 46 113 0 69-49 117l49 49q48-49 116-49 67 0 114 47l116 116q47 47 47 114z"/></svg>