<svg xmlns="http://www.w3.org/2000/svg" viewBox="0 0 857.1 1000"><path d="M184 857l113 119-19-132-121-119zm126 126l153-122-6-137-167 120zM137 627l126 118-26-182-137-114zm139 125l177-120-8-181-196 112zm194 6l53 44-1-133-57-44v11q0 2-2 5l-44 29 48 39q3 3 3 49zM77 338l143 112-38-260L26 94zm578 370l8-130-128 91 1 134zM233 454l208-108-11-246-236 91zm476 204l11-130-126-79-1 58 80 53q3 2 2 5l-4 67zm106-78l17-124-100 72-11 127zm-105 93l-39-27-5 65q0 3-2 5L534 820q-4 3-8 0l-55-46 4 90q0 3-2 4L309 999q-2 1-3 1-5-1-5-2L174 863q-2-2-33-154-1-4 3-6l34-21q-52-48-53-51L85 435q-1-4 3-7l53-25q-75-56-76-60L12 83q-1-6 4-8L257 0q3 0 5 1l177 85q3 2 3 5l11 258q0 4-3 6l-66 34 70 47q3 1 3 5l3 68 67-41q3-2 7 0l46 31 2-61q0-3 3-5l115-70q3-2 6 0l137 75q2 2 2 4t-3 33-10 70-5 39q0 3-3 4l-106 85q-4 3-8 0z"/></svg>