<svg xmlns="http://www.w3.org/2000/svg" viewBox="0 0 1000 1000"><path d="M214 786q0 44-31 76t-76 31-76-31-31-76 31-76 76-31 76 31 31 76zm0-286q0 45-31 76t-76 31-76-31-31-76 31-76 76-31 76 31 31 76zm786 232v107q0 7-5 13t-13 5H304q-8 0-13-5t-5-13V732q0-7 5-12t13-6h678q7 0 13 6t5 12zM214 214q0 45-31 76t-76 31-76-31-31-76 31-76 76-31 76 31 31 76zm786 232v108q0 7-5 12t-13 5H304q-8 0-13-5t-5-12V446q0-7 5-12t13-5h678q7 0 13 5t5 12zm0-285v107q0 7-5 12t-13 6H304q-8 0-13-6t-5-12V161q0-8 5-13t13-5h678q7 0 13 5t5 13z"/></svg>