<svg xmlns="http://www.w3.org/2000/svg" viewBox="0 0 1000 1000"><path d="M143 732v107q0 7-5 13t-13 5H18q-7 0-13-5t-5-13V732q0-7 5-12t13-6h107q7 0 13 6t5 12zm0-214v107q0 7-5 13t-13 5H18q-7 0-13-5t-5-13V518q0-7 5-13t13-5h107q7 0 13 5t5 13zm0-214v107q0 7-5 12t-13 6H18q-7 0-13-6t-5-12V304q0-8 5-13t13-5h107q7 0 13 5t5 13zm857 428v107q0 7-5 13t-13 5H232q-7 0-12-5t-6-13V732q0-7 6-12t12-6h750q7 0 13 6t5 12zM143 89v107q0 8-5 13t-13 5H18q-7 0-13-5t-5-13V89q0-7 5-12t13-6h107q7 0 13 6t5 12zm857 429v107q0 7-5 13t-13 5H232q-7 0-12-5t-6-13V518q0-7 6-13t12-5h750q7 0 13 5t5 13zm0-214v107q0 7-5 12t-13 6H232q-7 0-12-6t-6-12V304q0-8 6-13t12-5h750q7 0 13 5t5 13zm0-215v107q0 8-5 13t-13 5H232q-7 0-12-5t-6-13V89q0-7 6-12t12-6h750q7 0 13 6t5 12z"/></svg>