<svg xmlns="http://www.w3.org/2000/svg" viewBox="0 0 1000 1000"><path d="M213 904q0 45-31 70t-75 26q-60 0-96-37l31-49q28 25 60 25 16 0 28-8t12-24q0-35-59-31l-14-31q4-6 18-24t24-31 20-21v-1q-9 0-27 1t-27 0v30H18v-85h186v49l-53 65q28 6 45 27t17 49zm1-350v89H12q-4-20-4-30 0-29 14-52t31-38 37-27 31-24 14-25q0-14-9-22t-22-7q-25 0-45 32l-47-33q13-28 40-44t59-16q40 0 68 23t28 63q0 28-19 51t-42 36-42 28-20 30h71v-34h59zm786 178v107q0 7-5 13t-13 5H304q-8 0-13-5t-5-13V732q0-8 5-13t13-5h678q7 0 13 6t5 12zM214 230v56H27v-56h60v-67q0-45 1-68v-7h-1q-5 10-28 30L19 76 95 5h59v225h60zm786 216v108q0 7-5 12t-13 5H304q-8 0-13-5t-5-12V446q0-7 5-12t13-5h678q7 0 13 5t5 12zm0-285v107q0 7-5 12t-13 6H304q-8 0-13-6t-5-12V161q0-8 5-13t13-5h678q7 0 13 5t5 13z"/></svg>