<svg xmlns="http://www.w3.org/2000/svg" viewBox="0 0 1000 1000"><path d="M214 661v35q0 8-5 13t-13 5h-35q-7 0-13-5t-5-13v-35q0-8 5-13t13-5h35q8 0 13 5t5 13zm0-143v36q0 7-5 12t-13 5h-35q-7 0-13-5t-5-12v-36q0-7 5-13t13-5h35q8 0 13 5t5 13zm0-143v36q0 7-5 12t-13 6h-35q-7 0-13-6t-5-12v-36q0-7 5-13t13-5h35q8 0 13 5t5 13zm643 286v35q0 8-5 13t-13 5H304q-8 0-13-5t-5-13v-35q0-8 5-13t13-5h535q8 0 13 5t5 13zm0-143v36q0 7-5 12t-13 5H304q-8 0-13-5t-5-12v-36q0-7 5-13t13-5h535q8 0 13 5t5 13zm0-143v36q0 7-5 12t-13 6H304q-8 0-13-6t-5-12v-36q0-7 5-13t13-5h535q8 0 13 5t5 13zm72 393V304q0-8-6-13t-12-5H89q-7 0-12 5t-6 13v464q0 7 6 12t12 6h822q7 0 12-6t6-12zm71-607v607q0 37-26 63t-63 26H89q-36 0-63-26T0 768V161q0-37 26-63t63-27h822q37 0 63 27t26 63z"/></svg>