<svg xmlns="http://www.w3.org/2000/svg" viewBox="0 0 1000 1000"><path d="M187 757q-1 0-3-1-48-32-94-81T12 574Q0 557 0 536q0-5 1-11t2-10 4-10 5-9 6-9 5-9 7-8 6-9q103-140 253-203-62-111-62-118 0-11 10-16 64-36 71-36 10 0 16 9l69 128q51-11 107-11 148 0 278 77t211 206q11 17 11 39t-11 38q-51 79-122 142t-155 98q61 110 61 117 0 12-10 17-64 35-70 35-11 0-17-9l-69-128-36-66-247-458 4-3q-33 13-56 26 2 3 71 130t136 251 66 124q0 4-5 6-7 1-40 1-32 0-33-4L212 384q-22 16-46 38 14 24 120 219t106 198q0 6-6 6-8 0-46-12t-41-16l-59-110-125-230q-25 29-44 59 2 1 11 14t12 19l99 182q0 6-6 6zm463-57l28 51q152-62 251-215-101-155-257-217 38 35 58 82t20 99q0 59-26 112t-74 88zM473 357q0 11 8 19t19 8q48 0 82 34t34 82q0 11 8 19t19 8 19-8 8-19q0-70-50-120t-120-50q-11 0-19 8t-8 19zm205-36l-6-2 4 3z"/></svg>