<svg xmlns="http://www.w3.org/2000/svg" viewBox="0 0 857.1 1000"><path d="M821 71q15 0 26 11t10 25v232q0 8-5 13t-13 5h-35q-8 0-13-5t-5-13V193L667 312l78 79q5 5 5 12t-5 13l-26 25q-5 5-12 5t-13-5l-78-78-43 44q70 87 70 200 0 65-25 125t-69 102-103 69-125 26-124-26-103-69-69-102T0 607t25-125 69-102 103-69 124-25q114 0 201 70l43-44-96-96q-5-5-5-12t5-13l26-25q5-5 12-5t13 5l96 96 119-119H589q-7 0-12-5t-6-13V89q0-8 6-13t12-5h232zM321 857q104 0 177-73t73-177-73-177-177-73-176 73-74 177 74 177 176 73z"/></svg>