<svg xmlns="http://www.w3.org/2000/svg" viewBox="0 0 1071.4 1000"><path d="M857 232q0-8 5-13t13-5h161q14 0 25 11t10 25v161q0 7-5 12t-12 6h-36q-8 0-13-6t-5-12v-75L858 478q43 53 60 120t6 137q-18 102-93 175t-177 87q-118 16-215-45T304 785q-65-4-123-33t-99-74-64-107T1 442q5-75 43-140t102-107 138-50q66-8 127 11t111 57L664 71h-75q-7 0-12-5t-6-12V18q0-8 6-13t12-5h161q15 0 25 11t11 25v160q0 8-5 13t-13 5h-36q-8 0-13-5t-5-13v-74L573 264q33 41 51 94 102 5 184 69l142-141h-75q-8 0-13-5t-5-13v-36zM571 464q0-11-2-32-90 14-151 84t-61 163q0 11 2 32 91-14 152-84t60-163zm-500 0q0 94 62 164t154 83q-1-16-1-32 0-118 75-207t189-109q-30-67-92-108t-137-41q-103 0-176 74T71 464zm536 465q103 0 177-74t73-176q0-94-62-165t-154-83q2 16 2 33 0 117-75 206T379 780q30 67 91 108t137 41z"/></svg>