<svg xmlns="http://www.w3.org/2000/svg" viewBox="0 0 1000 1000"><path d="M47 195c-26 0-47 21-47 46v535c0 26 21 47 47 47h907c25 0 46-21 46-47V241c0-25-21-46-46-46H47zm281 76c57 0 109 19 151 53-35 31-61 71-74 117h20c12-38 34-72 62-98 28 26 49 60 61 98h20c-13-46-39-86-73-117 41-33 94-53 151-53 132 0 240 107 240 239S778 750 646 750c-58 0-112-21-153-56 37-32 64-75 77-125h-20c-11 42-33 78-63 107-30-29-53-65-64-107h-19c13 49 40 92 77 124-42 34-95 54-153 54-132 0-240-106-240-238s108-238 240-238zm300 168c-29 0-57 25-57 72 0 32 15 52 45 52 9 0 22-3 22-3l4-27s-12 6-20 6c-18 0-25-14-25-28 0-30 15-46 32-46 13 0 23 7 23 7l4-27s-15-6-28-6zm242 2h-25l-5 33s-10-13-24-13c-23 0-42 28-42 59 0 20 10 40 31 40 14 0 23-10 23-10l-1 8h24l19-117zm-717 1l-20 117h24l15-89 3 89h17l32-89-14 89h25l20-117h-40l-24 72-1-72h-37zm251 7c0 1-14 81-14 91 0 15 8 21 19 21 8 0 15-2 18-3h1l3-21c-2 0-4 1-7 1-8 0-9-5-9-8l7-43h13l4-23h-13l3-15h-25zm291 12c-17 0-30 6-30 6l-4 21s11-4 27-4c9 0 16 1 16 8 0 5-1 7-1 7s-7-1-10-1c-22 0-44 9-44 37 0 22 15 27 24 27 17 0 24-11 25-11l-1 9h22l9-69c0-29-25-30-33-30zm-404 0c-17 0-30 6-30 6l-4 21s11-4 27-4c9 0 16 1 16 8 0 5-1 7-1 7s-7-1-10-1c-22 0-44 9-44 37 0 22 15 27 24 27 17 0 25-11 25-11l-1 9h22l9-69c0-29-25-30-33-30zm76 0c-18 0-36 7-36 32 0 29 30 26 30 38 0 8-8 8-15 8-11 0-22-4-22-3l-3 21c1 0 7 3 28 3 5 0 37 2 37-31 0-31-30-25-30-37 0-6 5-8 14-8 3 0 17 1 17 1l3-22s-9-2-23-2zm113 0c-25 0-44 27-44 58 0 35 24 43 44 43 18 0 26-4 26-4l4-24s-14 6-26 6c-27 0-22-20-22-20h50s4-16 4-22c0-17-8-37-36-37zm91 1c-11 0-20 15-20 15l3-14h-24l-16 97h26c8-41 9-75 27-69 3-16 6-22 9-28 0 0-2-1-5-1zm210 0c-11 0-19 15-19 15l2-14h-23l-16 97h26c7-41 8-75 26-69 3-16 6-22 9-28 0 0-1-1-5-1zm-301 21c14 0 12 16 12 17h-28c0-1 2-17 16-17zm339 2c10 0 14 6 14 20 0 13-6 31-20 31-9 0-13-8-13-19 0-20 8-32 19-32zm-124 33h5c0 4-3 25-17 25-8 0-10-6-10-10 0-7 4-15 22-15zm-404 0h5c1 5-2 25-17 25-8 0-10-6-10-10 0-7 4-15 22-15z"/></svg>