<svg xmlns="http://www.w3.org/2000/svg" viewBox="0 0 857.1 1000"><path d="M732 470v63q0 14-8 22t-21 7H590q-13 0-21-7t-8-22v-63q0-14 8-21t21-8h113q14 0 21 8t8 21zM458 598V459q0-30-18-48t-48-18h-74q-38 0-53 29-16-29-54-29h-73q-29 0-47 18t-18 48v139q0 12 11 12h31q12 0 12-12V470q0-14 8-21t21-8h53q13 0 21 8t8 21v128q0 12 11 12h31q12 0 12-12V470q0-14 8-21t21-8h54q13 0 21 8t8 21v128q0 12 12 12h30q12 0 12-12zm329-53v-86q0-30-19-48t-48-18H573q-29 0-48 18t-18 48v228q0 12 12 12h31q11 0 11-12V587q18 23 53 23h106q30 0 48-18t19-47zm70-344v598q0 54-38 92t-91 38H130q-54 0-92-38T0 799V201q0-54 38-92t92-38h598q53 0 91 38t38 92z"/></svg>