<svg xmlns="http://www.w3.org/2000/svg" viewBox="0 0 1071.4 1000"><path d="M744 689q-2-14-15-19t-27-6-28-7-14-21q-3-27 19-78t41-101 18-71q-7-57-65-58-25 0-42 9l-1 1-3 2-3 1-3 1h-2l-4-1-3-2-4-3q-1-1-5-4t-5-5-4-5-6-4-5-3-6-2-7-2q-16-2-26 2t-26 17q0 1-5 5t-7 6-8 6-9 3-10-2q-30-15-46-22-23-10-53 3t-42 36q-9 16-23 55t-24 74-23 75-12 40q-12 39 11 67t61 25q17-1 28-8t22-26q4-7 44-111t43-109q3-6 12-10t16 0q15 9 12 30-1 10-28 78t-28 74q-4 21 11 31t33 4 31-27q2-5 25-52t46-91 26-49q11-17 22-16 17 0 14 21-1 9-36 83t-39 89q-7 29 7 57t41 41q10 5 29 9t39 4 35-7 11-27zM214 809q1 8-3 15t-13 9q-8 2-15-3t-8-13q-2-7 3-15t12-9 15 3 9 13zm318 147q7 9 5 21t-12 18-21 4-18-11q-6-10-4-21t11-18 21-5 18 12zM99 503q-10 15-28 18t-32-7q-14-10-18-28t7-32q10-15 28-19t32 7q14 11 18 28t-7 33zm720 378q10 15 7 34t-19 29-34 8-29-19-7-35 19-29q15-11 33-7t30 19zm62-338q39 64 24 137t-75 116q-50 35-111 33-11 45-47 71t-80 25-79-32q-6 5-7 5-57 40-125 28t-108-71q-28-41-30-92-46-7-79-39t-45-71-1-85 45-78q-20-33-21-71t13-70 45-55 67-28q18-47 56-82t81-52 94-9 89 37q40-12 78-10t72 20 58 45 38 64 10 79q29 9 48 31t26 50-3 56-33 48zM254 175q8 11 5 25t-13 21q-11 8-25 6t-21-14q-7-11-5-25t14-21q10-8 24-5t21 13zm89-157q2 9-3 17t-15 11-17-3-10-15q-2-10 4-17t14-10q9-3 17 3t10 14zm662 529q2 12-4 21t-17 12q-11 2-20-4t-12-17 4-21 17-12q11-2 20 4t12 17zM634 49q9 15 5 33t-20 26q-15 9-32 5t-26-19q-9-16-5-33t19-27 33-5 26 20zm416 366q3 8-2 15t-13 10q-8 1-15-3t-9-13q-1-8 3-16t13-8q8-2 15 2t8 13zM944 281q8 12 6 27t-15 24q-13 8-28 6t-23-16-6-27 15-24 28-6 23 16z"/></svg>