<svg xmlns="http://www.w3.org/2000/svg" viewBox="0 0 857.1 1000"><path d="M107 714v72H45q-9 0-9-9v-9H9q-9 0-9-9v-18q0-9 9-9h27v-9q0-9 9-9h62zm0-143v72H45q-9 0-9-9v-9H9q-9 0-9-9v-18q0-9 9-9h27v-9q0-9 9-9h62zm0-142v71H45q-9 0-9-9v-9H9q-9 0-9-9v-18q0-9 9-9h27v-9q0-8 9-8h62zm0-143v71H45q-9 0-9-9v-9H9q-9 0-9-9v-18q0-8 9-8h27v-9q0-9 9-9h62zm0-143v71H45q-9 0-9-9v-9H9q-9 0-9-9v-17q0-9 9-9h27v-9q0-9 9-9h62zm607-89v821q0 22-15 38t-38 16H196q-22 0-37-16t-16-38V54q0-23 16-38t37-16h465q22 0 38 16t15 38zm143 687v18q0 9-9 9h-27v9q0 9-8 9h-63v-72h63q8 0 8 9v9h27q9 0 9 9zm0-143v18q0 9-9 9h-27v9q0 9-8 9h-63v-72h63q8 0 8 9v9h27q9 0 9 9zm0-143v18q0 9-9 9h-27v9q0 9-8 9h-63v-71h63q8 0 8 8v9h27q9 0 9 9zm0-143v18q0 9-9 9h-27v9q0 9-8 9h-63v-71h63q8 0 8 9v9h27q9 0 9 8zm0-142v17q0 9-9 9h-27v9q0 9-8 9h-63v-71h63q8 0 8 9v9h27q9 0 9 9z"/></svg>