<svg xmlns="http://www.w3.org/2000/svg" viewBox="0 0 1285.7 1000"><path d="M1284 578q7 58-12 111t-55 91-89 59-110 18q-89-7-156-70t-75-153q-6-62 16-118t66-95l-40-59q-53 44-84 108t-31 136q0 15-10 26t-25 11H497q-13 91-83 153t-164 61q-103 0-177-73T0 607t73-177 177-73q42 0 85 15l13-25q-68-61-169-61h-36q-15 0-25-11t-11-25 11-25 25-11h71q44 0 81 8t65 21 40 22 29 21h350l-48-72H607q-17 0-27-12t-8-30q2-12 13-21t24-8h141q18 0 30 15l39 59 63-64q11-10 26-10h56q15 0 25 10t11 26v71q0 14-11 25t-25 11H864l65 96q73-36 153-20 80 14 136 75t66 141zM250 786q64 0 113-41t62-102H250q-19 0-31-17-10-18 0-36l82-154q-26-7-51-7-74 0-126 52T71 607t53 126 126 53zm786 0q73 0 126-53t52-126-52-126-126-52q-34 0-68 13l97 145q9 13 6 27t-15 23q-9 6-20 6-20 0-30-16l-97-145q-52 53-52 125 0 74 53 126t126 53z"/></svg>