<svg xmlns="http://www.w3.org/2000/svg" viewBox="0 0 1000 1000"><path d="M141 0C63 0 0 63 0 141v718c0 78 63 141 141 141h718c78 0 141-63 141-141V141c0-78-63-141-141-141H141zm381 102c114 0 206 92 206 206 0 113-92 206-206 206-113 0-205-93-205-206 0-114 92-206 205-206zm-2 121c-46 1-83 39-83 85 0 47 38 85 85 85s86-38 86-85-39-85-86-85h-2zM352 521c11 0 22 3 32 9 84 53 193 53 277 0 28-18 65-9 83 19s9 65-19 83c-37 23-77 40-119 49l115 116c23 23 23 61 0 85-24 23-62 23-85 0L522 769 409 882c-11 12-27 18-42 18-16 0-31-6-43-18-23-24-23-62 0-85l115-116c-42-9-82-26-119-49-28-18-37-55-19-83 11-18 30-28 49-28h2z"/></svg>