<svg xmlns="http://www.w3.org/2000/svg" viewBox="0 0 714.3 1000"><path d="M357 506q-105 0-179-74t-74-179q0-105 74-179T357 0t179 74 75 179q0 105-75 179t-179 74zm0-378q-51 0-88 37t-36 88q0 52 36 88t88 37 88-37 37-88q0-52-37-88t-88-37zm292 409q7 15 8 27t-2 23-15 21-24 21-34 23q-64 41-176 53l41 40 149 149q17 17 17 41t-17 41l-7 7q-17 17-41 17t-41-17L358 834 209 983q-18 17-42 17t-40-17l-7-7q-17-17-17-41t17-41l149-149 40-40q-113-12-177-53-21-14-34-23t-24-21-15-21-2-23 8-27q6-11 16-20t23-12 32 1 36 20q3 2 8 6t24 13 39 17 51 14 63 6q51 0 97-14t67-28l21-14q19-15 37-20t31-1 23 12 16 20z"/></svg>