<svg xmlns="http://www.w3.org/2000/svg" viewBox="0 0 857.1 1000"><path d="M517 324q0 36-26 62t-62 26-63-26-26-62 26-63 63-26 62 26 26 63zm120 202q-6-11-16-18t-26-5-34 15q-6 5-16 12t-46 17-70 12-70-11-48-20l-15-10q-17-14-33-15t-27 5-16 18q-12 25-1 42t49 41q46 29 126 37l-28 29q-80 79-107 106-12 12-12 29t12 30l5 5q12 12 29 12t30-12l106-107 107 107q12 12 29 12t29-12l5-5q13-12 13-30t-13-29L493 675l-29-29q78-8 125-37 38-25 49-41t-1-42zm-28-202q0-75-53-128t-127-53-128 53-53 128 53 127 128 53 127-53 53-127zm248-92v536q0 66-47 113t-114 48H161q-67 0-114-48T0 768V232q0-66 47-113t114-48h535q67 0 114 48t47 113z"/></svg>