<svg xmlns="http://www.w3.org/2000/svg" viewBox="0 0 1281.3 1000"><path d="M267 935q-5 9-15 19t-21 14q-14 5-29-2t-16-17q0-13 23-31t38-21q13-2 19 12t1 26zm748 0q4 9 15 19t21 14q14 5 29-2t15-17q1-13-22-31t-38-21q-13-2-19 12t-1 26zm27-61q7 15 31 33t44 23q25 8 45-2t21-28q0-26-38-57t-64-33q-22-3-35 21t-4 43zm-803 0q-7 15-31 33t-43 23q-25 8-46-2t-21-28q0-26 38-57t64-33q23-3 36 21t3 43zm407-627h1q-23 0-43 8 15 4 25 17t9 28q0 19-15 33t-36 14q-29 0-45-24-2 13-2 23 0 42 31 71t75 29q45 0 76-29t31-71-31-70-76-29zm170-122q-55-61-123-73T556 76q15-33 46-53t66-22 68 9 55 42 25 73zm418 691q5 6-6 24 4 13 4 22 1 31-25 63t-61 51-66 21q-26 1-51-12t-37-37q-383 14-702 0-13 23-37 36t-52 13q-48-2-100-45t-52-90q1-12 4-22-11-18-6-24 3-5 17 0 8-12 23-29-4-16 1-21 6-5 22 2 16-11 33-19 0-16 7-20 13-7 29 9 19-3 34 1 10 2 21 10v-40q-6 0-10-1-30-6-54-25t-31-49q-5-21 0-45 8-35 52-53 1-10 11-20t20-13 18 4 11 17h7q26 3 33 13 2 1 3 4 6-1 17-2t17-2q-8-6-17-10-12-22-50-24v-5q-34-1-66-11t-47-26q-18-20-24-51t-1-63q9-70 50-100 13-9 29-2t18 22q0 1 1 8t1 12 2 11 3 11 5 5q15 8 42 7 27-26 55-41-23-3-91 7l27-25q34-33 91-62 80-41 157-48-11-5-23-9t-26-8-24-6-26-6-24-5q332-71 504 77 55 47 88 124 48 6 68-5 3-2 5-5t3-11 2-11 1-12l1-8q2-15 18-22t29 3q41 29 51 99 4 32-2 63t-24 51q-16 18-47 27t-64 10v6q-40 1-53 24-8 3-17 9 6 1 17 2t17 2q1-3 3-4 9-10 33-13h8q3-10 10-17t19-4 20 13 10 20q45 18 52 53 5 22 1 45-7 29-31 49t-54 25q-6 1-10 1 0 27-1 40 12-8 22-10 14-4 34-1 15-16 28-9 8 5 8 20 18 9 33 19 15-7 21-2 6 6 1 21 16 17 23 29 13-5 17 0zm-153-531q0 16-5 30 46 18 62 74 3-21-5-55t-23-51q-11-10-20-9t-9 11zm-44 56q20 23 27 60t0 70q37-7 54-25 7-8 10-16-2-36-17-64t-45-37q-8 9-29 12zm-20 2h-25q24 64 30 133 12 0 24-2 9-38 0-75t-29-56zm-873 46q17-56 63-74-5-14-5-30 0-10-10-11t-20 9q-15 17-23 51t-5 55zm20 57q16 17 54 25-7-32 0-70t26-60q-20-3-29-12-28 9-43 37t-18 64q5 10 10 16zm99 30q8-69 41-131-11 2-31 10l-25 10q-26 50-11 109 14 2 26 2zm537 22q5 21 9 60t7 50q2 10 5 12t13-2q23-11 35-48t13-70q-14-1-82-2zM643 140q-65 0-111 46t-46 111q0 65 46 111t111 46 111-46 46-111q0-65-46-111t-111-46zm127 357q-58-2-118 0v-1q0 15 2 48t7 37q17 8 52 8t54-6q5-2 6-22t0-38-3-26zM621 608q4-3 5-27t0-49-3-35v-1q-118 2-119 2-2 11-4 34t0 47 8 25q19 9 56 9t57-5zM401 502q-9 33 2 66t43 47q9 5 14 3t7-11q1-9 4-51t6-57q-39 1-76 3zm-71 70q2 13-19 21 74 78 151 134t171 85q96-27 173-81t164-140q-18-7-17-19v-1l1-2 1-2q-10-1-28-3t-27-2q-14 50-46 74-28 21-45-1-3-3-5-8-4-7-10-34-1 2-3 5t-4 4-4 3-6 2l-5 1-7 1-7 1-7 1h-8q-59 5-91-6-2 9-5 15t-12 8-13 4-20 2h-5q-100 10-113-22-1 35-31 30-27-4-51-30-7-7-11-14-10-17-15-37l-48 6q0 1 2 5zm-47 351q2-8 2-17-10-39-29-72t-41-39q-22-7-56 8t-59 44-21 60q19 30 56 52t66 24q28 1 52-16t30-44zm2-95q12 35 15 66 109-63 218-97-54-29-100-67t-100-92q-4 2-17 7v2q0 1-1 3 18 10 13 21-7 13-32 19-5 7-16 13-2 46 0 84 11 19 20 41zm38 92q297 12 639 0-142-82-239-109-42 19-87 32-4 1-9 0-36-12-72-28-116 34-232 105v0zm661-25q2-31 15-67 8-22 19-40h-1q2-43 2-85-8-4-17-14-23-5-31-18-5-11 12-21-1-3-1-6-9-2-15-6-114 106-214 158 110 33 231 99zm219 12q2-30-22-60t-58-44-57-8q-21 6-41 39t-28 72q0 9 1 17 6 27 30 44t52 16q31-1 67-24t56-52z"/></svg>