<svg xmlns="http://www.w3.org/2000/svg" viewBox="0 0 785.7 1000"><path d="M782 615q-17 45-42 77t-51 50-55 26-57 8-54-5-48-12-39-15-25-13l-10-6q-63 128-161 201t-215 74q-10 0-18-7t-7-18 7-18 18-7q97 0 180-60t140-164q-20 8-40 13t-46 7-51-1-52-16-51-33-47-56-42-81q64-27 120-32t93 4 70 31 49 43 32 46q29-73 44-162-4 0-10 1t-26 2-39-1-46-5-49-13-47-24-42-36-30-53-16-71q39-16 74-20t63 0 52 17 41 28 31 34 23 35 16 31 9 22l2 9q6-68 6-109-4-3-12-8t-27-25-35-40-30-52-19-63 7-71 39-77q41 14 71 34t47 43 27 47 11 50 0 48-7 42-11 35-9 23l-4 9v68l5-10q3-6 17-24t29-33 39-31 51-25 63-8 74 14q-1 43-12 79t-28 58-39 40-45 25-48 14-44 5-38-1-26-2l-9-2q-13 82-41 158 3-4 10-10t28-23 43-29 55-24 66-11 72 13 76 43z"/></svg>