<svg xmlns="http://www.w3.org/2000/svg" viewBox="0 0 857.1 1000"><path d="M714 666q0-6-1-9t-10-9-22-14-27-15-25-14-16-9q-3-1-11-7t-14-8-11-3q-9 0-21 12t-22 25-21 25-19 11q-4 0-9-2t-9-3-9-6-8-4q-55-31-95-71t-71-95q-1-2-5-8t-5-9-4-9-2-9q0-8 12-19t25-22 25-22 11-20q0-6-2-12t-9-14-7-10l-8-16q-6-12-14-25t-15-27-14-23-9-10-9-1q-27 0-56 13-26 11-45 52t-19 73q0 9 1 19t3 17 5 18 6 17 7 18 6 17q33 92 121 179t178 121q4 1 17 6t19 7 16 5 19 5 17 3 19 2q31 0 72-19t53-45q12-30 12-56zm143-434v536q0 66-47 113t-114 48H161q-67 0-114-48T0 768V232q0-66 47-113t114-48h535q67 0 114 48t47 113z"/></svg>