<svg xmlns="http://www.w3.org/2000/svg" viewBox="0 0 857.1 1000"><path d="M584 569q0 36-21 61t-51 25q-24 0-39-8V492q15-9 39-9 29 0 51 25t21 61zM392 330q0 36-21 61t-51 26q-24 0-39-9V254q16-10 39-10 30 0 51 25t21 61zm314 241q0-75-49-128t-119-53q-11 0-22 2-13 43-43 76-49 53-118 56v355l118-23V741q28 11 65 11 70 0 119-53t49-128zM515 333q0-75-50-128t-119-53q-41 0-79 20H164v469l117-23V503q31 10 65 10 70 0 119-53t50-127zm342-101v536q0 66-47 113t-114 48H161q-67 0-114-48T0 768V232q0-66 47-113t114-48h535q67 0 114 48t47 113z"/></svg>