<svg xmlns="http://www.w3.org/2000/svg" viewBox="0 0 1285.7 1000"><path d="M1286 0q-39 26-70 51t-50 45-33 40-21 32-12 25-8 17q-5 10-20 76t-27 92q-8 16-28 34t-37 28-41 23-27 15q-26 17-84 129-190-8-351 88-52 30-169 100 26-9 48-17t30-12l9-4q39-15 91-36t74-30 60-19 80-18q104-17 259 4 1 0 6 2 6 3 8 9t-2 12L863 879q-9 16-26 12-72-13-198-13-81 0-224 25t-219 26q-46 0-83-8t-60-20-34-23-18-19H0v-1q0-4 3-4 77 0 207-30 108-205 209-293t214-88h9q6 0 21 3t30 7 35 13 35 23 30 32 22 46l57-98q1-3 12-24t25-48 34-61 47-75 56-76q37-46 71-79t68-54 52-30 49-22z"/></svg>