<svg xmlns="http://www.w3.org/2000/svg" viewBox="0 0 1137.3 1000"><path d="M682 518q42-1 80 12t66 32 56 53 47 60 42 68q19 31 44 61t42 44 55 50q-26 17-60 32t-77 33-64 26q-25-20-41-64t-25-92-18-100-24-94-40-69-69-27l-5 1-3 2q2 3 7 8 3 3 15 13t15 12 10 11 10 11 7 12 6 15 2 17 2 23l1 18q0 15-2 32t-4 29-7 33-6 30q-20-1-56 5t-55 6q-22 0-40-6-1-9-1-26 0-41 1-54 1-7 18-23t32-33 14-28q-13-1-24 13-20 30-62 56t-76 25q-14 0-42-35t-60-78-46-53q-4-3-15-17-269 62-287 62-9 0-15-6t-7-15q0-8 5-15t12-8l271-59q-4-8-4-14t3-10 9-6 11-4 13-2 10-3q3 0 9-4t10-4q8 0 15 9t11 19q91-21 96-21 10 0 17 6t7 16q0 8-5 14t-13 8l-102 22v9q-1 15 45 66t59 51q26 0 66-45t40-72q0-20-13-29t-28-11-29-6-13-19q0-9 6-19l-38-11q24-24 24-65 0-14-3-32 46-9 80-9 25 0 40 1t27 4 18 8 11 14 9 18 9 27 14 33l27-14q-1 23-12 34t-24 12-22 3-10 12zm33-131q-2-3-7-8t-7-9-6-6-5-6l-5-4-4-4-5-3-5-3q-4-1-8-3t-11-1-12 0h-40q-70 0-121 24 9-17 20-26t31-17 36-20 26-20 28-31 24-28q7 5 16 18t18 20 21 7h6v42l13 1q138-53 207-106 15-12 28-22t23-21 19-17 16-19 14-18 13-20 13-21 15-27 17-30l4-5q-2 30-24 78-45 92-115 147t-171 80q-7 1-23 4t-28 5-22 8q2 10 14 26t12 18q0 7-15 17zM592 901q22-14 74-26t81-12q5 0 13 8t15 24 15 28 13 29 8 18q-67 25-136 25-34 0-69-6zM459 540l27-7 60 99-40 27zm279 289q2 8 2 9 0 3-10 8t-25 7-31 5-29 4-18 3l-4-24q12-1 34-5t40-5 34-2h7zM483 478l-53 11-4-9q6-1 19-4t19-3q10 0 19 5zm109 354h17l6 46-23 7v-53zM1088 1V0v1zm0 0v2l-1 1V3zm0 0l1-1z"/></svg>