<svg xmlns="http://www.w3.org/2000/svg" viewBox="0 0 714.3 1000"><path d="M0 333q0-60 21-113t58-93 85-69 103-44T380 0q88 0 164 37t123 108 47 160q0 54-10 105t-34 99-56 83-80 58-106 21q-38 0-75-18t-54-49q-5 22-15 63t-14 53-11 40-15 39-17 35-26 44-35 48l-7 3-5-6q-9-88-9-105 0-51 12-115t37-161 29-113q-18-36-18-94 0-47 29-87t74-41q34 0 53 23t19 57q0 37-24 106t-25 105q0 35 25 58t61 23q31 0 57-14t44-38 31-53 21-61 11-62 4-56q0-96-61-150T364 91q-111 0-186 72t-75 183q0 25 7 48t15 36 15 26 7 17q0 15-8 40t-21 25q-1 0-9-1-29-9-51-31t-34-53-18-60-6-60z"/></svg>