<svg xmlns="http://www.w3.org/2000/svg" viewBox="0 0 857.1 1000"><path d="M857 500q0 117-57 215T644 871t-215 58q-62 0-122-18 33-52 43-92 6-19 31-118 11 22 40 38t64 16q68 0 121-38t82-105 29-151q0-64-34-120t-96-90-142-36q-59 0-110 17t-86 43-61 61-37 72-12 75q0 58 22 102t66 62q16 7 21-11 1-4 4-17t5-17q3-13-6-24-29-34-29-84 0-84 58-145t153-61q84 0 132 46t47 119q0 95-39 161t-98 67q-34 0-54-25t-13-58q4-19 15-52t17-57 6-43q0-28-15-46t-43-18q-35 0-59 31t-24 80q0 40 14 68l-55 233q-9 39-7 99-115-51-186-157T0 500q0-117 58-215t155-156 216-58 215 58 156 156 57 215z"/></svg>