<svg xmlns="http://www.w3.org/2000/svg" viewBox="0 0 857.1 1000"><path d="M696 71q67 0 114 48t47 113v536q0 66-47 113t-114 48H292q47-68 60-118 5-19 30-116 11 21 41 37t63 16q101 0 164-83t64-208q0-47-19-91t-54-77-85-54-110-21q-58 0-109 16t-85 43-60 61-37 71-12 74q0 57 22 101t65 61q7 3 13 0t8-10q6-25 9-35 3-12-7-23-28-35-28-84 0-83 58-143t151-59q83 0 130 45t47 117q0 94-38 160t-97 66q-33 0-54-25t-13-57q5-19 15-52t16-57 6-42q0-27-14-45t-42-18q-34 0-58 31t-24 78q0 40 13 68l-54 231q-14 56-4 142H161q-67 0-114-48T0 768V232q0-66 47-113t114-48h535z"/></svg>