<svg xmlns="http://www.w3.org/2000/svg" viewBox="0 0 857.1 1000"><path d="M555 665q0 48-10 110-17 120-30 175-13 50-85 50t-85-50q-13-55-31-175-9-61-9-110 0-94 125-94t125 94zm302-236q0 133-75 242T587 827q-4 2-8-2t-4-8q4-27 6-37 2-18 3-26 1-5 5-7 89-45 143-130t54-188q0-101-51-185T597 113 409 72q-69 4-132 34t-108 78-72 113-26 134q1 103 56 188t143 129q4 2 5 7 2 12 4 25 0 5 2 18t4 20q0 5-4 8t-9 2q-82-33-145-95T30 586 1 407q4-79 36-152t87-127 125-88T401 1q92-6 176 26t146 90 98 139 36 173zm-302-18q0 52-37 88t-88 37-89-37-36-88 36-89 89-36 88 36 37 89zm160 18q0 68-29 127t-82 99q-5 3-9 1t-6-8q-3-29-16-51-4-6 2-11 32-30 51-71t18-86q0-62-33-114t-88-79-118-21q-74 9-128 63t-60 129q-6 52 13 99t55 80q5 5 1 11-13 23-16 52-1 5-5 7t-9-1q-53-41-83-102t-29-131q2-73 39-136t98-101 135-42q80-4 149 34t110 104 40 148z"/></svg>