<svg xmlns="http://www.w3.org/2000/svg" viewBox="0 0 928.6 1000"><path d="M929 613q0 45-25 75t-69 30q-23 0-43-10t-33-21-32-21-39-10q-62 0-62 69 0 22 9 65t8 64v3h-18q-19 2-54 7t-65 7-54 3q-35 0-58-15t-23-47q0-20 9-39t22-32 21-33 10-43q0-44-31-69t-75-25q-47 0-80 26t-33 71q0 24 9 46t18 36 19 30 8 28q0 25-25 50-21 19-65 19-54 0-137-13-5-1-16-2t-15-3l-7-1H1q-1 0-1-1V286q1 0 10 2t19 2 12 2q83 14 137 14 44 0 65-20 25-24 25-49 0-13-8-29t-19-29-18-36-9-47q0-45 33-71t81-25q44 0 74 25t31 69q0 23-10 43t-21 33-22 31-9 40q0 32 23 47t58 14q35 0 100-8t91-9v1q-1 1-2 9t-3 19-2 12q-13 84-13 137 0 45 19 65 25 26 50 26 12 0 28-8t30-19 36-19 46-8q46 0 71 33t26 80z"/></svg>