<svg xmlns="http://www.w3.org/2000/svg" viewBox="0 0 1000 1000"><path d="M700 439q0-177-58-265T458 87q-124 0-182 88t-58 264q0 176 58 263t182 87q41 0 73-9-13-24-22-41t-25-36-29-32-36-20-43-8q-26 0-44 9l-27-54q58-51 154-51 73 0 120 30t84 86q37-83 37-224zm218 353h65q2 15-1 37t-15 53-32 56-60 44-90 18q-40 0-73-11t-59-31-44-43-37-54q-54 15-114 15-84 0-164-32t-141-89-99-139-38-177q0-95 38-178t100-140 141-89T458 0q67 0 133 20t121 59 98 92 67 122 24 146q0 106-45 194T734 781q26 39 52 59t58 21q34 0 53-21t21-48z"/></svg>