<svg xmlns="http://www.w3.org/2000/svg" viewBox="0 0 1214.3 1000"><path d="M638 967q-3 0-6-2-8-5-20-13t-48-36-65-59-63-78-50-96q-9-2-97-21 36 119 131 202t218 103zM280 629l94 15q-14-42-23-93t-11-81l-2-30q-47 46-67 125 2 37 9 64zm62-340q-24 36-43 83 24-26 41-38zm801 242q0-90-34-171t-94-141-139-94-170-35q-82 0-157 30t-134 83q-17 32-25 89 34-29 80-47t88-24 80-7 61 0l22 2q18 0 30 9t13 18 4 21-1 16q-70-7-127-1t-102 25-79 39-73 55q2 20 6 52t20 99 34 101q69 3 139-9t119-29 91-38 61-33l21-13q12-9 22-12t17 3 9 19q8 55-21 68-117 54-261 75-75 11-177 9 23 53 61 98t77 71 73 44 56 25l22 6q80 13 147-8 109-55 175-162t66-233zm42-20q-8 75-23 118-39 116-101 193T883 964q-26 18-45 24-41 15-91 9-20 2-41 2-158 0-282-97T260 656q-1 0-3-1t-2 0q-4 28 1 63t14 64 21 55 17 40l8 14q4 7 30 46-40-21-69-59t-44-79-22-76-10-60l-1-24q-3-1-19-7t-27-10-30-11-32-14-27-14-24-15-14-14l28 14q18 9 63 25t81 21l1-18q7-83 53-161 23-113 98-204 16-64 45-119 9-16 18-26t27-17q89-42 170-58t168-7 171 55q123 64 186 187t49 265z"/></svg>