<svg xmlns="http://www.w3.org/2000/svg" viewBox="0 0 1000 1000"><path d="M467 652l-9 206-1 12-234-16q-20-2-38-18t-26-36q-6-15-8-31t2-36 7-31 12-36 11-29q43 6 284 15zM251 325l100 212-82-52q-35 41-62 81t-41 70-22 53-10 35l-2 11L26 536q-10-14-10-31t3-26l4-10q20-35 64-105L9 316zm687 289L833 814q-7 16-21 26t-24 12l-10 2q-40 4-122 7l4 91-128-205 118-202 4 97q94 9 157 2t95-18zM499 98q-26 35-147 243L175 237l-11-7L290 31q11-17 33-25t45-5q13 1 27 6t23 12 23 18 21 20 20 22 17 19zm366 171l118 203q10 21 7 42t-15 42q-7 11-18 20t-22 16-27 12-26 9-29 8-25 7q-19-40-148-244l174-108zm-80-126l79-46-122 208-234-11 84-48q-19-50-42-93t-42-69-36-44-26-26l-10-7h226q18-1 33 6t22 16l6 8q21 34 62 106z"/></svg>