<svg xmlns="http://www.w3.org/2000/svg" viewBox="0 0 1000 1000"><path d="M1000 472q0 32-16 59t-45 40q7 26 7 54 0 86-60 160T724 902t-223 42-223-42-162-117-59-160q0-26 6-53-28-13-46-41T0 472q0-46 32-78t79-33q48 0 81 35 122-85 287-90l65-291q2-7 9-12t14-2l206 45q10-21 30-33t44-13q35 0 59 24t25 59-25 59-59 25-59-24-24-59L578 42l-58 264q167 5 289 89 33-34 80-34 46 0 79 33t32 78zM233 583q0 35 25 59t58 25 60-25 24-59-24-59-60-24q-34 0-58 25t-25 58zm452 198q6-6 6-14t-6-15q-5-5-14-5t-14 5q-23 24-68 35t-89 11-89-11-68-35q-6-5-14-5t-14 5q-6 6-6 14t6 15q24 24 66 38t68 17 51 2 51-2 68-17 66-38zm-1-114q34 0 59-25t24-59q0-34-25-58t-58-25q-35 0-60 24t-24 59 24 59 60 25z"/></svg>