<svg xmlns="http://www.w3.org/2000/svg" viewBox="0 0 857.1 1000"><path d="M524 630q7 7 0 14-30 30-95 30t-96-30q-7-7 0-14 3-3 7-3t8 3q23 23 81 23t81-23q2-3 7-3t7 3zm-147-87q0 17-13 30t-30 13-30-13-13-30q0-18 13-30t30-13 31 13 12 30zm189 0q0 17-13 30t-30 13-30-13-13-30q0-18 13-30t30-13 30 13 13 30zm120-58q0-23-17-40t-41-16q-23 0-40 17-63-44-149-46l30-136 95 22q1 18 13 30t30 13q18 0 31-13t12-30-12-31-31-12q-27 0-38 24l-106-24q-9-3-11 8l-34 149q-86 3-148 46-17-17-41-17t-41 16-17 40q0 17 9 31t24 21q-3 14-3 27 0 68 67 116t161 49q95 0 162-49t67-116q0-14-3-27 14-7 22-21t9-31zm171-253v536q0 66-47 113t-114 48H161q-67 0-114-48T0 768V232q0-66 47-113t114-48h535q67 0 114 48t47 113z"/></svg>