<svg xmlns="http://www.w3.org/2000/svg" viewBox="0 0 1000 1000"><path d="M611 651q9 9 0 17-34 35-111 35t-111-35q-9-8 0-17 3-3 8-3t9 3q27 28 94 28t94-28q4-3 9-3t8 3zM440 550q0 21-15 35t-35 15-35-15-15-35q0-21 15-36t35-14 35 15 15 35zm220 0q0 21-15 35t-35 15-35-15-15-35 15-35 35-15 35 14 15 36zm140-67q0-27-19-47t-48-19-48 20q-72-50-173-54l35-158 112 26q0 20 14 35t35 14 36-15 14-35-14-35-36-15q-30 0-44 28l-124-28q-10-3-14 9l-38 174q-101 4-173 54-19-20-48-20-28 0-48 19t-19 47q0 20 10 36t28 24q-4 16-4 32 0 79 79 135t188 57q110 0 188-57t78-135q0-18-4-32 17-8 27-24t10-36zm200 17q0 102-40 194T854 854 694 960t-194 40-194-40-160-106T40 694 0 500t40-194 106-160T306 40 500 0t194 40 160 106 106 160 40 194z"/></svg>