<svg xmlns="http://www.w3.org/2000/svg" viewBox="0 0 1000 1000"><path d="M582 392q0-49-34-67-18-10-65-10h-69v156h91q36 0 56-20t21-59zm29 159l114 208q4 10-1 18-4 9-15 9h-85q-11 0-15-10L501 572h-87v196q0 8-5 13t-13 5h-75q-7 0-12-5t-5-13V232q0-8 5-13t12-5h165q71 0 106 14 47 17 74 60t28 101q0 51-24 92t-64 61q3 6 5 9zM500 89q-84 0-160 33t-130 87-88 131-33 160 33 160 88 130 130 88 160 33 160-33 131-88 87-130 33-160-33-160-87-131-131-87-160-33zm500 411q0 102-40 194T854 854 694 960t-194 40-194-40-160-106T40 694 0 500t40-194 106-160T306 40 500 0t194 40 160 106 106 160 40 194z"/></svg>