<svg xmlns="http://www.w3.org/2000/svg" viewBox="0 0 1000 1000"><path d="M143 750q0-15-11-25t-25-11-25 11-11 25 11 25 25 11 25-11 11-25zm786-321q0-29-22-50t-50-22H536q0-11 8-27t19-31 18-38 8-47q0-37-24-54t-65-17q-13 0-50 77-14 25-21 37-22 35-62 81-40 45-57 59-38 32-78 32h-18v357h18q40 0 93 18t108 35 101 18q105 0 105-93 0-15-3-31 17-9 27-30t9-41-10-38q30-28 30-67 0-14-6-31t-14-26h185q29 0 50-21t22-50zm71-1q0 59-42 101t-101 42h-94q-2 35-21 67 2 12 2 24 0 56-34 99 1 78-47 123t-127 45q-74 0-179-39-92-33-125-33H71q-29 0-50-21T0 786V429q0-30 21-51t50-21h161q6 0 12-2t13-8 13-10 13-13 12-12 10-12 8-9q36-42 56-72 7-12 18-35t21-40 23-35 30-28 39-10q70 0 115 38t46 105q0 38-13 72h209q58 0 101 42t42 100z"/></svg>