<svg xmlns="http://www.w3.org/2000/svg" viewBox="0 0 857.1 1000"><path d="M286 714q0-29-21-50t-51-21-50 21-21 50 21 51 50 21 51-21 21-51zm196 53q-8-130-99-222t-221-98q-8-1-14 5t-5 13v71q0 7 5 12t12 6q86 6 147 68t67 147q1 7 6 12t12 5h72q7 0 13-6t5-13zm214 0q-3-86-31-166t-78-145-115-114-145-78-166-31q-7-1-13 5-5 5-5 13v71q0 7 5 12t12 6q114 4 211 62t156 155 62 211q0 8 5 13t13 5h71q7 0 13-6 6-5 5-13zm161-535v536q0 66-47 113t-114 48H161q-67 0-114-48T0 768V232q0-66 47-113t114-48h535q67 0 114 48t47 113z"/></svg>