<svg xmlns="http://www.w3.org/2000/svg" viewBox="0 0 1000 1000"><path d="M530 498q0 15-10 25t-23 11q-14 0-25-9t-10-23q0-15 9-25t23-11 25 9 11 23zm8 33l195-325q-5 5-37 35t-70 65-77 71-65 62-28 29L261 791q4-4 38-34t70-65 76-71 65-62 28-28zm361-31q0 112-58 207-2-1-9-6t-15-9-9-5q-8 0-8 8 0 5 33 24-41 63-103 107t-135 61l-8-37q-1-6-9-6-3 0-4 3t-1 6l9 38q-41 8-82 8-111 0-208-59 1-1 8-11t12-19 5-10q0-8-7-8-4 0-10 8t-12 20-8 13q-63-42-107-105t-61-137l38-8q6-2 6-8 0-3-3-5t-6-1l-38 9q-8-41-8-78 0-115 61-212 1 1 10 7t17 11 10 4q7 0 7-6 0-4-7-9t-18-12l-11-7q43-62 105-105t136-60l9 37q1 6 8 6 3 0 5-3t1-6l-9-37q40-7 75-7 114 0 212 61-22 31-22 36 0 7 6 7 7 0 27-35 62 41 105 103t60 135l-31 7q-6 1-6 8 0 3 3 5t5 1l32-7q8 40 8 78zm47 0q0-91-35-174t-95-142-142-95-174-35-173 35-143 95-95 142-35 174 35 173 95 143 143 95 173 35 174-35 142-95 95-143 35-173zm54 0q0 102-40 194T854 854 694 960t-194 40-194-40-160-106T40 694 0 500t40-194 106-160T306 40 500 0t194 40 160 106 106 160 40 194z"/></svg>