<svg xmlns="http://www.w3.org/2000/svg" viewBox="0 0 1000 1000"><path d="M536 500q14 0 25 11t10 25-10 25-25 10-25-10-11-25 11-25 25-11zm167 36l283 222q16 11 14 31-3 20-19 28l-72 36q-7 4-16 4-10 0-17-4L491 637l-62 36q-4 3-7 3 8 28 6 54-4 43-31 83t-74 69q-74 47-154 47-76 0-124-44-51-47-44-116 4-42 31-82t73-69q74-47 155-47 46 0 84 18 5-8 13-13l68-40-68-41q-8-5-13-12-38 17-84 17-81 0-155-47-46-30-73-69T1 302q-3-33 8-63t36-52q47-44 124-44 80 0 154 47 46 29 74 68t31 83q2 27-6 54 3 1 7 3l62 37 385-216q7-5 17-5 9 0 16 4l72 36q16 9 19 28 2 20-14 32zM323 391q26-24 12-61t-59-65q-52-33-107-33-42 0-63 20-26 24-12 60t59 66q51 33 107 33 41 0 63-20zm-47 415q45-28 59-65t-12-60q-22-20-63-20-56 0-107 33-45 28-59 65t12 60q21 20 63 20 55 0 107-33zm99-342l54 33v-7q0-20 18-31l8-4-44-26-15 14q-1 2-5 6t-7 7l-2 2q-1 1-2 1zm125 125l54 18 410-321-71-36-429 240v64l-89 53 5 5q1 1 4 3 2 2 6 7t6 6l15 15zm393 232l71-35-290-228-99 77q-1 2-7 4z"/></svg>