<svg xmlns="http://www.w3.org/2000/svg" viewBox="0 0 857.1 1000"><path d="M837 864q0 50-35 86t-85 35-86-35-36-86q0-50 36-85t86-36 85 36 35 85zM707 708q-64 8-107 57t-44 115q0 41 19 77-82 43-212 43-60 0-112-12t-85-30-62-43-43-47-24-47-14-37-3-22q0-10 3-23t10-32 20-32 36-24 53-10 52 9 35 23 20 30 10 27 2 19q0 19-13 45 16 15 46 23t52 10l22 1q65 0 106-29t42-74q0-15-5-27t-17-25-28-23-41-24-52-27-67-32q-16-7-24-11-65-30-104-55t-69-57-40-70-11-91q0-44 11-84t37-77 63-63 92-43T385 0q67 0 123 14t92 38 61 52 35 59 11 58q0 26-8 46t-21 32-27 20-27 11-22 3h-22l-22-3-24-8-23-15-21-26-13-39-6-55q-8-8-33-14t-45-6h-21q-38 0-65 17t-40 39-11 43q0 13 2 24t14 25 29 29 55 30 83 32q43 14 78 30t60 31 47 33 33 33 23 35 15 35 8 35 4 35 0 35z"/></svg>