<svg xmlns="http://www.w3.org/2000/svg" viewBox="0 0 1142.9 1000"><path d="M837 765V356q0-12-8-20t-20-8h-52q-11 0-19 8t-9 20v409q0 11 9 20t19 8h52q11 0 20-8t8-20zm-158 0V469q0-11-9-20t-19-8h-57q-11 0-19 8t-9 20v296q0 11 9 20t19 8h57q11 0 19-8t9-20zm-163 0V526q0-12-9-20t-19-8h-57q-11 0-19 8t-8 20v239q0 11 8 20t19 8h57q11 0 19-8t9-20zm-163 0V563q0-11-9-20t-19-8h-57q-11 0-19 8t-8 20v202q0 11 8 20t19 8h57q11 0 19-8t9-20zm790-81q0 92-66 158t-158 66H224q-92 0-158-66T0 684q0-65 35-120t94-83q-6-19-6-41 0-63 45-108t108-45q57 0 101 38 25-102 108-168t189-65q83 0 153 41t111 111 41 154q0 37-7 68 75 18 123 79t48 139z"/></svg>