<svg xmlns="http://www.w3.org/2000/svg" viewBox="0 0 1142.9 1000"><path d="M1011 868q10-11 25-11t25 11l71 71-50 50-46-46-47 46q-10 11-25 11t-25-11l-46-46-46 46q-11 11-26 11t-25-11l-46-46-46 46q-11 11-25 11t-25-11l-47-46-46 46q-11 11-25 11t-25-11l-47-46-46 46q-11 11-25 11t-25-11l-47-46-46 46q-10 11-25 11t-25-11l-46-46-47 46q-10 11-25 11t-25-11l-71-71 50-50 46 46 47-46q10-11 25-11t25 11l46 46 46-46q11-11 25-11t26 11l46 46 46-46q11-11 25-11t25 11l47 46 46-46q11-11 25-11t25 11l47 46 46-46q11-11 25-11t25 11l46 46 47-46q10-11 25-11t25 11l46 46zm-879-22q-10 11-25 11t-25-11l-71-71 50-50 46 46 47-46q10-11 25-11t25 11l46 46 36-36V571L169 396q-10-14-4-31t22-23l99-32V143h71V71h143V0h143v71h143v72h71v167l99 32q17 6 22 23t-4 31L857 571v164l11-10q10-11 25-11t25 11l46 46 47-46q10-11 25-11t25 11l71 71-50 50-46-46-47 46q-10 11-25 11t-25-11l-46-46-46 46q-11 11-26 11t-25-11l-46-46-46 46q-11 11-25 11t-25-11l-47-46-46 46q-11 11-25 11t-25-11l-47-46-46 46q-11 11-25 11t-25-11l-47-46-46 46q-10 11-25 11t-25-11l-46-46zm225-632v72l214-72 215 72v-72h-72v-71H429v71h-72z"/></svg>