<svg xmlns="http://www.w3.org/2000/svg" viewBox="0 0 857.1 1000"><path d="M0 0h857v777L424 965 0 777V0zm801 740V224H56v516l369 165zm0-572V56H56v112h745zM101 334v64H80v-64h21zm0 83v64H80v-64h21zm0 82v65H80v-65h21zm0 83v64H80v-64h21zm0 83v64H80v-64h21zm15 79l8-19 59 27-9 18zm75 34l9-19 58 26-8 19zm76 33l8-19 59 26-9 19zm76 33l8-18 58 26-8 19zm102 8l58-26 9 18-59 27zm75-34l59-26 8 19-58 26zm76-33l59-26 8 19-59 26zm75-33l59-27 8 19-58 26zM145 82v20H81V82h64zm90 0v20h-64V82h64zm90 0v20h-64V82h64zm90 0v20h-63V82h63zm91 0v20h-64V82h64zm90 0v20h-64V82h64zm90 0v20h-64V82h64zm90 0v20h-63V82h63zM101 272v44H80v-64h65v20h-44zm134-20v20h-64v-20h64zm90 0v20h-64v-20h64zm90 0v20h-63v-20h63zm91 0v20h-64v-20h64zm90 0v20h-64v-20h64zm90 0v20h-64v-20h64zm70 64v-44h-43v-20h64v64h-21zm0 82v-64h21v64h-21zm0 83v-64h21v64h-21zm0 83v-65h21v65h-21zm0 82v-64h21v64h-21zm0 83v-64h21v64h-21zm-332-20q-72 0-123-51t-52-123q0-72 52-124t123-51q73 0 124 51t51 124q0 72-51 123t-124 51zm-92-212q0 20 11 31t28 14 35 4 36 1 28 5 11 17q0 27-63 27-54 0-69-28h-1l-18 35q38 24 91 24 16 0 31-3t31-9 26-19 9-29q0-26-15-39t-38-15-44-2-37-2-16-15q0-11 12-18t22-8 23-2q19 0 40 6t28 19h2l17-32q-2-1-12-5t-13-5-10-4-13-4-11-2-13-3-13 0q-16 0-32 3t-30 9-24 19-9 30z"/></svg>