<svg xmlns="http://www.w3.org/2000/svg" viewBox="0 0 1142.9 1000"><path d="M1071 429q30 0 51 20t21 51-21 50-51 21h-8l-64 370q-5 26-25 42t-45 17H214q-25 0-45-17t-25-42L80 571h-9q-29 0-50-21T0 500t21-51 50-20h1000zM271 875q14-1 24-13t9-26l-18-232q-1-14-13-24t-26-9-24 13-9 26l18 232q1 14 12 24t24 9h3zm229-36V607q0-14-11-25t-25-11-25 11-10 25v232q0 15 10 25t25 11 25-11 11-25zm214 0V607q0-14-10-25t-25-11-25 11-11 25v232q0 15 11 25t25 11 25-11 10-25zm197 3l18-232q1-15-9-26t-24-13-26 9-13 24l-18 232q-1 15 9 26t24 13h3q14 0 24-9t12-24zM266 163l-52 230h-74l56-246q11-49 50-80t89-31h94q0-15 10-25t25-11h215q14 0 25 11t10 25h94q50 0 89 31t49 80l57 246h-74l-52-230q-6-25-25-40t-44-16h-94q0 15-10 25t-25 11H464q-14 0-25-11t-10-25h-94q-25 0-44 16t-25 40z"/></svg>