<svg xmlns="http://www.w3.org/2000/svg" viewBox="0 0 1071.4 1000"><path d="M800 139q5 5 5 13t-5 13L450 514q-5 5-12 5t-13-5l-46-46q-6-5-6-13t6-13l25-24q-41-51-46-116t26-120q-41-39-98-39-59 0-101 42t-42 101v714H0V286q0-58 23-111t61-91 91-61T286 0q59 0 112 23t93 64q52-22 109-14t104 45l24-25q6-5 13-5t13 5zm-50 147q15 0 25 10t11 25-11 25-25 11-25-11-11-25 11-25 25-10zm143 71q-15 0-25-11t-11-25 11-25 25-10 25 10 11 25-11 25-25 11zm143-71q14 0 25 10t10 25-10 25-25 11-25-11-11-25 11-25 25-10zm-357 71q14 0 25 11t10 25-10 25-25 11-25-11-11-25 11-25 25-11zm107 36q0-15 10-25t25-11 26 11 10 25-10 25-26 11-25-11-10-25zm178-36q15 0 25 11t11 25-11 25-25 11-25-11-10-25 10-25 25-11zm-357 72q15 0 25 10t11 25-11 25-25 11-25-11-11-25 11-25 25-10zm143 71q-14 0-25-11t-11-25 11-25 25-10 25 10 11 25-11 25-25 11zm143-71q14 0 25 10t11 25-11 25-25 11-25-11-11-25 11-25 25-10zM679 571q-15 0-25-10t-11-25 11-25 25-11 25 11 10 25-10 25-25 10zm142-71q15 0 26 11t10 25-10 25-26 10-25-10-10-25 10-25 25-11zm-214 71q15 0 25 11t11 25-11 25-25 11-25-11-11-25 11-25 25-11zm143 0q15 0 25 11t11 25-11 25-25 11-25-11-11-25 11-25 25-11zm-71 72q14 0 25 10t10 26-10 25-25 10-25-10-11-25 11-26 25-10zm-72 71q15 0 25 11t11 25-11 25-25 11-25-11-11-25 11-25 25-11z"/></svg>