<svg xmlns="http://www.w3.org/2000/svg" viewBox="0 0 1000 1000"><path d="M372 268q-34 52-77 153-12-25-20-41t-23-35-28-32-36-19-45-8H18q-8 0-13-5t-5-13V161q0-8 5-13t13-5h125q139 0 229 125zm628 446q0 8-5 13L816 906q-5 5-12 5-8 0-13-6t-5-12V786h-48q-30 0-45 1t-41-1-39-3-36-6-35-10-32-16-33-22-31-30-31-39q33-52 76-152 12 25 20 40t23 36 28 31 35 20 46 8h143V536q0-8 5-13t13-5q6 0 13 5l178 178q5 5 5 13zm0-500q0 8-5 13L816 406q-5 5-12 5-8 0-13-6t-5-12V286H643q-27 0-49 8t-38 25-29 34-25 44q-18 34-43 95-16 37-28 62t-30 59-36 55-41 47-50 38-60 23-71 10H18q-8 0-13-5t-5-13V661q0-8 5-13t13-5h125q27 0 48-9t39-25 28-34 26-43q17-35 43-96 16-36 28-62t30-58 36-56 41-46 50-39 59-23 72-9h143V36q0-8 5-13t13-5q6 0 13 5l178 178q5 5 5 13z"/></svg>