<svg xmlns="http://www.w3.org/2000/svg" viewBox="0 0 928.6 1000"><path d="M464 376q18 0 33 10l124 82q34 22 61 54l81 95q23 26 17 59l-41 231q-3 18-16 30t-31 14l-294 31-196 18h-6q-21 0-37-16t-16-38q0-20 15-35t36-18l145-18H89q-23 0-38-17t-15-39q1-22 18-37t38-14l247-1-291-35q-23-3-37-21T1 670q3-19 19-32t36-12h6l268 33-195-52q-22-6-35-24t-10-38q3-20 18-32t35-13q3 0 11 1l250 54 121 20q1 0 2 1t2 0q12 0 17-13t-7-20l-104-70q-20-13-24-35t10-41q15-21 43-21zm-39 112l104 70-122-21-3-1-20-21-133-146q0-1-1-2t-2-2q-13-17-10-39t21-36q17-13 38-10t36 19l79 82q-1 1-3 2t-2 3q-18 25-13 55t31 47zm495-253l8 148q2 41-6 82l-27 123q-7 32-37 48l-59 30q1-34-22-61l-82-94q-29-34-65-58l-124-83q-19-12-42-12-29 0-49 20L284 204q-14-18-11-41t23-35q19-13 40-8t35 22l149 197L373 85q-11-20-5-42t26-33q20-10 40-3t33 25l134 235-76-188q-8-20-2-42t24-31q21-11 43-3t31 28l108 232 56 109q5 9 13 10t15-4 6-15l-6-125q-2-23 14-39t39-18q21 0 37 16t17 38z"/></svg>