<svg xmlns="http://www.w3.org/2000/svg" viewBox="0 0 1142.9 1000"><path d="M798 325zm145 114q83 0 141 55t59 137q0 87-61 145t-149 59q-47 0-90-16t-77-41-66-59-61-70-58-74-60-71-66-59-75-41-89-15q-86 0-141 51T96 576q0 88 58 140t147 52q56 0 116-21t108-55q2-2 11-10t17-14 12-5q8 0 14 6t6 13q0 14-34 43-56 50-130 80t-146 30q-74 0-137-33T38 710 0 576q0-115 79-190t194-76q67 0 126 24t104 63 84 85 78 94 74 86 84 63 96 24q57 0 94-34t37-91q0-53-36-89t-89-36q-16 0-45 11t-38 10q-12 0-20-8t-9-20q0-10 5-32t5-33q0-88-60-146t-149-58q-32 0-62 10t-47 23-31 22-19 10q-8 0-14-5t-6-15q0-10 14-25 33-38 82-58t102-20q106 0 177 70t71 176q0 20-2 36 32-8 64-8z"/></svg>