<svg xmlns="http://www.w3.org/2000/svg" viewBox="0 0 857.1 1000"><path d="M655 593q0-28-11-51t-27-38-41-27-46-19-49-13l-58-14q-17-4-25-6t-19-6-17-9-9-12-4-16q0-43 80-43 24 0 43 6t30 16 21 19 23 16 27 7q26 0 42-18t16-43q0-31-32-55t-79-38-101-13q-38 0-74 9t-67 26-49 48-19 72q0 34 10 60t32 42 44 27 58 18l81 20q51 12 63 20 18 11 18 34 0 21-23 36t-58 14q-29 0-51-9t-37-22-25-25-26-21-30-9q-28 0-42 17t-14 41q0 52 68 88t162 37q41 0 78-10t69-30 49-52 19-74zm202 121q0 89-63 152t-151 63q-73 0-131-45-43 9-83 9-80 0-153-31t-126-84-83-125-31-153q0-41 9-84Q0 358 0 286q0-89 63-152t151-63q73 0 131 45 43-9 84-9 79 0 152 31t126 84 84 125 30 153q0 41-8 84 44 58 44 130z"/></svg>