<svg xmlns="http://www.w3.org/2000/svg" viewBox="0 0 1000 1000"><path d="M958 572c4-23 6-47 6-72 0-256-208-464-464-464-25 0-49 2-72 6-43-27-94-42-148-42C126 0 0 125 0 280c0 54 15 105 42 148-4 23-6 47-6 72 0 256 208 464 464 464 25 0 49-2 72-6 43 27 94 42 148 42 155 0 280-125 280-280 0-54-15-105-42-148zM720 711c-19 28-48 50-86 66s-82 24-134 24c-61 0-113-11-153-33-29-15-52-36-70-62-18-27-27-52-27-77 0-15 6-28 17-38 11-11 25-16 42-16 14 0 25 4 35 12 10 9 18 21 24 36 8 19 17 34 26 46s21 22 38 30c16 8 38 12 65 12 37 0 67-8 90-24s34-35 34-59c0-19-6-34-18-45-13-12-29-21-48-27-20-6-47-13-80-20-45-10-83-21-113-34-31-14-55-31-73-54s-27-52-27-85 10-61 29-86 46-45 82-58c35-13 77-20 126-20 38 0 71 4 99 13 29 9 52 21 71 36 18 14 32 30 41 46 8 17 13 33 13 48s-6 28-17 39c-11 12-25 18-41 18-15 0-27-4-35-11-7-7-16-18-24-33-12-22-25-39-41-51-15-12-40-18-75-18-32 0-58 7-78 20-19 13-29 28-29 46 0 11 4 21 10 29 7 8 16 15 27 21 12 6 24 10 36 14l60 15c36 7 67 16 96 25s53 21 73 34 36 30 48 51c11 20 17 45 17 74 0 36-10 68-30 96z"/></svg>