<svg xmlns="http://www.w3.org/2000/svg" viewBox="0 0 857.1 1000"><path d="M714 641q0-13-12-15-37-8-66-33t-44-61q-4-7-4-14 0-8 11-14t23-10 24-11 11-20q0-11-10-18t-22-7q-6 0-17 4t-18 5q-2 0-7-1 3-35 3-64 0-44-9-64-21-43-58-68t-85-24q-110 0-153 92-10 21-10 64 0 21 3 64-6 1-8 1-6 0-18-5t-17-4q-11 0-21 7t-10 18q0 12 11 20t24 11 24 10 11 14q0 7-4 14-36 77-111 94-12 2-12 15 0 26 77 38 1 3 3 15t6 17 13 5q7 0 22-3t21-3q20 0 38 9t30 18 32 18 43 8q24 0 44-8t32-18 30-18 38-9q7 0 22 3t22 2q8 0 12-5t7-17 2-14q77-12 77-38zm143-409v536q0 66-47 113t-114 48H161q-67 0-114-48T0 768V232q0-66 47-113t114-48h535q67 0 114 48t47 113z"/></svg>