<svg xmlns="http://www.w3.org/2000/svg" viewBox="0 0 857.1 1000"><path d="M714 641q0-13-12-15-38-9-66-33t-45-61q-4-10-4-14 0-8 11-14t24-10 24-11 11-20q0-11-10-18t-22-7q-7 0-18 4t-17 5q-2 0-7-1 3-53 3-64 0-44-9-63-21-44-58-68t-85-24q-111 0-153 92-10 19-10 63 0 11 3 64-2 1-8 1t-18-4-16-4q-12 0-22 6t-10 18q0 12 11 20t24 11 24 10 11 14q0 4-4 14-35 77-110 94-13 2-13 15 0 25 77 38 1 2 3 14t7 17 13 5q6 0 21-2t22-3q19 0 37 9t30 18 32 18 43 8q24 0 44-8t32-18 30-18 37-9q8 0 23 3t21 2q9 0 13-6t6-17 3-13q77-13 77-38zm143-141q0 117-57 215T644 871t-215 58-216-58T58 715 0 500t58-215 155-156 216-58 215 58 156 156 57 215z"/></svg>