<svg xmlns="http://www.w3.org/2000/svg" viewBox="0 0 928.6 1000"><path d="M874 623l-93 19 104 59q12 8 16 22t-4 27q-7 13-21 16t-27-3l-104-59 31 89q7 21-7 35t-34 12-27-24l-57-167-151-87v175l116 132q9 11 10 22t-7 21-15 14-21 3-20-13l-63-71v119q0 15-11 25t-25 11-25-11-10-25V845l-63 71q-9 10-20 13t-21-3-16-14-6-21 10-22l116-132V562l-152 87-57 167q-7 21-27 24t-33-12-7-35l31-89-104 59q-13 7-27 3t-22-16q-7-13-3-27t16-22l104-59-93-19q-16-3-24-16t-4-26 14-22 28-6l173 35 151-88-151-88-173 35h-8q-15 0-24-10t-11-22 6-24 23-14l93-19-104-60q-13-7-16-21t3-27 22-17 27 4l104 59-31-89q-7-21 7-35t33-12 27 24l57 167 152 87V263L313 131q-9-11-10-22t6-21 16-14 21-3 20 13l63 71V36q0-15 10-25t25-11 25 11 11 25v119l63-71q8-10 20-13t21 3 15 14 7 21-10 22L500 263v175l151-87 57-167q7-21 27-24t34 12 7 35l-31 89 104-59q13-7 27-4t21 17q8 13 4 27t-16 21l-104 60 93 19q15 2 22 14t6 24-10 22-25 10h-7l-173-35-151 88 151 88 173-35q16-3 28 6t14 22-5 26-23 16z"/></svg>