<svg xmlns="http://www.w3.org/2000/svg" viewBox="0 0 857.1 1000"><path d="M751 733q0-36-24-65t-58-30q-29 0-46 21t-17 52 20 53 58 22q28 0 48-15t19-38zm-340 71q0 6-6 13L227 995q-5 5-13 5-6 0-12-5L23 816q-8-9-4-19 4-11 17-11h107V18q0-8 5-13t13-5h107q8 0 13 5t5 13v768h107q8 0 13 5t5 13zm418-39q0 35-7 68t-23 64-38 53-55 36-71 14q-35 0-60-9-14-4-24-8l22-63q9 4 17 6 21 7 42 7 47 0 75-33t37-81h-1q-11 13-34 21t-47 8q-59 0-97-40t-37-97q0-58 40-99t101-41q69 0 115 53t45 141zm-16-400v64H551v-64h93V124v-11q0-7 1-9v-9h-2l-3 7q-5 7-15 17l-35 32-45-48L652 0h68v365h93z"/></svg>