<svg xmlns="http://www.w3.org/2000/svg" viewBox="0 0 857.1 1000"><path d="M751 161q0-35-24-65t-58-29q-29 0-46 21t-17 52 20 53 58 21q28 0 48-15t19-38zM411 804q0 6-6 13L227 995q-5 5-13 5-6 0-12-5L23 816q-8-9-4-19 4-11 17-11h107V18q0-8 5-13t13-5h107q8 0 13 5t5 13v768h107q8 0 13 5t5 13zm402 132v64H551v-64h93V695v-10q0-6 1-10v-9h-2l-3 7q-5 7-15 17l-35 33-45-48 107-104h68v365h93zm16-742q0 34-7 67t-23 64-38 53-55 37-71 14q-35 0-60-9-14-5-24-9l22-63q9 4 17 6 21 8 42 8 47 0 75-33t37-81h-1q-11 13-34 20t-47 8q-59 0-97-40t-37-96q0-59 40-99T669 0q69 0 115 53t45 141z"/></svg>