<svg xmlns="http://www.w3.org/2000/svg" viewBox="0 0 1000 1000"><path d="M411 804q0 6-6 13L227 995q-5 5-13 5-6 0-12-5L23 816q-8-9-4-19 4-11 17-11h107V18q0-8 5-13t13-5h107q8 0 13 5t5 13v768h107q8 0 13 5t5 13zm589 71v107q0 8-5 13t-13 5H518q-8 0-13-5t-5-13V875q0-8 5-13t13-5h464q8 0 13 5t5 13zM893 589v107q0 8-5 13t-13 5H518q-8 0-13-5t-5-13V589q0-8 5-13t13-5h357q8 0 13 5t5 13zM786 304v107q0 7-5 12t-13 6H518q-8 0-13-6t-5-12V304q0-8 5-13t13-5h250q8 0 13 5t5 13zM679 18v107q0 8-5 13t-13 5H518q-8 0-13-5t-5-13V18q0-8 5-13t13-5h143q8 0 13 5t5 13z"/></svg>