<svg xmlns="http://www.w3.org/2000/svg" viewBox="0 0 1214.3 1000"><path d="M346 625q-61 36-150 36h-71v-36H89q-7 0-12-13t-6-32q0-13 4-27-32-1-53-6T0 536t22-12 53-6q-4-14-4-27 0-18 6-32t12-13h36v-35h71q89 0 150 35h621l60 10q36 6 44 8 50 9 84 23t47 26 12 23-12 22-47 26-84 23q-8 2-44 8t-60 10H346zm624-141q30 20 30 52t-30 51l46 17q38-27 38-68t-38-68zM349 634h566q-121 21-254 45-32 0-63 13t-47 27l-15 13-161 161q-14 14-39 25t-50 11h-54l-52-259h16q88 0 153-36zM196 402h-16l52-259h54q25 0 50 10t39 26l161 160 6 6q4 4 17 13t27 16 34 13 41 6l254 44H349q-65-35-153-35z"/></svg>