<svg xmlns="http://www.w3.org/2000/svg" viewBox="0 0 857.1 1000"><path d="M693 361q0-45-32-76t-76-32-76 32-32 76q0 45 32 76t76 32 76-32 32-76zM353 689q0 46-33 79t-78 32q-31 0-57-17t-40-43q29 12 54 23 34 13 67-1t48-48q13-34-1-67t-48-47l-46-19q12-2 23-2 46 0 78 32t33 78zm504-457v536q0 66-47 113t-114 48H161q-67 0-114-48T0 768v-86l96 39q11 51 52 85t94 33q58 0 101-39t49-96l192-141q84 0 143-59t59-142q0-84-59-142t-143-59q-82 0-141 58t-60 141L258 540q-5-1-16-1-42 0-76 21L0 493V232q0-66 47-113t114-48h535q67 0 114 48t47 113zM719 362q0 56-39 95t-96 40-95-40-39-95 39-95 95-40q57 0 96 39t39 96z"/></svg>