<svg xmlns="http://www.w3.org/2000/svg" viewBox="0 0 1000 1000"><path d="M883 325q0 56-40 96t-96 40-97-40-39-96 39-97 97-39 96 39 40 97zM453 739q0-58-41-99t-98-41q-15 0-30 4l58 23q43 17 61 59t1 85q-18 43-60 61t-85 0q-12-4-35-13t-34-14q18 34 51 54t73 20q58 0 98-40t41-99zm463-414q0-70-50-120t-120-50q-71 0-121 50t-50 120q0 71 50 121t121 49q70 0 120-49t50-121zm84 0q0 106-74 180t-180 74L502 757q-6 72-61 122t-127 50q-68 0-120-43t-66-107L0 728V488l217 88q44-27 97-27 7 0 19 1l159-227q1-104 75-178t179-74q105 0 180 75t74 179z"/></svg>