<svg xmlns="http://www.w3.org/2000/svg" viewBox="0 0 785.7 1000"><path d="M714 393q0-15-10-25t-25-11-25 11-11 25 11 25 25 11 25-11 10-25zm72 0q0 34-20 62t-52 39v220q0 89-73 152t-177 63-176-63-74-152v-73q-91-12-153-72T0 429V143q0-15 11-25t25-11q3 0 9 1 9-17 26-27t36-10q30 0 51 21t21 51-21 50-51 21q-18 0-36-10v225q0 59 53 101t126 41 126-41 53-101V204q-18 10-36 10-30 0-51-21t-21-50 21-51 51-21q19 0 36 10t26 27q6-1 9-1 15 0 25 11t11 25v286q0 80-61 140t-153 72v73q0 59 52 101t126 42 126-42 53-101V494q-32-12-52-39t-20-62q0-45 32-76t76-31 76 31 31 76z"/></svg>