<svg xmlns="http://www.w3.org/2000/svg" viewBox="0 0 857.1 1000"><path d="M786 857q0 35-35 64t-91 45-126 25-141 9-142-9-125-25-92-45-34-64q0-27 18-49t51-37 66-25 73-17q15-2 27 6t14 23q3 15-5 27t-24 15q-32 5-59 13t-42 14-27 13-16 11-5 7q2 6 16 15t40 18 64 18 89 14 113 6 112-6 90-14 64-18 40-19 15-15q0-3-4-7t-16-10-27-13-43-14-59-13q-14-3-23-15t-6-27q3-14 15-23t27-6q39 7 73 17t66 25 50 37 19 49zM571 357v214q0 15-10 25t-25 11h-36v214q0 15-11 25t-25 11H321q-14 0-25-11t-10-25V607h-36q-14 0-25-11t-11-25V357q0-29 21-50t51-21h214q30 0 51 21t20 50zm-53-214q0 52-37 88t-88 37-89-37-36-88 36-89 89-36 88 36 37 89z"/></svg>