<svg xmlns="http://www.w3.org/2000/svg" viewBox="0 0 1000 1000"><path d="M982 500q8 0 13 5t5 13v36q0 7-5 12t-13 5H18q-8 0-13-5t-5-12v-36q0-8 5-13t13-5h964zm-712-36q-16-19-29-44-27-55-27-105 0-101 75-173 74-71 219-71 28 0 94 11 36 7 98 27 6 21 12 66 8 68 8 102 0 10-3 25l-7 2-46-4-8-1q-28-83-58-114-49-51-117-51-64 0-101 33-38 32-38 81 0 41 37 78t156 72q38 12 96 37 33 16 53 29H270zm283 143h229q4 22 4 51 0 62-23 119-13 31-40 58-20 19-61 45-44 27-85 37-45 12-113 12-64 0-109-13l-78-23q-32-8-40-15-5-5-5-12v-8q0-60-1-87v-38l1-20v-25l57-1q8 19 17 40t12 31 7 15q20 32 45 52 24 20 59 32 33 12 73 12 36 0 78-15 43-14 68-48 26-34 26-72 0-47-45-87-19-16-76-40z"/></svg>