<svg xmlns="http://www.w3.org/2000/svg" viewBox="0 0 928.6 1000"><path d="M286 768V661q0-8-5-13t-13-5H89q-7 0-12 5t-6 13v107q0 8 6 13t12 5h179q8 0 13-5t5-13zm0-214V446q0-7-5-12t-13-5H89q-7 0-12 5t-6 12v108q0 7 6 12t12 5h179q8 0 13-5t5-12zm285 214V661q0-8-5-13t-12-5H375q-8 0-13 5t-5 13v107q0 8 5 13t13 5h179q7 0 12-5t5-13zM286 339V232q0-8-5-13t-13-5H89q-7 0-12 5t-6 13v107q0 8 6 13t12 5h179q8 0 13-5t5-13zm285 215V446q0-7-5-12t-12-5H375q-8 0-13 5t-5 12v108q0 7 5 12t13 5h179q7 0 12-5t5-12zm286 214V661q0-8-5-13t-13-5H661q-8 0-13 5t-5 13v107q0 8 5 13t13 5h178q8 0 13-5t5-13zM571 339V232q0-8-5-13t-12-5H375q-8 0-13 5t-5 13v107q0 8 5 13t13 5h179q7 0 12-5t5-13zm286 215V446q0-7-5-12t-13-5H661q-8 0-13 5t-5 12v108q0 7 5 12t13 5h178q8 0 13-5t5-12zm0-215V232q0-8-5-13t-13-5H661q-8 0-13 5t-5 13v107q0 8 5 13t13 5h178q8 0 13-5t5-13zm72-178v607q0 37-27 63t-63 26H89q-36 0-63-26T0 768V161q0-37 26-63t63-27h750q37 0 63 27t27 63z"/></svg>