<svg xmlns="http://www.w3.org/2000/svg" viewBox="0 0 1142.9 1000"><path d="M1018 500q52 0 88 37t37 88v214q0 8-5 13t-13 5h-54v36q0 45-31 76t-76 31-76-31-31-76v-36H286v36q0 45-31 76t-76 31-76-31-32-76v-36H18q-8 0-13-5t-5-13V625q0-52 37-88t88-37h16l58-234q13-52 58-88t100-35h72V18q0-8 5-13t12-5h250q8 0 13 5t5 13v125h72q54 0 100 35t58 88l58 234h16zM179 768q36 0 63-26t26-63-26-64-63-26-63 26-27 64 27 63 63 26zm109-268h567l-50-199q-1-5-8-10t-11-5H357q-5 0-12 5t-7 10zm676 268q37 0 63-26t27-63-27-64-63-26-63 26-26 64 26 63 63 26z"/></svg>