<svg xmlns="http://www.w3.org/2000/svg" viewBox="0 0 714.3 1000"><path d="M470 319q0 45-32 76t-76 32q-33 0-62-20-34 38-64 82Q98 696 123 968q1 13-7 22t-19 10h-3q-11 0-19-7t-10-19q-7-70-2-138t17-121 30-104 38-87 42-70q34-50 73-92-8-19-8-43 0-44 31-76t76-32 76 32 32 76zm213 6q0 88-44 163T520 607t-163 43q-36 0-73-8-12-3-18-13t-4-22q3-11 13-17t22-5q28 8 60 8 54 0 104-22t85-57 57-85 21-104-21-104-57-85-85-57-104-21-104 21-85 57-57 85-21 104q0 64 29 122 5 11 2 22t-14 17-22 2-17-15q-36-68-36-148 0-66 26-126t69-104 104-69T357 0q88 0 163 43t119 119 44 163z"/></svg>