<svg xmlns="http://www.w3.org/2000/svg" viewBox="0 0 1000 1000"><path d="M973 786q19 0 24 10t-6 25l-71 90q-11 15-27 15t-27-15l-71-90q-11-15-6-25t24-10h44V214h-44q-19 0-24-10t6-25l71-90q11-15 27-15t27 15l71 90q11 15 6 25t-24 10h-44v572h44zM45 72l30 15q7 3 118 3 25 0 74-1t73-1h307q2 0 9-1t10-5 8-10l24-1q2 0 7 1t8 0q1 62 1 187 0 45-2 61-22 8-38 10-14-24-31-71-1-5-6-27t-8-41-4-20q-3-4-7-7t-8-3-8-1-10-1-9 1q-9 0-37-1t-41 0-36 1-40 3q-5 46-4 76 0 53 1 217t1 254q0 9-1 40t0 51 7 38q22 12 69 24t67 21q2 22 2 28 0 8-1 16l-19 1q-43 1-122-5t-115-5q-28 0-85 5t-84 5l-2-29v-5q9-15 34-24t55-17 44-15q10-23 10-213 0-57-1-170t-2-169v-65-9q0-8 1-14t-1-14-2-13-2-8q-7-7-91-7-18 0-52 7t-44 15q-11 7-19 40t-18 62-24 30Q8 296 0 286V72z"/></svg>