<svg xmlns="http://www.w3.org/2000/svg" viewBox="0 0 857.1 1000"><path d="M45 72l30 15q7 3 118 3 25 0 74-1t73-1q40 0 138-1t170 0 138 2q18 1 31-17l23-1q3 0 8 1t8 0q1 62 1 187 0 45-3 61-21 8-38 10-13-24-30-71-1-5-6-27t-8-41-4-20q-6-7-15-10-3-1-37-1-17 0-52-1t-57-1-53 2-53 3q-5 46-5 76l1 85v-29 86q0 55 1 101t0 85q0 9-1 40t0 51 7 38q22 12 69 24t67 21q3 22 3 28 0 8-2 16l-19 1q-42 1-121-5t-116-5q-28 0-84 5t-85 5l-2-29v-5q10-15 35-24t55-17 43-15q4-9 7-41t3-81 1-87-1-85 0-50q0-4-1-12t-2-12q0-4 1-25t0-41 0-42-1-38-4-18q-6-7-90-7-23 0-91 8t-77 14q-11 6-19 39t-18 63-24 30Q8 296 0 286V72zm686 715q7 0 24 11t32 23 33 28 20 17q14 11 14 27t-14 27q-2 2-20 17t-33 27-32 23-24 11q-7 0-11-5t-6-16-1-19 0-18 1-11H143q0 1 1 11t1 18-2 19-5 16-12 5q-7 0-23-11t-32-23-34-27-20-17Q3 909 3 893t14-27q3-2 20-17t34-28 32-23 23-11q7 0 12 6t5 16 2 19-1 18-1 11h571q0-1-1-11t0-18 1-19 6-16 11-6z"/></svg>