<svg xmlns="http://www.w3.org/2000/svg" viewBox="0 0 1000 1000"><path d="M286 696v108q0 22-16 37t-38 16H54q-23 0-38-16T0 804V696q0-22 16-38t38-15h178q23 0 38 15t16 38zm0-285v107q0 22-16 38t-38 15H54q-23 0-38-15T0 518V411q0-23 16-38t38-16h178q23 0 38 16t16 38zm714 285v108q0 22-16 37t-38 16H411q-23 0-38-16t-16-37V696q0-22 16-38t38-15h535q23 0 38 15t16 38zM286 125v107q0 22-16 38t-38 16H54q-23 0-38-16T0 232V125q0-22 16-38t38-16h178q23 0 38 16t16 38zm714 286v107q0 22-16 38t-38 15H411q-23 0-38-15t-16-38V411q0-23 16-38t38-16h535q23 0 38 16t16 38zm0-286v107q0 22-16 38t-38 16H411q-23 0-38-16t-16-38V125q0-22 16-38t38-16h535q23 0 38 16t16 38z"/></svg>