<svg xmlns="http://www.w3.org/2000/svg" viewBox="0 0 1000 1000"><path d="M475 172q0 17-9 30t-25 13-25-13-10-30 10-29 25-13 25 13 9 29zm-91 768v-63q0-17-11-29t-29-12-28 12-11 29v63q0 17 12 29t27 13q17 0 29-13t11-29zm96 0v-63q0-17-11-29t-28-12-28 12-12 29v63q0 17 12 29t28 13q16 0 28-13t11-29zm97 0v-63q0-17-11-29t-29-12-28 12-11 29v63q0 17 11 29t28 13 29-13 11-29zm97 0v-63q0-17-11-29t-28-12-29 12-11 29v63q0 17 11 29t29 13 28-13 11-29zm150-381q-47 89-130 144t-180 56q-69 0-128-29t-100-76-63-111-23-129q0-49 12-97-58 98-58 218 0 90 36 174t104 140q16-32 50-32 32 0 48 28 18-28 49-28t48 28q18-28 48-28t49 28q17-28 48-28 16 0 29 9t21 22q63-52 99-129t41-160zm-84-17q0-41-40-41-10 0-26 3-53 10-84 10-126 0-126-135 0-48 17-114-46 71-46 153 0 84 49 146t132 62q62 0 117-40 7-26 7-44zM493 175q0-28-18-50t-45-22-45 22-18 50q0 28 18 50t45 22 46-22 17-50zm351 189q0-54-21-100t-63-77-96-30q-43 0-84 20t-70 52q-27 89-27 150 0 58 25 87t82 30q30 0 80-11 20-3 29-3 29 0 44 16t14 44q0 15-2 26 42-38 66-92t23-112zm156 121q0 62-19 139t-52 114q-32 36-109 80t-127 58l-2 1v63q0 24-17 42t-40 18q-31 0-48-28-18 28-49 28t-48-28q-17 28-48 28t-49-28q-16 28-48 28-26 0-41-19t-16-45q-50 38-111 38-65 0-117-45 30 0 59-11-63-17-102-71 18 4 40 4 50 0 91-26Q40 718 13 655 0 623 0 565q0-32 5-70t18-82 30-78 49-59 67-23q33 0 45 29 10-16 23-30 1-2 7-8t7-9q6-8 13-21t14-23 16-22q48-62 118-99t145-37q20 0 35 3 32-36 81-36 46 0 78 32 3 3 3 6t-3 8-7 9-9 9l-6 6q9 4 20 10t11 14q0 3-9 14 87 77 110 211 13-17 33-17 25 0 56 27 50 45 50 156z"/></svg>