<svg xmlns="http://www.w3.org/2000/svg" viewBox="0 0 857.1 1000"><path d="M143 250q0-15-11-25t-25-11-25 11-11 25 11 25 25 11 25-11 11-25zm643 321q0-19-12-45t-30-26q8-10 14-27t5-31q0-38-29-66 10-17 10-38t-10-41-26-30q2-16 2-31 0-47-27-70t-76-23h-71q-73 0-191 41-3 1-16 5t-20 7-20 7-21 6-18 4-18 1h-18v357h18q9 0 20 5t22 15 22 20 22 25 19 24 18 22 13 17q30 38 43 51 23 24 33 61t17 70 21 48q54 0 72-27t17-81q0-33-26-89t-27-89h196q28 0 50-22t22-50zm71 1q0 57-42 100t-101 42h-98q27 55 27 107 0 66-20 104-19 39-57 57t-84 18q-28 0-50-21-19-18-30-45t-14-51-10-47-17-36q-27-28-60-71-57-73-77-86H71q-29 0-50-21T0 571V214q0-29 21-50t50-21h161q12 0 77-23 72-24 125-36t111-13h63q78 0 126 44t48 121v3q33 43 33 99 0 12-1 24 21 38 21 80 0 21-5 39 27 41 27 91z"/></svg>