<svg xmlns="http://www.w3.org/2000/svg" viewBox="0 0 928.6 1000"><path d="M143 750q0-15-11-25t-25-11q-15 0-25 11t-11 25q0 15 11 25t25 11q15 0 25-11t11-25zm89-286v357q0 15-10 25t-26 11H36q-15 0-25-11T0 821V464q0-14 11-25t25-10h160q15 0 26 10t10 25zm661 0q0 48-31 83 9 25 9 43 1 42-24 76 9 31 0 66-9 31-31 52 5 62-27 101-36 43-110 44h-72q-37 0-80-9t-68-16-67-22q-69-24-88-25-15 0-25-11t-11-25V464q0-14 10-25t24-11q13-1 42-33t57-67q38-49 56-67 10-10 17-27t10-27 8-34q4-22 7-34t11-29 19-28q10-11 25-11 25 0 46 6t33 15 22 22 14 25 7 28 2 25 1 22q0 21-6 43t-10 33-16 31q-1 4-5 10t-6 13-5 13h155q43 0 75 32t32 75z"/></svg>