<svg xmlns="http://www.w3.org/2000/svg" viewBox="0 0 928.6 1000"><path d="M143 321q0 15-11 25t-25 11q-15 0-25-11t-11-25q0-15 11-25t25-10q15 0 25 10t11 25zm89 286V250q0-15-10-25t-26-11H36q-15 0-25 11T0 250v357q0 15 11 25t25 11h160q15 0 26-11t10-25zm630-83q31 34 31 83-1 44-32 75t-75 32H631q2 8 5 14t6 12 5 10q10 21 15 32t11 32 6 43q0 14-1 22t-2 25-7 28-14 25-22 23-33 14-46 6q-15 0-25-11-12-11-19-27t-11-29-7-35q-5-23-8-33t-10-27-17-27q-18-19-56-67-28-36-57-68t-42-33q-14-1-24-11t-10-24V250q0-15 11-25t25-11q19 0 88-24 43-15 67-22t68-17 80-8h72q74 1 110 43 32 39 27 101 22 21 31 53 9 34 0 65 25 34 24 77 0 17-9 42z"/></svg>