<svg xmlns="http://www.w3.org/2000/svg" viewBox="0 0 857.1 1000"><path d="M571 18q0-8 6-13t12-5h161q15 0 25 11t11 25v160q0 8-5 13t-13 5h-36q-8 0-13-5t-5-13v-74L573 264q70 88 70 200 0 124-82 215T357 783v74h54q8 0 13 5t5 13v36q0 8-5 13t-13 5h-54v53q0 8-5 13t-13 5h-35q-8 0-13-5t-5-13v-53h-54q-8 0-13-5t-5-13v-36q0-8 5-13t13-5h54v-74q-83-8-151-57T31 601 1 439q9-114 89-198t194-96q66-8 127 11t111 57L664 71h-75q-7 0-12-5t-6-12V18zM321 714q104 0 177-73t73-177-73-176-177-74-176 74-74 176 74 177 176 73z"/></svg>