<svg xmlns="http://www.w3.org/2000/svg" viewBox="0 0 1000 1000"><path d="M714 18q0-8 5-13t13-5h161q14 0 25 11t11 25v160q0 8-5 13t-13 5h-36q-8 0-13-5t-5-13v-74L715 264q71 88 71 200 0 124-83 215T500 783v74h54q7 0 12 5t5 13v36q0 8-5 13t-12 5h-54v53q0 8-5 13t-13 5h-36q-7 0-12-5t-5-13v-53h-54q-8 0-13-5t-5-13v-36q0-8 5-13t13-5h54v-74q-121-13-204-104t-82-215q0-112 70-200l-29-30-56 62q-5 6-12 6t-13-4l-27-25q-6-4-6-12t5-13l58-64-62-62v74q0 8-5 13t-12 5H18q-8 0-13-5t-5-13V36q0-15 11-25T36 0h160q8 0 13 5t5 13v36q0 7-5 12t-13 5h-74l59 60 48-52q5-6 13-6t13 4l26 25q6 4 6 12t-5 13l-50 55 32 31q88-70 200-70t201 70L807 71h-75q-8 0-13-5t-5-12V18zM464 714q104 0 177-73t73-177-73-176-177-74-176 74-74 176 74 177 176 73z"/></svg>