<svg xmlns="http://www.w3.org/2000/svg" viewBox="0 0 1285.7 1000"><path d="M363 556q0 22-15 37t-37 16q-21 0-37-16t-15-37q0-21 15-36t37-16q22 0 37 16t15 36zm644 0q0 22-15 37t-37 15-37-15-16-37 16-37 37-15 37 15 15 37zm-580 0q0-44-32-76t-76-31-76 31-31 76 31 76 76 32 76-32 32-76zm643 0q0-45-31-76t-76-32q-44 0-76 32t-32 76 31 76 77 31 76-31 31-76zm-596 0q0 65-45 111t-110 45q-64 0-110-46t-45-110 45-109 110-46 110 46 45 109zm644 0q0 64-45 109t-110 46q-65 0-110-46t-45-109 45-110 110-45q64 0 110 45t45 110zm-538 1q0-106-75-182t-182-75q-70 0-129 34t-94 94-35 129 35 130 94 94 129 34q106 0 182-75t75-183zm373-319q-142-62-310-62-178 0-320 61 65 0 125 26t101 68 69 102 25 124q0-64 24-122t66-101 99-68 121-28zm267 319q0-106-75-182t-182-75-182 75-76 182 76 183 182 75 182-75 75-183zm-148-315h214q-25 28-42 63t-22 64q61 85 61 188 0 87-43 161t-117 116-160 43q-74 0-139-31t-109-87q-26 32-72 100-6-12-30-46t-42-54q-44 55-109 87t-139 31q-87 0-161-43T46 718 3 557q0-103 61-188-5-28-22-64T0 242h204q83-56 198-88t241-31q125 0 235 31t194 88z"/></svg>