<svg xmlns="http://www.w3.org/2000/svg" viewBox="0 0 1000 1000"><path d="M357 786q0-29-21-51t-50-21-50 21-22 51 22 50 50 21 50-21 21-50zM143 500h214V357h-88q-7 0-12 5L148 471q-5 5-5 12v17zm714 286q0-29-21-51t-50-21-50 21-22 51 22 50 50 21 50-21 21-50zm143-607v571q0 8-2 15t-8 10-9 6-13 4-13 1-14 0-12 0q0 59-42 101t-101 42-101-42-42-101H429q0 59-42 101t-101 42-101-42-42-101H80q-4 0-12-1t-13-4-9-6-8-10-2-15q0-15 10-25t25-11V536v-20-21q0-6 2-19t3-21 8-17 13-17l110-110q11-11 28-18t33-7h89V179q0-15 11-26t25-10h571q15 0 25 10t11 26z"/></svg>