<svg xmlns="http://www.w3.org/2000/svg" viewBox="0 0 1000 1000"><path d="M250 732v107q0 8-5 13t-13 5H125q-8 0-13-5t-5-13V732q0-8 5-13t13-5h107q8 0 13 5t5 13zM143 518v107q0 8-5 13t-13 5H18q-8 0-13-5t-5-13V518q0-8 5-13t13-5h107q8 0 13 5t5 13zm321 214v107q0 8-5 13t-13 5H339q-7 0-12-5t-6-13V732q0-8 6-13t12-5h107q8 0 13 5t5 13zM357 518v107q0 8-5 13t-13 5H232q-8 0-13-5t-5-13V518q0-8 5-13t13-5h107q8 0 13 5t5 13zM37 429q-16 0-26-11T0 392v-72h287v72q0 15-11 26t-25 11H37zm642 303v107q0 8-5 13t-13 5H554q-8 0-13-5t-5-13V732q0-8 5-13t13-5h107q8 0 13 5t5 13zM571 518v107q0 8-5 13t-12 5H446q-7 0-12-5t-5-13V518q0-8 5-13t12-5h108q7 0 12 5t5 13zm322 214v107q0 8-5 13t-13 5H768q-8 0-13-5t-5-13V732q0-8 5-13t13-5h107q8 0 13 5t5 13zM786 518v107q0 8-5 13t-13 5H661q-8 0-13-5t-5-13V518q0-8 5-13t13-5h107q8 0 13 5t5 13zm214-228v7H713v-5q0-58-213-57-213 0-213 57v5H0v-7q0-9 5-24t19-36 36-42 62-42 89-38 125-26 164-11 164 11 125 26 89 38 62 42 36 42 19 36 5 24zm0 228v107q0 8-5 13t-13 5H875q-8 0-13-5t-5-13V518q0-8 5-13t13-5h107q8 0 13 5t5 13zm0-198v72q0 15-11 26t-25 11H749q-15 0-25-11t-11-26v-72h287z"/></svg>