<svg xmlns="http://www.w3.org/2000/svg" viewBox="0 0 998 1000"><path d="M499 0c-14 0-28 0-43 1C229 20 35 194 5 426c-39 296 173 550 440 572 212 17 347-71 440-182 81-97 130-239 108-394-21-145-125-284-247-355C677 27 596 0 499 0zm2 96c51 0 103 9 156 29 137 74 246 183 247 371 1 215-151 391-367 409C302 925 48 731 97 430 128 245 295 95 501 96zm184 246c-66 0-133 42-128 123 61-40 171-47 255-16-3-72-65-108-127-107zm-375 1c-60 0-120 34-124 106 37-4 77-25 112-19-14 32-29 63-35 104-42-44-95 36-42 62-39 8-25 75 15 69 14-5 23-15 35-23 28 65 104-24 43-50 61-27-12-97-39-62 18-35 19-91 58-100 36-8 71 26 108 35 8-80-62-123-131-122zm-43 238c4 0 9 4 16 15-30 30-30-14-16-15z"/></svg>