<svg xmlns="http://www.w3.org/2000/svg" viewBox="0 0 928.6 1000"><path d="M500 462v324q0 58-42 100t-101 43-100-43-43-100q0-15 11-25t25-11 25 11 11 25q0 28 22 49t49 22 50-22 22-49V462q18-6 35-6t36 6zm429 15q0 7-6 13t-12 5q-6 0-13-6-27-25-52-38t-57-13q-38 0-71 21t-58 54q-4 5-10 15t-8 14q-6 9-15 9-10 0-16-9-3-4-9-14t-9-15q-24-34-58-54t-71-21-71 21-57 54q-4 5-10 15t-8 14q-6 9-16 9t-16-9q-2-4-8-14t-10-15q-24-34-57-54t-71-21q-33 0-57 13t-52 38q-7 6-13 6-7 0-13-5t-5-13q0-3 1-4 25-102 96-178t166-114 201-38q78 0 154 22t137 63 109 105 64 140q1 1 1 4zM500 71v55q-23-1-36-1t-35 1V71q0-14 10-25t25-10 25 10 11 25z"/></svg>