<svg xmlns="http://www.w3.org/2000/svg" viewBox="0 0 1000 1000"><path d="M767 367q-4-15-16-22t-27-5q-146 35-224 35t-224-35q-14-3-27 5t-16 22 4 27 23 16q108 25 169 32-1 88-9 150t-15 87-23 64l-5 12q-5 14 1 27t20 19q5 3 13 3 24 0 33-23l5-12q30-77 39-144h24q9 67 39 144l5 12q9 23 33 23 8 0 13-3 14-5 20-19t1-27l-5-12q-16-39-23-64t-15-87-9-150q61-7 170-32 14-4 22-16t4-27zm-196-81q0-30-20-51t-51-21-50 21-21 51 21 50 50 21 51-21 20-50zm322 214q0 80-31 153t-84 125-125 84-153 31-153-31-125-84-84-125-31-153 31-153 84-125 125-84 153-31 153 31 125 84 84 125 31 153zM500 71q-87 0-166 34t-137 92-91 137-35 166 35 166 91 137 137 92 166 34 166-34 137-92 92-137 34-166-34-166-92-137-137-92-166-34zm500 429q0 102-40 194T854 854 694 960t-194 40-194-40-160-106T40 694 0 500t40-194 106-160T306 40 500 0t194 40 160 106 106 160 40 194z"/></svg>