<svg xmlns="http://www.w3.org/2000/svg" viewBox="0 0 928.6 1000"><path d="M245 709L102 852q-6 5-13 5t-12-5q-6-6-6-13t6-13l142-142q6-5 13-5t13 5q5 5 5 12t-5 13zm94 23v179q0 8-5 13t-13 5-12-5-5-13V732q0-8 5-13t12-5 13 5 5 13zM214 607q0 8-5 13t-13 5H18q-8 0-13-5t-5-13 5-13 13-5h178q8 0 13 5t5 13zm706 72q0 66-48 113l-82 81q-46 47-113 47-68 0-114-48L377 685q-12-12-24-31l134-10 152 153q15 15 38 15t38-15l82-81q16-16 16-37 0-23-16-38L644 487l10-133q20 11 31 23l188 188q47 48 47 114zM575 275l-133 10-152-153q-16-16-38-16t-38 15l-82 82q-16 15-16 37t16 38l153 153-10 134q-20-12-32-24L56 364Q9 316 9 250q0-67 47-113l82-82Q185 9 252 9t114 47l186 187q12 12 23 32zm354 46q0 8-5 13t-13 5H732q-8 0-13-5t-5-13 5-12 13-5h179q8 0 13 5t5 12zM625 18v178q0 8-5 13t-13 5-13-5-5-13V18q0-8 5-13t13-5 13 5 5 13zm227 84L709 245q-6 5-13 5t-12-5q-5-6-5-13t5-13L827 76q5-5 12-5t13 5q5 6 5 13t-5 13z"/></svg>