<svg xmlns="http://www.w3.org/2000/svg" viewBox="0 0 857.1 1000"><path d="M714 893q0-15-10-25t-25-11-25 11-11 25 11 25 25 11 25-11 10-25zm72-427q0-105-93-105-15 0-32 3-9-17-29-27t-41-9-38 10q-28-30-67-30-14 0-31 6t-26 14V143q0-29-22-50t-50-22q-28 0-50 22t-21 50v321q-11 0-27-8t-31-19-38-18-47-8q-37 0-55 24t-17 65q0 13 78 50 25 14 36 21 36 22 81 62t59 57q32 38 32 78v18h357v-18q0-40 18-93t36-108 18-101zm71-2q0 74-38 179-33 92-33 125v161q0 29-21 50t-51 21H357q-29 0-50-21t-21-50V768q0-6-3-12t-8-13-10-13-12-13-12-12-12-10-10-8q-41-36-72-56-11-7-34-18t-40-21-36-23-27-30-10-39q0-70 37-115t106-46q38 0 71 13V143q0-58 43-101T357 0q58 0 101 42t42 101v94q35 2 66 21 12-2 24-2 57 0 100 34 77-1 122 47t45 127z"/></svg>