<svg xmlns="http://www.w3.org/2000/svg" viewBox="0 0 1285.7 1000"><path d="M1277 449q9 5 9 15t-9 15l-179 107q-4 3-9 3t-9-2q-9-6-9-16v-71H593q20 32 46 92 9 21 14 31t13 27 15 26 15 19 18 15 18 4h54v-53q0-8 5-13t13-5h178q8 0 13 5t5 13v178q0 8-5 13t-13 5H804q-8 0-13-5t-5-13v-53h-54q-18 0-34-6t-28-13-25-23-21-25-19-32-16-32-15-34q-13-30-21-45t-20-37-25-30-26-9H281q-12 47-50 77t-88 30q-59 0-101-42T0 464t42-101 101-42q49 0 88 31t50 77h58q14 0 26-10t25-30 20-36 21-46l15-33q5-11 16-32t19-32 21-26 25-22 28-14 34-5h60q12-32 39-52t62-20q45 0 76 32t31 76-31 75-76 32q-35 0-62-20t-39-52h-60q-9 0-18 5t-18 14-15 19-15 26-13 28-14 30q-26 60-46 93h621v-72q0-10 9-16t18 1z"/></svg>