<svg xmlns="http://www.w3.org/2000/svg" viewBox="0 0 1142.9 1000"><path d="M393 500q-89 0-152-63t-62-151 62-152 152-63 151 63 63 152-63 151-151 63zm536 71h196q7 0 13 6t5 12v107q0 8-5 13t-13 5H929v197q0 7-6 12t-12 6H804q-8 0-13-6t-5-12V714H589q-7 0-12-5t-6-13V589q0-7 6-12t12-6h197V375q0-7 5-13t13-5h107q7 0 12 5t6 13v196zM518 696q0 29 21 51t50 21h143v133q-38 28-95 28H149q-67 0-108-39T0 784q0-30 2-58t8-61 15-60 24-55 34-45 48-30 62-11q11 0 22 10 44 34 86 51t92 17 92-17 86-51q11-10 22-10 73 0 121 54H589q-29 0-50 21t-21 50v107z"/></svg>