<svg xmlns="http://www.w3.org/2000/svg" viewBox="0 0 1142.9 1000"><path d="M393 500q-89 0-152-63t-62-151 62-152 152-63 151 63 63 152-63 151-151 63zm601 179l139 138q5 5 5 13t-5 13l-76 76q-5 5-12 5-8 0-13-5L893 780 754 919q-5 5-13 5-7 0-12-5l-76-76q-5-5-5-13t5-13l139-138-139-139q-5-5-5-13t5-13l76-75q5-5 12-5 8 0 13 5l139 139 139-139q5-5 13-5 7 0 12 5l76 75q5 5 5 13t-5 13zm-278 0L615 780q-21 20-21 50t21 51l46 46q-11 2-24 2H149q-67 0-108-39T0 784q0-30 2-58t8-61 15-60 24-55 34-45 48-30 62-11q11 0 22 10 86 68 178 68t178-68q11-10 22-10 15 0 31 4-15 15-22 27t-8 32q0 30 21 51z"/></svg>