<svg xmlns="http://www.w3.org/2000/svg" viewBox="0 0 857.1 1000"><path d="M321 857l54-250-54-71-71-36zm143 0l72-357-72 36-53 71zm90-564q-1-2-3-3-5-4-53-4-39 0-93 10-4 1-12 1t-12-1q-54-10-93-10-48 0-54 4-1 1-2 3 1 11 2 16 2 1 5 3t4 6q1 2 4 11t4 12 4 9 5 10 5 8 7 7 7 6 10 4 12 2 13 1q20 0 33-7t18-16 8-20 7-16 10-7h6q6 0 10 7t6 16 9 20 18 16 33 7q7 0 13-1t12-2 9-4 8-6 7-7 5-8 5-10 4-9 4-12 4-11q1-4 4-6t4-3q2-5 3-16zm232 491q0 68-41 106t-108 39H149q-67 0-108-39T0 784q0-34 3-66t10-70 21-69 36-58 52-41L71 357h120q-12-36-12-71 0-7 1-18-109-23-109-54 0-32 118-55 9-35 28-75t40-63q18-21 42-21 17 0 47 17t47 18 47-18 47-17q24 0 42 21 20 23 39 63t29 75q117 23 117 55 0 31-108 54 4 45-11 89h119l-45 126q35 18 60 54t36 80 16 84 5 83z"/></svg>