<svg xmlns="http://www.w3.org/2000/svg" viewBox="0 0 1142.9 1000"><path d="M929 18q0-8 5-13t12-5h161q15 0 25 11t11 25v160q0 8-5 13t-13 5h-36q-7 0-12-5t-6-13v-74L930 264q42 53 60 119t5 138q-18 101-92 173t-175 88q-124 19-228-50-65 43-143 51v74h54q8 0 13 5t5 13v36q0 8-5 13t-13 5h-54v53q0 8-5 13t-13 5h-35q-8 0-13-5t-5-13v-53h-54q-8 0-13-5t-5-13v-36q0-8 5-13t13-5h54v-74q-87-9-156-61T25 590 3 418q14-104 89-179t179-92q125-19 229 50 82-54 179-54 112 0 200 70l142-142h-75q-7 0-12-5t-5-12V18zM500 639q71-73 71-175t-71-174q-71 73-71 174t71 175zM71 464q0 103 74 177t176 73q66 0 122-32-86-93-86-218t86-218q-56-32-122-32-103 0-176 74T71 464zm608 250q103 0 176-73t74-177-74-176-176-74q-66 0-122 32 86 93 86 218t-86 218q56 32 122 32z"/></svg>