<svg xmlns="http://www.w3.org/2000/svg" viewBox="0 0 1000 1000"><path d="M999 295q7 87-29 163T866 583t-152 58v145h125q8 0 13 5t5 13v35q0 8-5 13t-13 5H714v125q0 8-5 13t-13 5h-35q-8 0-13-5t-5-13V857H357v125q0 8-5 13t-13 5h-35q-8 0-13-5t-5-13V857H161q-8 0-13-5t-5-13v-35q0-8 5-13t13-5h125V641q-84-9-152-58T30 458 1 295Q11 180 93 96T290 2q115-12 210 52 95-64 210-52 115 10 197 94t92 199zM500 496q71-73 71-175t-71-174q-71 73-71 174t71 175zm-179 75q65 0 122-31-86-93-86-219 0-125 86-218-57-32-122-32-103 0-176 74T71 321t74 177 176 73zm322 215V641q-77-9-143-53-66 44-143 53v145h286zm36-215q103 0 176-73t74-177-74-176-176-74q-65 0-122 32 86 93 86 218 0 126-86 219 57 31 122 31z"/></svg>