<svg xmlns="http://www.w3.org/2000/svg" viewBox="0 0 857.1 1000"><path d="M586 581q0-44-16-82-23 14-47 19 12 28 12 63 0 66-43 111t-107 46-108-46-44-111q0-64 44-111t108-47q29 0 54 11 2-24 15-49-33-12-69-12-86 0-144 61t-58 147 58 146 144 59 143-60 58-145zm-99-198q1 13 1 39 0 36-3 69t-11 74-23 73-38 59-56 39q11 2 23 2h6q122-78 122-230 0-64-21-125zm0 0q-3-45-25-96t-55-73q52 87 80 169zm187-59q0-57-29-97-23 48-69 61-39 10-61 30t-22 55q0 23 13 43 41-9 79-37t53-64q-2 29-42 62t-77 54q29 29 61 29 29 0 51-20t33-51q10-23 10-65zm183-92v536q0 66-47 113t-114 48H161q-67 0-114-48T0 768V232q0-66 47-113t114-48h535q67 0 114 48t47 113z"/></svg>