<svg xmlns="http://www.w3.org/2000/svg" viewBox="0 0 714.3 1000"><path d="M586 617q0 120-82 209-83 90-211 90-129 0-211-90Q0 737 0 617q0-82 38-151t105-109 150-41q54 0 102 17-18 35-22 70-37-15-80-15-93 0-157 68T73 619q0 95 63 161t157 66 157-66 62-161q0-50-18-93 37-7 69-27 23 55 23 118zM472 512q0 107-44 192T295 845l-8 1q-16 0-35-3 47-18 82-57t56-86 32-106 17-107 4-100q0-38-2-57 31 89 31 182zm-31-183v1Q401 210 327 84q49 33 79 104t35 141zm137 113q-47 0-90-42 122-67 162-138 11-20 12-31-24 52-78 93t-114 54q-20-30-20-63 0-20 10-44t24-38q26-24 87-41 33-9 60-33t41-56q41 59 41 141 0 61-13 95-18 43-50 73t-72 30z"/></svg>