<svg xmlns="http://www.w3.org/2000/svg" viewBox="0 0 1000 1000"><path d="M193 0C86 0 0 86 0 193v614c0 107 86 193 193 193h614c107 0 193-86 193-193V193C1000 86 914 0 807 0H193zm517 197h9c74 2 108 50 104 143-3 69-52 164-146 285-97 126-179 189-247 189-41 0-77-38-106-115l-57-212c-22-77-45-115-69-115-6 0-24 11-56 33l-34-43c35-31 70-62 104-93 47-40 83-62 106-64 56-5 90 33 103 114 14 88 23 142 29 163 16 73 33 109 52 109 15 0 38-23 68-70s46-83 48-107c4-41-12-61-48-61-17 0-35 3-53 11 34-111 98-167 193-167z"/></svg>