<svg xmlns="http://www.w3.org/2000/svg" viewBox="0 0 1000 1000"><path d="M40 186c-22 0-40 18-40 40v548c0 22 18 40 40 40h920c22 0 40-18 40-40V226c0-22-18-40-40-40H40zm557 187c25 0 44 5 57 10l-9 54-6-3c-11-5-26-10-47-9-24 0-35 11-35 21-1 11 13 19 35 30 36 18 53 39 52 67 0 52-43 85-109 85-28-1-55-6-70-13l9-56 8 4c21 10 34 13 59 13 18 0 38-7 38-24 0-11-8-18-33-30-24-12-55-32-55-67 1-48 44-82 106-82zm-509 8h102c13 0 24 5 28 20l22 112 7 34 61-166h67l-99 243h-67l-53-196c32 17 59 36 74 63-4-9-9-18-16-28-8-11-25-25-32-31-24-20-58-37-94-46v-5zm313 0h65l-40 243h-65l40-243zm368 0h49l52 243h-59s-6-28-8-36h-82c-2 6-13 36-13 36h-67l95-223c6-15 18-20 33-20zm5 66c-3 9-9 23-9 23s-20 53-25 67h53c-3-12-15-70-15-70l-4-20z"/></svg>