<svg xmlns="http://www.w3.org/2000/svg" viewBox="0 0 1000 1000"><path d="M196 0C88 0 0 88 0 196v608c0 108 88 196 196 196h608c108 0 196-88 196-196V196C1000 88 912 0 804 0H196zm112 226h197c41 0 73 1 94 4s41 10 59 20c20 11 35 25 45 43s15 39 15 62c0 28-7 52-21 73-13 21-32 37-56 47v3c34 7 62 22 83 45 21 22 31 52 31 90 0 28-5 52-16 73-10 21-24 39-42 52-21 17-44 29-70 36-25 7-56 10-95 10H308V226zm140 102v118h17c24 0 41 0 51-1 9 0 19-3 30-7 11-6 19-13 23-22s6-20 6-32c0-9-2-19-7-28-4-10-11-17-21-21s-20-6-33-6c-13-1-32-1-57-1h-9zm0 214v140h7c37 0 62-1 76-1 14-1 28-4 43-10 13-6 22-14 28-24 6-11 8-23 8-36 0-18-3-31-10-41s-18-17-32-22c-8-3-20-5-35-6h-85z"/></svg>