<svg xmlns="http://www.w3.org/2000/svg" viewBox="0 0 1071.4 1000"><path d="M1070 290q13 36-84 164-13 18-36 48-22 28-31 40t-17 27-7 24 8 19 18 24 32 30q2 1 2 2 79 73 107 123 2 3 4 7t4 15-1 19-14 15-33 7l-142 3q-14 2-32-3t-29-13l-11-6q-17-12-39-36t-38-43-34-33-32-8q-1 0-4 2t-10 8-12 16-9 29-4 44q0 8-2 15t-4 10l-2 3q-10 11-30 12h-64q-40 3-81-9t-74-29-57-37-40-32l-14-14q-5-5-15-17t-40-50-59-85-68-117T3 312q-4-9-4-15t2-9l2-3q9-11 32-11l153-1q7 1 13 3t9 5l3 2q9 6 13 18 11 28 26 57t23 46l9 16q16 34 31 58t27 38 23 22 19 8 15-3l3-3q2-2 7-12t7-26 5-46 0-69q-1-23-5-41t-7-26l-4-6q-14-19-47-24-8-2 3-14 8-10 21-17 29-14 133-13 46 1 75 7 12 3 19 8t12 13 5 18 2 25 0 31-2 40 0 46q0 6-1 23t0 27 2 22 6 22 13 14q4 1 9 2t15-6 21-19 29-38 38-60q33-58 60-125 2-6 5-10t6-6l3-2 2-1 8-2h11l160-1q22-3 36 1t17 10z"/></svg>