<svg xmlns="http://www.w3.org/2000/svg" viewBox="0 0 785.7 1000"><path d="M344 943q0-7-7-33t-17-60-11-38q-1-2-3-15t-5-20-7-12q-9-8-29-8-13 0-39 3t-40 3q-19 0-26-6-3-3-6-8t-4-12-4-13-3-10q-20-72-20-143t20-142q1-2 3-10t4-14 4-11 6-8q7-7 26-7 14 0 40 3t39 4q20 0 29-8 5-5 7-12t5-20 3-15q1-5 11-39t17-59 7-33q0-12-24-29t-42-24q-11-4-25-4-19 0-55 10-32 9-54 22t-39 37-26 39-25 53q-4 7-5 11-28 59-38 120T0 571t11 137 38 120q31 68 46 90 35 51 100 71l3 1q36 10 55 10 14 0 25-4 18-7 42-24t24-29zm89-510q-14 0-25-11t-11-25 11-25q21-21 21-51 0-29-21-50-11-11-11-26t11-25 25-10 25 10q42 42 42 101t-42 101q-12 11-25 11zm101 101q-15 0-25-11-11-10-11-25t11-25q62-63 62-152t-62-151q-11-11-11-26t11-25 25-10 25 10q84 84 84 202t-84 202q-10 11-25 11zm101 101q-15 0-25-11-11-10-11-25t11-25q50-51 77-116t27-137-27-136-77-116q-11-11-11-26t11-25 25-10 25 10q61 61 93 139t33 164-33 164-93 139q-10 11-25 11z"/></svg>