<svg xmlns="http://www.w3.org/2000/svg" viewBox="0 0 1142.9 1000"><path d="M324 257q0-23-14-37t-37-14q-24 0-42 15t-19 36q0 22 19 36t42 14q23 0 37-13t14-37zm414 283q0-15-14-28t-36-12q-16 0-28 13t-13 27q0 16 13 28t28 13q22 0 36-12t14-29zM607 257q0-23-14-37t-37-14q-24 0-42 15t-18 36q0 22 18 36t42 14q23 0 37-13t14-37zm354 283q0-15-15-28t-36-12q-15 0-27 13t-13 27q0 16 13 28t27 13q22 0 36-12t15-29zM813 319q-18-3-40-3-94 0-173 43T475 476t-45 160q0 44 13 85-20 2-38 2-15 0-28-1t-31-4-25-4-30-6-28-5l-141 70 40-121Q0 538 0 378q0-94 54-173T202 80t203-45q98 0 185 36t146 102 77 146zm330 313q0 65-38 124t-104 108l31 101-111-60q-84 20-122 20-94 0-173-39T501 779t-46-147 46-148 125-107 173-39q90 0 169 39t127 108 48 147z"/></svg>