<svg xmlns="http://www.w3.org/2000/svg" viewBox="0 0 857.1 1000"><path d="M803 454q18 19 16 45l-25 308q-2 23-19 39t-40 16q-3 0-5-1-25-2-40-20t-15-44l20-239-80 4q31 64 31 134 0 121-83 208l-76-76q50-57 50-132 0-81-57-138t-138-57q-75 0-132 51l-76-77q67-64 158-79l148-167-83-49-101 90q-19 17-43 15t-41-19-15-43 19-41L310 63q14-13 33-15t36 8l272 158q20 12 27 38 10 38-14 65L549 447l207-11q28-2 47 18zM692 199q-41 0-70-29t-29-71 29-70 70-29 71 29 29 70-29 71-71 29zM342 892q59 0 110-34l77 77q-81 65-187 65-82 0-152-41T79 849 38 696q0-105 65-187l77 77q-33 50-33 110 0 81 57 138t138 58z"/></svg>