<svg xmlns="http://www.w3.org/2000/svg" viewBox="0 0 1142.9 1000"><path d="M571 850q-11 0-51-41t-41-52q0-18 35-30t57-13 58 13 35 30q0 11-41 52t-52 41zm151-151q-1 0-22-14t-57-28-72-14-71 14-57 28-22 14q-10 0-52-42t-42-52q0-7 5-13 44-43 109-67t130-25 131 25 109 67q5 6 5 13 0 10-42 52t-52 42zm152-152q-6 0-12-5-76-58-141-86t-150-27q-47 0-95 12t-83 29-63 35-44 30-18 12q-9 0-51-42t-42-52q0-7 6-12 74-74 178-115t212-40 213 40 178 115q6 5 6 12 0 10-42 52t-52 42zm152-151q-6 0-13-5-99-88-207-132t-235-45-234 45-207 132q-7 5-13 5-9 0-51-42t-43-52q0-7 6-13 104-104 248-161t294-57 295 57 248 161q5 6 5 13 0 10-42 52t-51 42z"/></svg>