<svg xmlns="http://www.w3.org/2000/svg" viewBox="0 0 1285.7 1000"><path d="M834 915L669 527q-14 27-88 170T470 915h-15q-14 0-15-1-46-108-143-328T152 254q-11-28-37-60t-57-56-57-24q0-3-1-14t0-15h325v28q-21 1-44 9t-37 24-6 36q15 33 121 278t132 302q17-34 78-149t73-138q-11-22-71-157t-75-165q-22-38-113-39V86h287v27q-34 1-52 14t-7 38q18 39 48 106t48 105q61-120 97-203 13-31-6-44t-72-15q1-4 1-14V86h195q40 0 52-1v28q-35 1-67 18t-50 45L738 423q8 18 71 162t68 153l246-568q-7-21-27-35t-37-17-30-5V85l256 3 1 1-1 24q-77 2-112 81-293 679-312 721h-27z"/></svg>