<svg xmlns="http://www.w3.org/2000/svg" viewBox="0 0 1000 1000"><path d="M287 667l45-167h-89l42 167q1 1 1 2t0 2q0-1 1-2t0-2zm65-238l19-72H208l18 72h126zm107 0h77l-19-72h-39zm250 238l44-167h-91l46 167v2q0 2 1 2v-2-2zm62-238l19-72H624l19 72h128zm229 17v36q0 8-5 13t-13 5H863l-91 344q-4 13-17 13h-89q-14 0-18-13l-92-344H439l-93 344q-4 13-17 13h-89q-6 0-11-4t-6-9l-89-344H18q-8 0-13-5t-5-13v-36q0-7 5-12t13-5h98l-19-72H18q-8 0-13-5t-5-13v-35q0-8 5-13t13-5h61L29 94q-3-9 3-16 5-7 14-7h77q14 0 17 14l50 201h201l54-201q4-14 17-14h70q14 0 18 14l54 201h204l52-201q3-14 17-14h77q9 0 14 7 6 7 3 16l-51 192h62q8 0 13 5t5 13v35q0 8-5 13t-13 5h-81l-19 72h100q8 0 13 5t5 12z"/></svg>