<svg xmlns="http://www.w3.org/2000/svg" viewBox="0 0 1000 1000"><path d="M71 500q0-91 37-175l205 561q-109-53-176-157T71 500zm719-22q0 11-2 22t-5 27-7 25-9 33-10 32l-43 143-155-461q26-2 49-4 11-2 15-11t-2-17-15-8l-115 6q-42-1-113-6-6 0-11 3t-6 9-1 10 5 9 11 5l44 4 67 183-94 281-156-464q26-2 49-4 11-2 15-11t-2-17-15-8l-115 6h-13q-9 0-14-1 58-89 153-141t205-52q82 0 157 29t133 84h-6q-31 0-51 22t-21 53q0 7 1 14t2 12 5 13 5 11 7 13 7 12 8 13 8 13q35 60 35 118zm-283 59l133 361q0 4 2 7-70 24-142 24-62 0-121-18zm369-243q53 97 53 206 0 117-58 215T715 871l132-379q33-94 33-154 0-23-4-44zM500 0q102 0 194 40t160 106 106 160 40 194-40 194-106 160-160 106-194 40-194-40-160-106T40 694 0 500t40-194 106-160T306 40 500 0zm0 977q97 0 185-38t152-102 102-152 38-185-38-185-102-152T685 61 500 23 315 61 163 163 61 315 23 500t38 185 102 152 152 102 185 38z"/></svg>