<svg xmlns="http://www.w3.org/2000/svg" viewBox="0 0 857.1 1000"><path d="M431 736v71q0 163-3 170-7 18-28 22-31 6-102-21t-90-49q-8-9-10-20 0-7 2-15 3-6 19-26t101-121q1 0 34-39 8-11 22-14t28 2q13 6 20 17t7 23zm-83-140q-1 31-29 39l-67 22Q99 706 89 706q-19-1-30-20-6-14-9-42-5-42 0-93t17-69 31-18q8 0 113 43 40 16 64 26l47 19q13 5 20 17t6 27zm461 166q-4 30-51 90t-75 70q-21 8-36-3-7-6-102-161l-27-43q-7-11-6-25t11-26q19-24 46-14 1 0 67 22 113 37 135 44t26 12q16 12 12 34zM434 409q3 57-30 68-32 10-64-40L130 104q-5-20 10-35 23-24 116-50T381 2q23 5 28 25 1 10 12 170t13 212zm370 60q1 22-15 33-8 6-183 48-38 9-51 13v-1q-13 3-25-2t-21-18q-17-26 0-49 1 0 42-57l84-114q14-19 19-21 15-11 36-1 27 12 68 74t46 94v1z"/></svg>