<svg xmlns="http://www.w3.org/2000/svg" viewBox="0 0 1000 1000"><path d="M450 140c-16 0-31 4-44 13-29 20-45 82-65 126-21 48-40 97-61 132-56-64-95-206-163-258-22-17-70-16-92 0-58 44 0 122 24 163 52 90 109 186 153 269-28 75-172 287 20 275 47-30 67-93 92-150 52-116 96-216 150-336 22-50 76-124 64-180-6-32-42-54-78-54zm466 46c-28 0-56 13-68 38-20 23-42 45-65 65-11 14-23 26-37 37-16 17-29 37-51 48V241c-1-72-136-72-136 0v378c6 26 18 47 47 50h41c28-4 44-21 48-50v-82c0-28-5-76 13-48 28 27 67 57 102 89 34 31 67 80 102 88 73 16 106-54 79-105-29-54-111-89-147-136 24-55 154-88 143-184-4-37-37-56-71-55z"/></svg>