<svg xmlns="http://www.w3.org/2000/svg" viewBox="0 0 857.1 1000"><path d="M513 727v-88q0-27-16-27-10 0-19 8v125q9 9 19 9 16 0 16-27zm103-68h36v-19q0-28-18-28t-18 28v19zM297 511v39h-45v236h-41V550h-44v-39h130zm112 70v205h-37v-23q-22 25-43 25-18 0-23-15-3-10-3-30V581h36v151q0 13 1 14 0 8 8 8 11 0 24-17V581h37zm141 62v81q0 29-4 41-7 23-30 23-19 0-38-22v20h-37V511h37v89q18-22 38-22 23 0 30 24 4 11 4 41zm140 72v5q0 16-1 24-2 12-9 22-15 22-44 22t-46-21q-11-15-11-48v-72q0-33 11-48 16-21 45-21t43 21q12 16 12 48v43h-74v36q0 28 19 28 13 0 16-14 0-1 1-4t0-9v-12h38zM438 255v87q0 28-18 28t-18-28v-87q0-29 18-29t18 29zm298 398q0-99-11-145-6-25-24-41t-42-20q-76-8-230-8t-230 8q-24 3-42 20t-24 41q-11 48-11 145 0 98 11 145 5 24 24 41t42 19q76 9 230 9t230-9q24-2 42-19t23-41q12-47 12-145zM314 290l50-166h-41l-29 109-29-109h-44q4 13 13 39l13 38q20 58 26 89v112h41V290zm161 45v-73q0-32-11-48-16-22-44-22t-43 22q-12 16-12 48v73q0 32 12 48 15 22 43 22t44-22q11-15 11-48zm102 67h37V195h-37v158q-13 17-24 17-8 0-9-8V195h-38v164q0 20 4 30 6 16 24 16 20 0 43-26v23zm280-170v536q0 66-47 113t-114 48H161q-67 0-114-48T0 768V232q0-66 47-113t114-48h535q67 0 114 48t47 113z"/></svg>