<?xml version="1.0" encoding="utf-8"?><svg xmlns="http://www.w3.org/2000/svg" xmlns:xlink="http://www.w3.org/1999/xlink"><symbol viewBox="-10 -10 1020 1020" id="amazon" xmlns="http://www.w3.org/2000/svg"><path d="M866 824q8-4 14-2t6 10-8 18q-7 9-25 25t-53 38-79 41-105 32-128 14q-66 0-132-17t-117-43-96-58-74-59-47-48q-5-6-6-10t1-6 4-4 7-1 6 2q107 65 168 93 217 98 445 50 106-22 219-75zm115-65q6 9 1 39t-15 58q-19 46-48 69-9 8-14 5t0-14q11-25 24-68t4-55q-3-3-9-6t-15-3-16-2-20 0-17 1-18 2-12 1q-3 1-7 1t-6 1-5 0-4 0h-7l-1-1-1-1q-4-9 26-23t57-16q26-4 61-1t42 13zM761 512q0 18 8 36t18 32 21 26 18 18l7 6-126 125q-23-21-45-42t-32-33l-11-11q-6-6-13-18-22 33-55 57t-71 35-78 13-77-12-65-36-47-63-17-91q0-47 16-86t40-65 59-46 69-32 72-19 67-11 55-3v-71q0-36-11-54-19-30-68-30-3 0-9 1t-23 6-31 17-31 33-27 54l-164-15q0-34 12-67t38-63 60-53 84-36T511 0q55 0 101 14t72 34 45 47 25 48 7 41v328zm-375 12q0 48 39 74 37 25 78 12 47-14 63-68 8-25 8-57v-90q-33 1-62 7t-59 18-49 40-18 64z"/></symbol><symbol viewBox="-10 -10 662.9 1020" id="angle-down" xmlns="http://www.w3.org/2000/svg"><path d="M600 411q0 7-6 12L334 684q-5 5-13 5t-12-5L49 423q-6-5-6-12t6-13l28-28q5-6 12-6t13 6l219 219 220-219q5-6 13-6t12 6l28 28q6 5 6 13z"/></symbol><symbol viewBox="-10 -10 805.7 1020" id="apple" xmlns="http://www.w3.org/2000/svg"><path d="M777 678q-21 70-68 139-72 110-144 110-27 0-78-18-48-18-84-18-34 0-79 19t-74 19q-85 0-168-145Q0 638 0 503q0-127 63-208t159-81q40 0 98 17t77 17q25 0 80-19 57-19 97-19 66 0 119 36 29 20 58 56-44 37-64 66-36 52-36 115 0 69 38 125t88 70zM568 23q0 34-17 76-16 42-52 77-30 30-60 40-20 7-58 10 2-83 44-143 41-60 139-83 1 2 2 6t1 6v6q0 4 1 5z"/></symbol><symbol viewBox="-10 -10 1020 1020" id="bandcamp" xmlns="http://www.w3.org/2000/svg"><path d="M597 657l171-314H403L232 657h365zm403-157q0 102-40 194T854 854 694 960t-194 40-194-40-160-106T40 694 0 500t40-194 106-160T306 40 500 0t194 40 160 106 106 160 40 194z"/></symbol><symbol viewBox="-10 -10 877.1 1020" id="clock" xmlns="http://www.w3.org/2000/svg"><path d="M500 304v250q0 7-5 12t-13 5H304q-8 0-13-5t-5-12v-36q0-8 5-13t13-5h125V304q0-8 5-13t12-5h36q8 0 13 5t5 13zm232 196q0-83-41-152T581 237t-152-41-153 41-110 111-41 152 41 152 110 111 153 41 152-41 110-111 41-152zm125 0q0 117-57 215T644 871t-215 58-216-58T58 715 0 500t58-215 155-156 216-58 215 58 156 156 57 215z"/></symbol><symbol viewBox="-10 -10 1020 1020" id="discogs" xmlns="http://www.w3.org/2000/svg"><path d="M359.3 499.7c0-78.3 63.5-141.8 141.7-141.8 78.3 0 141.7 63.4 141.7 141.8 0 78.3-63.5 141.7-141.7 141.7-78.2 0-141.7-63.4-141.7-141.7zm6.2 0c.2 74.9 60.7 135.4 135.5 135.5 74.8 0 135.6-60.7 135.6-135.5-.1-74.9-60.7-135.5-135.6-135.6-74.8 0-135.5 60.7-135.5 135.6z"/><path d="M523.5 499.7c0 12.3-10.1 22.3-22.4 22.3-12.3 0-22.4-10-22.4-22.3 0-12.4 10-22.4 22.4-22.4 12.3 0 22.4 10 22.4 22.4z"/><path fill="none" d="M501.1 314.8c-102.2 0-184.9 82.8-184.9 184.9 0 52.2 21.7 99.2 56.5 132.8l-.6-.6-48.2 52.1c16.8 16.2 35.8 30.1 56.6 41.3l34.8-62c25.7 13.5 54.9 21.2 85.9 21.2 102.1 0 184.9-82.8 184.9-184.9 0-49.4-19.5-94.2-51-127.3l48.5-52.2c-16.5-16.7-35.2-31.2-55.7-42.9l-34.2 62.4c-27.4-15.7-58.9-24.8-92.6-24.8zM262.4 750.5l-49.2 53.2c26.2 24.8 55.4 46.3 87.3 63.7l35.5-63.2c-26.8-14.6-51.5-32.8-73.6-53.7zM745.1 253.8l49.3-53.1c-26.3-25.8-56-48.2-88.3-66.4l-34.8 63.6c27 15.4 51.8 34.2 73.8 55.9zM689.7 313.4l49.1-52.8c-21.4-21.3-45.6-39.6-72-54.6l-34.6 63.2c21.1 12.1 40.5 27 57.5 44.2zM317.6 690.8l-48.9 52.9c21.5 20.5 45.6 38.2 71.9 52.5l35.3-62.8c-21.4-11.5-41-25.9-58.3-42.6z"/><path d="M245.1 499.7c0 72.4 30.2 137.8 78.7 184.4L372 632l.6.6c-34.8-33.6-56.5-80.7-56.5-132.8 0-102.1 82.7-184.9 184.9-184.9 33.7 0 65.2 9.1 92.4 24.9l34.2-62.4C590.2 256 547 243.8 501 243.8c-141-.2-255.9 114.7-255.9 255.9zM686 499.7c0 102.1-82.8 184.9-184.9 184.9-31 0-60.2-7.7-85.9-21.2l-34.8 62c36 19.3 77.1 30.3 120.7 30.3 141.2 0 256-114.8 256-256 0-69.9-28.2-133.3-73.7-179.5L635 372.3c31.5 33.2 51 78 51 127.4z"/><path d="M163.9 499.7c0 95.9 40.3 182.6 104.8 244.1l48.9-52.9c-50.3-48.3-81.7-116.1-81.7-191.2 0-146.3 119-265.2 265.2-265.2 47.6 0 92.3 12.7 131 34.8l34.6-63.2c-49-27.7-105.5-43.7-165.6-43.7-185.9 0-337.2 151.3-337.2 337.3zM766.4 499.7c0 146.3-119 265.2-265.2 265.2-45.3 0-87.9-11.4-125.3-31.5l-35.3 62.8c47.8 26 102.5 40.7 160.6 40.7 186 0 337.3-151.3 337.3-337.3 0-93.3-38.1-177.9-99.6-239.1l-49.1 52.8c47.3 48 76.6 113.8 76.6 186.4z"/><path d="M847.6 499.7c0 191.1-155.4 346.5-346.5 346.5-59.7 0-116-15.2-165.1-41.9l-35.5 63.2c59.6 32.6 128 51.2 200.6 51.2 231 0 419-188 419-419 0-117-48.2-222.8-125.7-298.9l-49.3 53.1c63.3 62.8 102.5 149.7 102.5 245.8zM82.1 499.7c0 119.6 50.5 227.6 131.1 304l49.2-53.2c-66.3-63.2-107.8-152.2-107.8-250.8 0-191.1 155.4-346.5 346.5-346.5 61.8 0 119.8 16.3 170.1 44.8l34.8-63.6c-60.6-34.2-130.5-53.7-204.9-53.7-231-.1-419 187.9-419 419z"/><path d="M848.8 142.3L800.7 194c79.3 77.8 128.7 186 128.7 305.7 0 236.1-192.1 428.2-428.2 428.2-74.3 0-144.2-19-205.1-52.4l-35.6 63.4c71.2 39.1 152.9 61.4 239.8 61.5 276.1 0 500.1-223.9 500.1-500-.2-140.5-58.3-267.3-151.6-358.1zM72.9 499.7C72.9 263.5 265 71.4 501.1 71.4c76 0 147.4 20 209.4 54.9l33.9-62C674.4 24.9 594 1.9 508.3.5h-8.1C225.7 1 3.3 221.7.3 495.7v4.8C.6 643.8 61 772.8 157.6 863.9l49.4-53.4C124.5 732.4 72.9 621.9 72.9 499.7z"/></symbol><symbol viewBox="-10 -10 591.4 1020" id="down-dir" xmlns="http://www.w3.org/2000/svg"><path d="M571 393q0 14-10 25L311 668q-11 11-25 11t-25-11L11 418Q0 407 0 393t11-25 25-11h500q14 0 25 11t10 25z"/></symbol><symbol viewBox="-10 -10 591.4 1020" id="facebook" xmlns="http://www.w3.org/2000/svg"><path d="M535 7v147h-87q-48 0-65 20t-17 60v106h164l-22 165H366v424H195V505H53V340h142V218q0-104 58-161T408 0q82 0 127 7z"/></symbol><symbol viewBox="-10 -10 877.1 1020" id="google" xmlns="http://www.w3.org/2000/svg"><path d="M429 439h404q7 37 7 71 0 121-51 216T644 875t-215 54q-88 0-167-34t-137-91-91-137T0 500t34-167 91-137 137-91 167-34q167 0 287 113L599 296q-68-67-170-67-72 0-133 37t-97 98-36 136 36 136 97 98 133 37q48 0 89-14t67-33 46-46 28-49 13-43H429V439z"/></symbol><symbol viewBox="-10 -10 948.6 1020" id="home" xmlns="http://www.w3.org/2000/svg"><path d="M786 554v267q0 15-11 25t-25 11H536V643H393v214H179q-15 0-25-11t-11-25V550l321-264 321 264q1 1 1 4zm124-39l-34 41q-5 5-12 6h-2q-7 0-12-3L464 237 78 559q-7 4-13 3-7-1-12-6l-35-41q-4-6-3-13t6-12l401-334q18-15 42-15t43 15l136 113V161q0-8 5-13t13-5h107q8 0 13 5t5 13v227l122 102q6 4 6 12t-4 13z"/></symbol><symbol viewBox="-10 -10 877.1 1020" id="info-circled" xmlns="http://www.w3.org/2000/svg"><path d="M571 768v-89q0-8-5-13t-12-5h-54V375q0-8-5-13t-13-5H304q-8 0-13 5t-5 13v89q0 8 5 13t13 5h53v179h-53q-8 0-13 5t-5 13v89q0 8 5 13t13 5h250q7 0 12-5t5-13zm-71-500v-89q0-8-5-13t-13-5H375q-8 0-13 5t-5 13v89q0 8 5 13t13 5h107q8 0 13-5t5-13zm357 232q0 117-57 215T644 871t-215 58-216-58T58 715 0 500t58-215 155-156 216-58 215 58 156 156 57 215z"/></symbol><symbol viewBox="-10 -10 877.1 1020" id="instagram" xmlns="http://www.w3.org/2000/svg"><path d="M571 500q0-59-41-101t-101-42-101 42-42 101 42 101 101 42 101-42 41-101zm77 0q0 91-64 156t-155 64-156-64-64-156 64-156 156-64 155 64 64 156zm61-229q0 21-15 36t-37 15-36-15-15-36 15-36 36-15 37 15 15 36zM429 148H327q-20 0-54 2t-57 5-40 11q-28 11-49 32t-33 49q-6 16-10 40t-6 58-1 53 0 59 0 43 0 43 0 59 1 53 6 58 10 40q12 28 33 49t49 32q16 6 40 11t57 5 54 2 59 0 43 0 42 0 59 0 54-2 58-5 39-11q28-11 50-32t32-49q6-16 10-40t6-58 1-53 0-59 0-43 0-43 0-59-1-53-6-58-10-40q-11-28-32-49t-50-32q-16-6-39-11t-58-5-54-2-59 0-42 0zm428 352q0 128-3 177-5 116-69 180t-179 69q-50 3-177 3t-177-3q-116-6-180-69T3 677q-3-49-3-177t3-177q5-116 69-180t180-69q49-3 177-3t177 3q116 6 179 69t69 180q3 49 3 177z"/></symbol><symbol viewBox="-10 -10 591.4 1020" id="location" xmlns="http://www.w3.org/2000/svg"><path d="M429 357q0-59-42-101t-101-42-101 42-42 101 42 101 101 42 101-42 42-101zm142 0q0 61-18 100L350 889q-9 18-27 29t-37 11-38-11-26-29L18 457Q0 418 0 357q0-118 84-202t202-84 202 84 83 202z"/></symbol><symbol viewBox="-10 -10 1305.7 1020" id="mixcloud" xmlns="http://www.w3.org/2000/svg"><path d="M918 613q0-33-19-60t-49-38q-3 25-12 51-4 14-16 22t-25 7q-6 0-13-1-17-6-25-22t-2-32q13-40 13-80 0-69-34-127t-93-93-127-34q-75 0-138 41t-93 108q60 16 105 60 12 12 12 30t-12 30-31 13-30-13q-42-41-101-41t-101 41-42 101 42 101 101 41h584q44 0 75-31t31-74zm85 0q0 79-56 135t-135 56H228q-94 0-161-67T0 576q0-86 56-149t139-76q34-103 123-166t198-64q131 0 228 88t109 218q65 14 108 66t42 120zm140 0q0 97-54 178-13 18-36 18-13 0-24-7-14-10-18-27t7-32q40-58 40-130t-40-130q-10-15-7-32t18-28 32-6 28 18q54 79 54 178zm143 0q0 136-75 247-13 19-36 19-13 0-23-7-15-10-18-28t6-32q60-91 60-199 0-109-60-200-10-14-6-32t18-27q14-10 32-6t27 18q75 111 75 247z"/></symbol><symbol viewBox="-10 -10 734.3 1020" id="right-open" xmlns="http://www.w3.org/2000/svg"><path d="M618 489L204 904q-11 10-25 10t-25-10l-93-93q-11-11-11-25t11-25l296-297L61 168q-11-11-11-25t11-25l93-93q10-11 25-11t25 11l414 414q10 11 10 25t-10 25z"/></symbol><symbol viewBox="-10 -10 1305.7 1020" id="soundcloud" xmlns="http://www.w3.org/2000/svg"><path d="M438 766l8-135-8-292q-1-5-5-9t-9-4q-5 0-9 4t-4 9l-7 292 7 135q1 5 5 9t8 3q12 0 14-12zm165-17l6-117-7-327q0-9-7-14-5-3-9-3t-9 3q-7 5-7 14l-1 3-5 323q0 1 6 132 0 6 3 10 5 6 13 6 6 0 11-5 5-4 5-11zM20 560l11 71-11 70q-2 5-5 5t-5-5L0 631l10-71q1-5 5-5t5 5zm48-44l14 115-14 113q-2 5-6 5-5 0-5-5L44 631l13-115q0-5 5-5 4 0 6 5zm156 252zM119 494l14 137-14 132q0 6-6 6t-7-6L94 631l12-137q1-6 7-6t6 6zm52-4l13 141-13 136q-1 8-7 8-8 0-8-8l-11-136 11-141q0-7 8-7 6 0 7 7zm53 11l12 130-12 137q-1 9-9 9-3 0-6-2t-2-7l-12-137 12-130q0-4 2-6t6-3q8 0 9 9zm214 265zM276 419l12 212-12 137q0 4-3 7t-6 3q-9 0-10-10l-10-137 10-212q1-10 10-10 4 0 6 3t3 7zm53-48l10 261-10 136q0 5-3 8t-8 3q-10 0-11-11l-9-136 9-261q1-11 11-11 5 0 8 4t3 7zm54-22l10 282-10 135q-1 12-12 12-10 0-12-12l-9-135 9-282q0-5 4-9t8-4q5 0 9 4t3 9zm219 414zM492 346l8 285-8 133q0 6-5 10t-9 4-10-3-4-11l-8-133 8-285q0-6 4-10t10-3 9 3 5 10zm55 11l8 275-8 131q0 6-5 11t-10 4-11-4-5-11l-6-131 6-275q1-7 5-11t11-5 10 5 5 11zm118 275l-8 129q0 7-5 12t-12 5-12-5-6-12l-3-64-3-65 6-355v-2q1-8 7-13 5-4 11-4 5 0 8 3 8 4 9 14zm621-11q0 65-47 111t-111 46H689q-7-1-12-6t-5-12V258q0-13 16-18 47-19 101-19 108 0 188 73t89 181q30-12 62-12 65 0 111 46t47 112z"/></symbol><symbol viewBox="-10 -10 188 188" id="spotify" xmlns="http://www.w3.org/2000/svg"><path d="M83.996.277C37.747.277.253 37.77.253 84.019c0 46.251 37.494 83.741 83.743 83.741 46.254 0 83.744-37.49 83.744-83.741 0-46.246-37.49-83.738-83.745-83.738l.001-.004zm38.404 120.78a5.217 5.217 0 0 1-7.18 1.73c-19.662-12.01-44.414-14.73-73.564-8.07a5.222 5.222 0 0 1-6.249-3.93 5.213 5.213 0 0 1 3.926-6.25c31.9-7.291 59.263-4.15 81.337 9.34 2.46 1.51 3.24 4.72 1.73 7.18zm10.25-22.805c-1.89 3.075-5.91 4.045-8.98 2.155-22.51-13.839-56.823-17.846-83.448-9.764-3.453 1.043-7.1-.903-8.148-4.35a6.538 6.538 0 0 1 4.354-8.143c30.413-9.228 68.222-4.758 94.072 11.127 3.07 1.89 4.04 5.91 2.15 8.976v-.001zm.88-23.744c-26.99-16.031-71.52-17.505-97.289-9.684-4.138 1.255-8.514-1.081-9.768-5.219a7.835 7.835 0 0 1 5.221-9.771c29.581-8.98 78.756-7.245 109.83 11.202a7.823 7.823 0 0 1 2.74 10.733c-2.2 3.722-7.02 4.949-10.73 2.739z"/></symbol><symbol viewBox="-10 -10 20 20" id="sprite.symbol" xmlns="http://www.w3.org/2000/svg"/><symbol viewBox="-10 -10 1020 1020" id="ticket" xmlns="http://www.w3.org/2000/svg"><path d="M571 252l177 177-319 319-177-177zM454 798l345-344q10-11 10-25t-10-26L597 201q-10-10-26-10t-25 10L202 546q-11 11-11 25t11 25l202 202q10 11 25 11t25-11zm496-355L444 950q-21 20-51 20t-50-20l-71-70q32-32 32-76t-32-76-76-32-75 32l-70-71q-21-20-21-50t21-51L557 51q21-21 50-21t51 21l70 69q-32 32-32 76t32 76 76 32 76-32l70 70q20 21 20 51t-20 50z"/></symbol><symbol viewBox="-10 -10 948.6 1020" id="twitter" xmlns="http://www.w3.org/2000/svg"><path d="M904 228q-37 54-90 93v23q0 73-21 145t-64 139-103 117-144 82-181 30q-151 0-276-81 19 2 43 2 126 0 224-77-59-1-105-36t-64-89q19 3 34 3 24 0 48-6-63-13-104-62T60 396v-2q38 21 82 23-37-25-59-64t-22-86q0-49 25-91 68 83 164 133t208 55q-5-21-5-41 0-75 53-127t127-53q79 0 132 57 61-12 115-44-21 64-80 100 52-6 104-28z"/></symbol><symbol viewBox="-10 -10 877.1 1020" id="youtube" xmlns="http://www.w3.org/2000/svg"><path d="M542 694v118q0 37-22 37-13 0-25-12V669q12-12 25-12 22 0 22 37zm189 1v25h-51v-25q0-38 25-38t26 38zM191 573h60v-52H77v52h59v318h55V573zm161 318h50V615h-50v211q-17 23-32 23-10 0-11-11-1-2-1-20V615h-50v218q0 28 5 41 7 21 32 21 27 0 57-34v30zm240-83V698q0-41-5-55-10-31-40-31-28 0-52 30V521h-50v370h50v-27q25 31 52 31 30 0 40-31 5-15 5-56zm188-6v-7h-51q0 29-1 34-4 20-22 20-26 0-26-38v-49h100v-57q0-44-15-65-22-28-59-28-38 0-60 28-15 21-15 65v96q0 44 16 65 22 29 60 29 40 0 60-30 10-15 12-30 1-5 1-33zM441 293V176q0-39-24-39t-24 39v117q0 39 24 39t24-39zm401 419q0 131-14 195-8 33-33 56t-57 25q-102 12-309 12t-310-12q-32-3-57-25t-32-56q-15-62-15-195 0-131 15-195 7-33 32-56t57-26q103-11 310-11t309 11q33 4 58 26t32 56q14 62 14 195zM285 0h57l-67 223v151h-56V223q-8-42-34-119-21-57-37-104h60l39 147zm207 186v97q0 46-16 66-21 29-59 29-37 0-59-29-15-21-15-66v-97q0-45 15-66 22-28 59-28 38 0 59 28 16 21 16 66zm187-91v279h-51v-31q-30 35-58 35-25 0-33-21-4-13-4-42V95h51v225q2 12 12 12 15 0 32-24V95h51z"/></symbol><symbol viewBox="0 0 24 24" id="twitch" xmlns="http://www.w3.org/2000/svg"><path d="M2.149 0l-1.612 4.119v16.836h5.731v3.045h3.224l3.045-3.045h4.657l6.269-6.269v-14.686h-21.314zm19.164 13.612l-3.582 3.582h-5.731l-3.045 3.045v-3.045h-4.836v-15.045h17.194v11.463zm-3.582-7.343v6.262h-2.149v-6.262h2.149zm-5.731 0v6.262h-2.149v-6.262h2.149z"/></symbol>
</svg>
